<?xml version="1.0" encoding="UTF-8"?>
<svg width="416px" height="240px" viewBox="0 0 416 240" version="1.1" xmlns="http://www.w3.org/2000/svg" xmlns:xlink="http://www.w3.org/1999/xlink">
    <!-- Generator: Sketch 56 (81588) - https://sketch.com -->
    <title>button</title>
    <desc>Created with Sketch.</desc>
    <g id="Page-2" stroke="none" stroke-width="1" fill="none" fill-rule="evenodd">
        <g id="button" fill="#000000" fill-rule="nonzero">
            <path d="M352.003,72 C351.959,32.254 319.749,0.044 280.003,0 L136.003,0 C96.239,0 64.003,32.235 64.003,72 C64.003,111.764 96.239,144 136.003,144 L200.003,144 L200.003,216 C200.004,220.418 203.586,223.999 208.005,223.998 C210.126,223.998 212.159,223.155 213.659,221.656 L237.811,197.504 L256.803,235.576 C258.776,239.529 263.579,241.135 267.533,239.163 C267.535,239.162 267.537,239.161 267.539,239.16 L299.539,223.16 C303.492,221.188 305.098,216.384 303.126,212.43 C303.125,212.428 303.124,212.426 303.123,212.424 L284.947,176 L320.003,176 C324.421,175.999 328.002,172.417 328.001,167.998 C328.001,165.877 327.158,163.844 325.659,162.344 L303.379,140.064 C332.44,130.063 351.964,102.734 352.003,72 Z M272.003,160 C267.585,159.976 263.984,163.538 263.959,167.956 C263.952,169.212 264.241,170.452 264.803,171.576 L285.227,212.424 L267.539,221.264 L247.203,180.424 C246.052,178.122 243.864,176.514 241.323,176.104 C240.887,176.032 240.445,175.997 240.003,176 C237.881,176 235.847,176.844 234.347,178.344 L216.003,196.688 L216.003,75.312 L300.691,160 L272.003,160 Z M290.315,126.992 L213.659,50.344 C210.534,47.22 205.469,47.221 202.345,50.346 C200.846,51.846 200.003,53.88 200.003,56 L200.003,128 L136.003,128 C105.075,128 80.003,102.928 80.003,72 C80.003,41.072 105.075,16 136.003,16 L280.003,16 C310.931,16.145 335.885,41.334 335.740629,72.261 C335.615,99.013 316.586,121.941 290.315,126.992 Z" id="Shape"></path>
            <path d="M40.003,64 L8.003,64 C3.585,64 0.003,67.582 0.003,72 C0.003,76.418 3.585,80 8.003,80 L40.003,80 C44.421,80 48.003,76.418 48.003,72 C48.003,67.582 44.421,64 40.003,64 Z" id="Path"></path>
            <path d="M53.721,102.295 C52.381,98.085 47.882,95.758 43.672,97.097 C43.465,97.163 43.261,97.237 43.06,97.32 L12.988,108.264 C8.808,109.695 6.579,114.243 8.01,118.424 C9.441,122.604 13.989,124.833 18.17,123.402 C18.268,123.369 18.365,123.333 18.461,123.296 L48.525,112.344 C52.733,111.004 55.06,106.505 53.721,102.295 Z" id="Path"></path>
            <path d="M48.523,31.656 L18.459,20.704 C14.337,19.113 9.706,21.164 8.115,25.286 C6.524,29.408 8.575,34.039 12.697,35.63 C12.793,35.667 12.89,35.702 12.988,35.736 L43.06,46.68 C43.935,47.006 44.862,47.171 45.796,47.1680402 C50.214,47.155 53.786,43.563 53.7730354,39.145 C53.762,35.796 51.668,32.808 48.523,31.656 Z" id="Path"></path>
            <path d="M408.003,64 L376.003,64 C371.585,64 368.003,67.582 368.003,72 C368.003,76.418 371.585,80 376.003,80 L408.003,80 C412.421,80 416.003,76.418 416.003,72 C416.003,67.582 412.421,64 408.003,64 Z" id="Path"></path>
            <path d="M407.998,25.609 C406.567,21.429 402.019,19.2 397.839,20.63 C397.741,20.663 397.644,20.699 397.548,20.736 L367.484,31.688 C363.335,33.207 361.204,37.803 362.723,41.951 C363.875,45.096 366.863,47.19 370.212,47.2000402 L370.212,47.2000402 C371.146,47.203 372.073,47.038 372.948,46.712 L403.02,35.768 C407.199,34.337 409.428,29.789 407.998,25.609 Z" id="Path"></path>
            <path d="M403.31,108.37 C403.214,108.333 403.117,108.297 403.019,108.264 L372.947,97.32 C368.86,95.642 364.186,97.595 362.508,101.682 C360.83,105.769 362.783,110.443 366.87,112.121 C367.071,112.204 367.275,112.278 367.482,112.344 L367.482,112.344 L397.546,123.296 C401.668,124.887 406.299,122.836 407.891,118.715 C409.483,114.594 407.432,109.961 403.31,108.37 Z" id="Path"></path>
        </g>
    </g>
</svg>