<?xml version="1.0" encoding="iso-8859-1"?>
<!-- Generator: Adobe Illustrator 18.0.0, SVG Export Plug-In . SVG Version: 6.00 Build 0)  -->
<!DOCTYPE svg PUBLIC "-//W3C//DTD SVG 1.1//EN" "http://www.w3.org/Graphics/SVG/1.1/DTD/svg11.dtd">
<svg version="1.1" id="Capa_1" xmlns="http://www.w3.org/2000/svg" xmlns:xlink="http://www.w3.org/1999/xlink" x="0px" y="0px"
	 viewBox="0 0 491.478 491.478" style="enable-background:new 0 0 491.478 491.478;" xml:space="preserve">
<g>
	<path d="M334.583,359.565c0,10.896,7.279,16.184,16.748,16.184c10.626,0,19.28-6.966,22.065-15.63
		c0.558-2.232,0.83-4.744,0.83-7.256v-14.797C351.906,337.799,334.583,343.096,334.583,359.565z"/>
	<path d="M168.128,214.715c-3.436,13.637-6.846,31.021-10.59,44.315l-13.629,48.756h50.795l-14.331-48.756
		c-4.067-13.63-8.179-30.678-11.603-44.315H168.128z"/>
	<g>
		<path d="M371.329,60.752c0-16.208-13.132-29.35-29.358-29.35H225.948c-16.221,0-29.355,13.142-29.355,29.35v33.445h174.736V60.752
			z"/>
		<path d="M462.123,126.962H174.738V94.197V60.752c0-16.208-13.134-29.35-29.357-29.35H29.357C13.14,31.402,0,44.543,0,60.752
			v33.445v32.765v55.603V430.72c0,16.213,13.14,29.357,29.357,29.357h432.766c16.222,0,29.355-13.144,29.355-29.357V156.31
			C491.478,140.106,478.345,126.962,462.123,126.962z M261.165,394.818c-5.024,6.808-12.977,10.824-21.441,10.824
			c-11.759,0-22.108-7.695-25.484-18.933l-12.03-40.055h-65.805l-11.196,40.309c-3.06,11.042-13.116,18.68-24.589,18.68
			c-8.082,0-15.681-3.833-20.495-10.327c-4.799-6.494-6.241-14.887-3.887-22.622l54.408-178.018c1.505-4.888,4.48-8.917,8.147-12.11
			c4.733-4.12,10.718-6.728,17.308-6.728h18.638h10.222c11.665,0,21.97,7.591,25.425,18.727l54.764,176.578
			C267.661,379.221,266.173,388.002,261.165,394.818z M413.823,399.547c-1.793,1.927-4.286,3.015-6.911,3.015h-19.79
			c-4.561,0-8.447-3.247-9.276-7.719l-1.094-5.967h-0.83c-8.94,10.886-22.894,16.758-39.068,16.758
			c-27.661,0-44.123-20.086-44.123-41.878c0-35.461,31.819-52.491,80.136-52.204v-1.967c0-7.255-3.918-17.583-24.863-17.583
			c-8.254,0-16.813,1.665-24.284,4.176c-3.6,1.215-7.536,0.903-10.907-0.865c-3.363-1.767-5.874-4.829-6.917-8.486l-0.126-0.456
			c-1.999-6.951,1.759-14.229,8.572-16.653c10.24-3.657,24.303-6.753,41.201-6.753c45.514,0,60.042,26.807,60.042,58.9v47.476
			c0,8.296,0.208,16.364,0.718,23.078C416.51,395.042,415.616,397.619,413.823,399.547z"/>
	</g>
</g>
<g>
</g>
<g>
</g>
<g>
</g>
<g>
</g>
<g>
</g>
<g>
</g>
<g>
</g>
<g>
</g>
<g>
</g>
<g>
</g>
<g>
</g>
<g>
</g>
<g>
</g>
<g>
</g>
<g>
</g>
</svg>
