<?xml version="1.0"?>
<svg xmlns="http://www.w3.org/2000/svg" height="512px" viewBox="0 0 496 496" width="512px" class=""><g><path d="m480 448v-224h-128v-80h-73.800781l25.984375-47.632812c5.113281-9.375 7.816406-19.976563 7.816406-30.648438v-1.71875c0-35.289062-28.710938-64-64-64s-64 28.710938-64 64v1.71875c0 10.671875 2.703125 21.273438 7.816406 30.648438l25.984375 47.632812h-73.800781v80h-128v224h-16v48h496v-48zm-16 0h-16v-64h-48v64h-16v-208h80zm-32 0h-16v-48h16zm-304-16h240v16h-240zm32-32h176v16h-176zm104-16h-32v-64h32zm104-144v176h-16v-176zm-168-174.28125v-1.71875c0-26.472656 21.527344-48 48-48s48 21.527344 48 48v1.71875c0 8.007812-2.023438 15.960938-5.855469 22.992188l-37.335937 68.441406c-1.921875 3.511718-7.6875 3.511718-9.609375 0l-37.335938-68.441406c-3.839843-7.03125-5.863281-14.984376-5.863281-22.992188zm26.527344 94.28125 2.625 4.808594c3.757812 6.902344 10.984375 11.191406 18.847656 11.191406s15.089844-4.289062 18.847656-11.191406l2.625-4.808594h66.527344v224h-56v-80h-64v80h-56v-224zm-82.527344 256h-16v-176h16zm-112-176h80v208h-16v-64h-48v64h-16zm48 208h-16v-48h16zm400 32h-464v-16h464zm0 0" data-original="#000000" class="active-path" data-old_color="#000000" fill="#FFFFFF"/><path d="m176 208h56v16h-56zm0 0" data-original="#000000" class="active-path" data-old_color="#000000" fill="#FFFFFF"/><path d="m264 208h56v16h-56zm0 0" data-original="#000000" class="active-path" data-old_color="#000000" fill="#FFFFFF"/><path d="m176 240h56v16h-56zm0 0" data-original="#000000" class="active-path" data-old_color="#000000" fill="#FFFFFF"/><path d="m264 240h56v16h-56zm0 0" data-original="#000000" class="active-path" data-old_color="#000000" fill="#FFFFFF"/><path d="m176 272h56v16h-56zm0 0" data-original="#000000" class="active-path" data-old_color="#000000" fill="#FFFFFF"/><path d="m264 272h56v16h-56zm0 0" data-original="#000000" class="active-path" data-old_color="#000000" fill="#FFFFFF"/><path d="m280 64c0-17.648438-14.351562-32-32-32s-32 14.351562-32 32 14.351562 32 32 32 32-14.351562 32-32zm-48 0c0-8.824219 7.175781-16 16-16s16 7.175781 16 16-7.175781 16-16 16-16-7.175781-16-16zm0 0" data-original="#000000" class="active-path" data-old_color="#000000" fill="#FFFFFF"/><path d="m48 256h16v16h-16zm0 0" data-original="#000000" class="active-path" data-old_color="#000000" fill="#FFFFFF"/><path d="m80 256h16v16h-16zm0 0" data-original="#000000" class="active-path" data-old_color="#000000" fill="#FFFFFF"/><path d="m48 288h16v16h-16zm0 0" data-original="#000000" class="active-path" data-old_color="#000000" fill="#FFFFFF"/><path d="m80 288h16v16h-16zm0 0" data-original="#000000" class="active-path" data-old_color="#000000" fill="#FFFFFF"/><path d="m48 320h16v16h-16zm0 0" data-original="#000000" class="active-path" data-old_color="#000000" fill="#FFFFFF"/><path d="m80 320h16v16h-16zm0 0" data-original="#000000" class="active-path" data-old_color="#000000" fill="#FFFFFF"/><path d="m48 352h16v16h-16zm0 0" data-original="#000000" class="active-path" data-old_color="#000000" fill="#FFFFFF"/><path d="m80 352h16v16h-16zm0 0" data-original="#000000" class="active-path" data-old_color="#000000" fill="#FFFFFF"/><path d="m432 256h16v16h-16zm0 0" data-original="#000000" class="active-path" data-old_color="#000000" fill="#FFFFFF"/><path d="m400 256h16v16h-16zm0 0" data-original="#000000" class="active-path" data-old_color="#000000" fill="#FFFFFF"/><path d="m432 288h16v16h-16zm0 0" data-original="#000000" class="active-path" data-old_color="#000000" fill="#FFFFFF"/><path d="m400 288h16v16h-16zm0 0" data-original="#000000" class="active-path" data-old_color="#000000" fill="#FFFFFF"/><path d="m432 320h16v16h-16zm0 0" data-original="#000000" class="active-path" data-old_color="#000000" fill="#FFFFFF"/><path d="m400 320h16v16h-16zm0 0" data-original="#000000" class="active-path" data-old_color="#000000" fill="#FFFFFF"/><path d="m432 352h16v16h-16zm0 0" data-original="#000000" class="active-path" data-old_color="#000000" fill="#FFFFFF"/><path d="m400 352h16v16h-16zm0 0" data-original="#000000" class="active-path" data-old_color="#000000" fill="#FFFFFF"/></g> </svg>
