<?xml version="1.0"?>
<svg xmlns="http://www.w3.org/2000/svg" xmlns:xlink="http://www.w3.org/1999/xlink" version="1.1" id="Capa_1" x="0px" y="0px" width="512px" height="512px" viewBox="0 0 42.062 42.062" style="enable-background:new 0 0 42.062 42.062;" xml:space="preserve" class=""><g><g>
	<path d="M38.26,29.35l-1.327-1.327c4.337-4.337,4.336-11.394-0.002-15.731l1.329-1.328C43.329,16.032,43.329,24.281,38.26,29.35z    M35.964,13.259l-1.327,1.328c3.07,3.072,3.07,8.069,0,11.139l1.327,1.33C39.767,23.251,39.767,17.062,35.964,13.259z    M33.594,15.627l-1.327,1.328c1.768,1.765,1.768,4.639,0,6.403l1.328,1.328C36.093,22.189,36.093,18.125,33.594,15.627z    M3.802,29.35l1.327-1.327c-4.337-4.337-4.336-11.394,0.002-15.731l-1.329-1.328C-1.267,16.032-1.267,24.281,3.802,29.35z    M6.098,27.055l1.327-1.328c-3.07-3.07-3.07-8.068,0-11.14l-1.327-1.328C2.295,17.062,2.295,23.251,6.098,27.055z M8.467,24.687   l1.328-1.328c-1.766-1.765-1.766-4.638,0.001-6.403l-1.328-1.328C5.969,18.125,5.969,22.189,8.467,24.687z M29.745,8.057v25.949   c0,1.113-0.912,2.025-2.026,2.025H14.345c-1.114,0-2.026-0.912-2.026-2.025V8.057c0-1.114,0.912-2.026,2.026-2.026h13.374   C28.833,6.031,29.745,6.943,29.745,8.057z M18.646,7.737c0,0.135,0.11,0.245,0.246,0.245h4.278c0.136,0,0.245-0.11,0.245-0.245   c0-0.136-0.109-0.246-0.245-0.246h-4.278C18.757,7.491,18.646,7.601,18.646,7.737z M22.045,34.006c0-0.561-0.454-1.014-1.014-1.014   c-0.56,0-1.013,0.454-1.013,1.014c0,0.559,0.453,1.012,1.013,1.012C21.591,35.018,22.045,34.565,22.045,34.006z M28.335,9.244   H13.728v23.037h14.607V9.244z" data-original="#000000" class="active-path" data-old_color="#000000" fill="#FFFFFF"/>
</g></g> </svg>
