<?xml version="1.0" encoding="UTF-8"?>
<svg width="16px" height="27px" viewBox="0 0 16 27" version="1.1" xmlns="http://www.w3.org/2000/svg" xmlns:xlink="http://www.w3.org/1999/xlink">
    <!-- Generator: Sketch 53.1 (72631) - https://sketchapp.com -->
    <title>Path</title>
    <desc>Created with Sketch.</desc>
    <defs>
        <path d="M8.43636364,15.4909091 C5.13454545,14.6327273 4.07272727,13.7454545 4.07272727,12.3636364 C4.07272727,10.7781818 5.54181818,9.67272727 8,9.67272727 C10.5890909,9.67272727 11.5490909,10.9090909 11.6363636,12.7272727 L14.8509091,12.7272727 C14.7490909,10.2254545 13.2218182,7.92727273 10.1818182,7.18545455 L10.1818182,4 L5.81818182,4 L5.81818182,7.14181818 C2.99636364,7.75272727 0.727272727,9.58545455 0.727272727,12.3927273 C0.727272727,15.7527273 3.50545455,17.4254545 7.56363636,18.4 C11.2,19.2727273 11.9272727,20.5527273 11.9272727,21.9054545 C11.9272727,22.9090909 11.2145455,24.5090909 8,24.5090909 C5.00363636,24.5090909 3.82545455,23.1709091 3.66545455,21.4545455 L0.465454545,21.4545455 C0.64,24.64 3.02545455,26.4290909 5.81818182,27.0254545 L5.81818182,30.1818182 L10.1818182,30.1818182 L10.1818182,27.0545455 C13.0181818,26.5163636 15.2727273,24.8727273 15.2727273,21.8909091 C15.2727273,17.76 11.7381818,16.3490909 8.43636364,15.4909091 Z" id="path-1"></path>
    </defs>
    <g id="Page-1" stroke="none" stroke-width="1" fill="none" fill-rule="evenodd">
        <g id="with-blog" transform="translate(-1061.000000, -3842.000000)">
            <g id="sec-footer" transform="translate(58.000000, 3729.000000)">
                <g id="Group-8" transform="translate(994.000000, 37.000000)">
                    <g id="Group" transform="translate(9.000000, 72.000000)">
                        <mask id="mask-2" fill="white">
                            <use xlink:href="#path-1"></use>
                        </mask>
                        <use id="Path" fill="#000000" fill-rule="nonzero" xlink:href="#path-1"></use>
                    </g>
                </g>
            </g>
        </g>
    </g>
</svg>