<?xml version="1.0" encoding="UTF-8"?>
<svg width="8px" height="15px" viewBox="0 0 8 15" version="1.1" xmlns="http://www.w3.org/2000/svg" xmlns:xlink="http://www.w3.org/1999/xlink">
    <!-- Generator: Sketch 53.1 (72631) - https://sketchapp.com -->
    <title></title>
    <desc>Created with Sketch.</desc>
    <g id="Page-1" stroke="none" stroke-width="1" fill="none" fill-rule="evenodd">
        <g id="with-blog" transform="translate(-801.000000, -3813.000000)" fill="#ffffff" fill-rule="nonzero">
            <g id="sec-footer" transform="translate(58.000000, 3729.000000)">
                <g id="Group-13" transform="translate(743.000000, 81.000000)">
                    <path d="M5,8 L7.5,8 L7.1875,10.5 L5,10.5 L5,18 L1.7578125,18 L1.7578125,10.5 L0,10.5 L0,8 L1.7578125,8 L1.7578125,6.3203125 C1.7578125,5.22655703 2.03124727,4.39974238 2.578125,3.83984375 C3.12500273,3.27994512 4.03645195,3 5.3125,3 L7.5,3 L7.5,5.5 L6.171875,5.5 C5.67708086,5.5 5.35807363,5.57812422 5.21484375,5.734375 C5.07161387,5.89062578 5,6.15103984 5,6.515625 L5,8 Z" id=""></path>
                </g>
            </g>
        </g>
    </g>
</svg>