<?xml version="1.0" encoding="UTF-8"?>
<svg width="132px" height="42px" viewBox="0 0 132 42" version="1.1" xmlns="http://www.w3.org/2000/svg" xmlns:xlink="http://www.w3.org/1999/xlink">
    <!-- Generator: Sketch 55.2 (78181) - https://sketchapp.com -->
    <title>logo</title>
    <desc>Created with Sketch.</desc>
    <g id="Footer-design-1" stroke="none" stroke-width="1" fill="none" fill-rule="evenodd">
        <g id="footer-2-dark" transform="translate(-1010.000000, -24.000000)">
            <g id="Group-2" transform="translate(1010.000000, 24.000000)">
                <g id="logo">
                    <path d="M4.70391677,17.3238438 L4.07233492,17.2840945 C4.00990889,17.3104666 3.90085602,17.4044892 3.7444056,17.5650155 C3.58834054,17.725924 3.35058215,17.8768951 3.03074509,18.0171645 C2.71090804,18.1581983 2.51939115,18.2957923 2.45735047,18.429182 C2.39492444,18.5633361 2.33249842,18.667296 2.27007239,18.7406794 C2.20764636,18.8148273 2.13327461,18.9115252 2.04772784,19.0319199 C1.96218106,19.1530791 1.8565963,19.2535991 1.73174424,19.3338622 C1.60689219,19.4141254 1.50554623,19.5379599 1.42770637,19.7053659 C1.34909581,19.8731541 1.20882992,19.9568571 1.00613801,19.9568571 C0.335250888,19.9568571 0,19.5884111 0,18.851519 C0,18.6371017 0.155679723,18.2419013 0.468195205,17.6655355 C0.780325342,17.0895519 1.12366849,16.7513001 1.49822466,16.65078 C1.87278082,16.55026 2.15716606,16.4596773 2.35292175,16.3794142 C2.54790675,16.299151 2.72747791,16.2288252 2.8912499,16.1684368 C3.05540723,16.1080483 3.48853596,15.863819 4.1906361,15.4349845 C4.22184911,15.4082302 4.61952602,15.3077101 5.38443753,15.1334244 L6.250695,14.6912127 C6.37554705,14.5574408 6.48459993,14.4836752 6.57823897,14.470298 C6.67187801,14.4569208 6.79673007,14.4167892 6.95279513,14.3495211 L7.35085739,14.3093895 C7.5223363,14.135486 7.7955465,14.0009497 8.17048801,13.9073094 L8.8259613,13.66652 C9.26255815,13.4521027 9.82439239,13.2575601 10.511464,13.0836567 L10.6521153,13.0030113 C10.6829429,12.9762569 10.7299551,12.9495026 10.7923812,12.9227482 L11.4243484,12.9624975 C11.6120118,12.9624975 11.7364785,12.8356053 11.7989045,12.5810565 C11.8613305,12.5543021 11.9079574,12.5409249 11.9395558,12.5409249 L12.5248961,12.5810565 C12.5561091,12.5810565 12.633949,12.5478046 12.758801,12.4801543 C12.8836531,12.4136505 13.0281578,12.3666393 13.1919298,12.3398849 C13.3560871,12.3131305 13.4924995,12.2393648 13.6019377,12.1189701 C13.7106053,11.9981932 13.8277504,11.9378048 13.9529878,11.9378048 L14.3510501,11.9378048 C14.4755168,11.9378048 14.6238749,11.8342271 14.7957392,11.6263073 C14.9672181,11.4187698 15.2015084,11.2077924 15.4982247,10.9929929 C15.5602653,11.0201295 15.6230767,11.0335067 15.6855027,11.0335067 C15.7791418,11.0335067 15.8646886,10.9433062 15.9429138,10.7621408 C16.0207536,10.5813576 16.1340453,10.4372662 16.2827888,10.3302487 C16.4307616,10.2232311 16.5987724,10.0321284 16.7856651,9.75732271 C16.9733286,9.482517 17.1486609,9.30823132 17.3124329,9.23446567 C17.4765902,9.16108222 17.63227,9.05368249 17.7810135,8.91303089 C17.9289863,8.77276149 18.0811979,8.69555599 18.2372629,8.6821788 L18.2842751,8.64166503 L18.2842751,8.38061871 C18.2842751,8.16658366 18.5027662,7.9655436 18.9393631,7.77749852 C19.0017891,7.75074414 19.0873359,7.69723538 19.1967741,7.61697224 L19.1967741,7.31541214 C19.1967741,7.28865776 19.2749993,7.19845728 19.4310644,7.04404628 C19.5871294,6.89039969 19.6649693,6.77994232 19.6649693,6.71267416 C19.6649693,6.60565664 19.9112053,6.32091359 20.4029066,5.858445 C20.8942226,5.39597642 21.245658,5.11161557 21.4560568,5.00421584 C21.666841,4.89719832 21.9203986,4.6292723 22.2171149,4.2004378 L22.5450442,4.09991777 C22.8722028,3.72497423 23.145413,3.45360837 23.3642894,3.28620238 C23.5827805,3.11841419 23.7854725,2.9009393 23.9731359,2.63263108 L24.3238006,2.29093941 C24.417825,2.26418503 24.4648372,2.21067627 24.4648372,2.13041313 C24.4648372,2.04976778 24.3708128,2.00963621 24.1835347,2.00963621 C23.9808428,2.00963621 23.6918334,1.95650965 23.3176626,1.84910992 L22.9199857,1.96950464 L22.498032,1.92937307 L21.913077,2.1705447 L21.3512427,2.13041313 C20.9608874,2.33145319 20.6876772,2.44535041 20.5316121,2.47172259 C20.3755471,2.49885917 20.2541631,2.52561356 20.1690017,2.55236794 C20.0830696,2.57950452 19.9851917,2.6062589 19.8761388,2.63263108 C19.7667006,2.65976767 19.6187278,2.71977392 19.4314497,2.81379646 C19.2441716,2.90743679 18.9863753,2.95406586 18.6588313,2.95406586 C18.5335939,2.95406586 18.3813823,3.01789416 18.2025818,3.14516858 C18.0226253,3.27282519 17.7455616,3.42991163 17.3710055,3.6175745 C17.3710055,3.64471109 17.3552063,3.65770607 17.3243786,3.65770607 L16.6453992,3.6175745 C15.9429138,4.22031248 15.4982247,4.52187258 15.3109466,4.52187258 L14.7726184,4.44122723 C14.2258127,4.61551291 13.8007762,4.81655297 13.4967383,5.04434741 C13.1919298,5.27214186 12.8994523,5.45330724 12.6185351,5.58707914 L12.1969668,5.54694757 C11.822796,5.86838234 11.5842669,6.05948507 11.4829209,6.11949132 C11.3811896,6.17987978 11.2879359,6.28383966 11.2020038,6.43137096 C11.1160717,6.57890226 10.9638601,6.6522857 10.7457543,6.6522857 L10.2305469,6.99359516 C10.2305469,7.19463523 10.0509758,7.41593218 9.69221877,7.65710381 L9.64520657,7.73736695 L9.64520657,8.17996085 C9.64520657,8.28697838 9.52420798,8.43068762 9.28221078,8.611853 C9.04021359,8.79263618 8.85678897,8.88321886 8.73232226,8.88321886 C8.45140514,8.88321886 8.16624921,8.72536802 7.87762517,8.41081294 C7.58861578,8.09587566 7.44449644,7.77138324 7.44449644,7.43618906 C7.44449644,7.3826803 7.49150863,7.24852619 7.58514767,7.03410894 L7.81943795,6.16994244 C7.94390465,5.75448512 8.74735075,5.33941001 10.2305469,4.92357049 L10.6051031,4.68278107 C10.9172332,4.52187258 11.1438166,4.44122723 11.2840825,4.44122723 L11.5649996,4.36134629 L11.7052655,4.05940399 C11.7989045,4.00627743 11.958823,3.93900928 12.1854064,3.85874613 C12.4116044,3.77848299 12.6185351,3.67108326 12.8058132,3.53692915 C12.9930913,3.40315725 13.2659162,3.27550063 13.6250585,3.15510592 L13.9996147,2.95406586 L14.491316,2.95406586 C15.2250145,2.32457349 16.9105172,1.67520645 19.5485949,1.0048181 C22.1859018,0.335194172 24.3318929,0 25.9861826,0 C26.438964,0 26.8875065,0.244611482 27.332581,0.733452242 C27.7772701,1.22267521 28,1.67520645 28,2.08989935 C28,2.34483038 27.8277504,2.6062589 27.4847926,2.87380271 C27.2347031,2.98120244 27.0474251,3.22581392 26.9229584,3.60763716 C26.797721,3.9894604 26.5869368,4.26732375 26.2909912,4.44122723 C25.6663455,4.91057551 25.3307093,5.19837621 25.2836971,5.30577593 L25.0732983,5.70747385 C25.0104869,5.82825077 24.909141,5.91539361 24.7688751,5.96890238 C24.6286092,6.02279334 24.4956649,6.16994244 24.3708128,6.41073187 C24.2459607,6.6522857 23.9261237,6.83306888 23.4113016,6.9538458 C23.3800886,6.96722299 23.3565825,7.05130818 23.3411687,7.20495477 C23.3253695,7.35898357 23.1380914,7.5233319 22.7793345,7.69723538 L22.498032,7.89827544 C22.3419669,8.32749215 22.1939941,8.57516128 22.0537282,8.64166503 L21.8194379,8.84270509 C21.6005615,9.49933404 21.2418045,9.82764851 20.7423963,9.82764851 C20.6329581,9.82764851 20.5354656,9.94498558 20.4499188,10.1792775 C20.3636013,10.4139517 20.1339352,10.6249291 19.759379,10.8122097 L19.759379,10.9329866 C20.4298808,10.7453238 20.9138752,10.6516834 21.2109769,10.6516834 L21.5381355,10.6111697 L21.6787867,10.490775 C21.7724258,10.5446659 21.8660648,10.5714203 21.9600892,10.5714203 C22.1627811,10.5714203 22.3889791,10.47778 22.6386832,10.2897349 L23.0140101,10.3302487 C23.0456084,10.3034943 23.1007129,10.2897349 23.1785528,10.2897349 L24.3769783,9.9881748 C24.7218629,9.93504824 25.1056673,9.86778008 25.5280064,9.78751694 L25.7634527,9.78751694 C26.296386,9.78751694 26.7110181,9.92778634 27.0085051,10.2094717 C27.3063775,10.490775 27.455121,10.8324666 27.455121,11.2345467 L27.3614819,11.7975354 L27.4081088,12.0987132 C27.4081088,12.1789764 27.2597506,12.2997533 26.962649,12.4602796 L26.7283587,12.6211881 C26.3526465,12.9024913 25.9545842,13.0431429 25.5326305,13.0431429 C24.8135752,13.0431429 24.3835292,12.8891141 24.2432633,12.5810565 C24.2432633,12.5275477 24.1376786,12.4939137 23.926509,12.4801543 C23.7153395,12.4671593 23.555421,12.4335252 23.4459828,12.3796342 C23.3365445,12.3268899 23.2506124,12.2997533 23.1881864,12.2997533 C22.9847238,12.2997533 22.7739396,12.2729989 22.5550632,12.219108 C22.2737607,12.3796342 21.9689521,12.4602796 21.6410228,12.4602796 L21.4999862,12.4602796 L21.2186838,12.3796342 L20.773224,12.6613197 C20.7416256,12.6613197 20.6949988,12.6483247 20.6321874,12.6211881 C20.5697614,12.5944337 20.50695,12.5810565 20.4452947,12.5810565 C20.3512703,12.5810565 20.2456855,12.6112507 20.1285404,12.671257 C20.0113952,12.7316455 19.8900113,12.7618397 19.7651592,12.7618397 L19.4368446,12.6613197 C19.3432055,12.7014512 19.2376208,12.7285878 19.1204756,12.7415828 C19.0029451,12.7553422 18.8738543,12.8421028 18.7335884,13.0030113 C18.5929372,13.1635376 18.4441937,13.2441829 18.2881286,13.2441829 C18.02224,13.2441829 17.7644436,13.4654799 17.5143541,13.9073094 L17.3737029,14.0280863 L17.2330517,14.0280863 C17.1232281,14.0280863 17.0453882,14.1385437 16.998376,14.3598406 C16.9517492,14.5807554 16.8966447,14.7183493 16.8346041,14.7714759 C16.5841293,14.7986125 16.4319176,14.8689383 16.3771985,14.9824533 C16.3224794,15.0967327 16.2404008,15.327967 16.1313479,15.675774 L15.9201784,16.0377225 L15.6388759,16.1783741 C15.4824255,16.687854 15.1972695,17.1701972 14.7830228,17.6254039 C14.3691613,18.0809928 14.0639674,18.4597584 13.8689824,18.7609363 C13.6736121,19.0624964 13.4936556,19.2665941 13.3298836,19.3739938 C13.1653409,19.4813935 13.0520492,19.6587369 12.9892378,19.906406 C12.9268118,20.1548395 12.848972,20.3218633 12.7549476,20.4090062 C12.6613085,20.496149 12.4740304,20.7877717 12.1923426,21.28311 L11.4655804,22.3483166 L11.1607718,22.9311799 C11.0517189,23.1188427 10.9106823,23.2124831 10.7388181,23.2124831 C10.6447937,23.2124831 10.5981669,23.2797512 10.5981669,23.4135231 L10.5981669,23.815221 C10.5981669,23.869112 10.4424871,24.1905468 10.1307423,24.7799076 L9.96697036,25.1819877 C9.935372,25.2358787 9.84250365,25.2962671 9.68643858,25.3627709 C9.53075886,25.430039 9.42132064,25.6043247 9.35927995,25.8856279 C9.29723927,26.1665489 9.20706834,26.3477143 9.0906939,26.4279774 C8.97354876,26.5086228 8.89956236,26.6794686 8.86873469,26.9405149 C8.83752168,27.2019435 8.68184195,27.3727893 8.40131018,27.4530524 C8.36971182,27.6942241 8.34312295,27.8551326 8.31923151,27.9353957 C8.29611076,28.0156588 8.15969833,28.1028017 7.91037957,28.196442 L7.86375272,28.196442 L8.00363326,28.8798253 C8.00363326,28.9734657 7.97280559,29.0208592 7.91037957,29.0208592 C7.75469984,29.1011223 7.67685998,29.1680082 7.67685998,29.2218992 L7.77049902,29.4626886 L7.77049902,29.543334 C7.77049902,29.5964605 7.70768765,29.7241172 7.58322094,29.9251572 L7.58322094,29.9652888 C7.58322094,30.0184154 7.64526162,30.2664667 7.77049902,30.7090606 L7.63023313,30.94985 C7.63023313,31.1914039 7.7543145,31.3117986 8.00363326,31.3117986 L8.7284688,30.9097184 C8.9461892,30.9097184 9.05562743,31.1310154 9.05562743,31.5732271 L9.12576037,31.7742672 C8.98549448,31.8545303 8.91536154,31.9214162 8.91536154,31.974925 C8.91536154,32.0284338 8.93077537,32.08844 8.96237373,32.1560904 C8.99358674,32.2229763 9.00900058,32.2833648 9.00900058,32.3364914 C9.00900058,32.7790853 8.54928298,33 7.63023313,33 L7.53620875,33 C7.47378272,33 7.38014368,32.9728634 7.25567697,32.9193547 L6.76397567,32.9598684 C6.57631224,32.9598684 6.23720789,32.8054574 5.74550659,32.4973998 C5.25380529,32.1889601 4.87886378,31.723816 4.62145275,31.1008212 C4.36404173,30.4774441 4.23533621,29.9316547 4.23533621,29.4626886 L4.8908095,27.1514923 C4.95323553,27.0983658 4.98444854,27.0108407 4.98444854,26.890446 C4.98444854,26.7700513 5.03878231,26.6290175 5.14822053,26.468109 L5.429523,25.8049826 C5.85070601,25.162113 6.10811704,24.8139239 6.20175608,24.7600329 C6.29578046,24.7065241 6.42795409,24.6396382 6.59981834,24.5589928 C6.77168259,24.4787297 6.88844238,24.3980843 6.9508684,24.3178212 C6.67033663,24.2375581 6.52968539,24.1641746 6.52968539,24.0965242 C6.52968539,24.0567749 6.65029864,23.8557348 6.89229584,23.4937863 C7.13429303,23.1322199 7.33313149,22.9380596 7.4895819,22.910923 C7.52079491,22.910923 7.53620875,22.897928 7.53620875,22.8707914 C7.53620875,22.8444192 7.52079491,22.7905283 7.4895819,22.7098829 L7.4895819,22.6701335 C7.4895819,22.6433792 7.58322094,22.4958479 7.77049902,22.2275396 L7.67685998,21.9263618 C7.73928601,21.8457164 7.82907159,21.7654533 7.94621673,21.6851901 C8.06336187,21.604927 8.22328039,21.3805724 8.42597231,21.0117441 C8.62866423,20.6432981 8.78472929,20.4357605 8.89416752,20.3887493 C9.00322039,20.3421202 9.08183094,20.2920513 9.12845779,20.2381603 L9.0579395,19.6755539 C9.0579395,19.6220451 9.11265861,19.5482795 9.22209683,19.454257 L9.36236272,19.2130853 C9.42478875,19.1060678 9.50301396,19.0055478 9.596653,18.9115252 C9.69029204,18.8182671 9.81514409,18.6573586 9.97120916,18.429182 L10.1349811,18.2686557 C10.1974072,18.1883925 10.2910462,18.0206043 10.4162836,17.7664377 C10.4162836,17.4981295 10.5873772,17.2099466 10.9311057,16.901889 L11.8204839,15.7162877 C12.4447442,14.8991325 12.7572596,14.4297842 12.7572596,14.3093895 L12.7572596,14.2692579 C12.4135311,14.2692579 11.968842,14.39959 11.422807,14.6610185 C10.8760012,14.9220648 10.5719633,15.0531613 10.5095373,15.0531613 L9.97120916,14.9323844 C9.90878313,14.9591388 9.65869368,15.1666763 9.22209683,15.5553793 C8.48839834,15.5553793 7.77820594,15.763299 7.09151964,16.1783741 L6.99826594,16.2188879 L6.53007074,16.2188879 L6.4364317,16.2586373 L6.29616581,16.4596773 C6.12391621,16.5135683 5.91313204,16.6037688 5.66342793,16.7310432 C5.41410916,16.8586998 5.20332498,16.9492825 5.03184608,17.0024091 L4.70391677,17.3238438" id="Fill-43" fill="#FAB446"></path>
                    <path d="M32.2767738,20.362633 C32.3371352,20.0587308 32.5208117,19.8273551 32.8281736,19.6685061 C33.1355355,19.5096571 33.3195823,19.3468664 33.3795734,19.1813165 C33.664346,18.9877808 34.0731743,18.6424911 34.605688,18.1450532 C35.1382017,17.6476153 35.4048289,17.343713 35.4048289,17.2329523 C35.4048289,17.1915648 35.374463,17.170674 35.3148422,17.170674 L35.2696638,17.170674 L35.0896904,17.2743398 L34.6845652,17.2329523 L34.2572212,17.2743398 L33.9420827,17.1296807 L33.6495334,17.170674 L33.1996001,17.0878991 C32.9596356,17.0878991 32.7533699,17.1328341 32.5808028,17.2223098 C32.4082358,17.3125739 32.0782847,17.4126922 31.5905792,17.5230587 C31.103244,17.6338195 30.6640498,17.8234135 30.2741075,18.0930233 C29.883795,18.362633 29.5990224,18.4970438 29.419049,18.4970438 C29.3138794,18.7043752 28.9613391,19.0019708 28.3617983,19.388648 C28.0014813,19.4994088 27.7685528,19.7406385 27.6637535,20.1139141 C27.2738113,20.4040205 27.0790253,20.5699645 27.0790253,20.611352 L26.9212709,20.9637367 C26.8012887,21.0607016 26.6513109,21.1399291 26.4717079,21.2022073 C26.2913642,21.2644856 26.1861946,21.4095388 26.1565694,21.637367 C26.1262035,21.8651951 26.0247371,22.0729208 25.8529107,22.2589673 C25.6799733,22.445408 25.5940601,22.5944028 25.5940601,22.7047694 C25.5940601,23.3819472 25.7362613,23.7205361 26.0214042,23.7205361 C26.1413865,23.7205361 26.3928307,23.6476153 26.7753666,23.5029562 C27.1575322,23.3575089 27.3786106,23.2577848 27.438972,23.2022073 C27.4989631,23.147024 27.6189453,23.0918408 27.7989187,23.0362633 L28.2270034,22.8289318 C28.2862539,22.7741427 28.3540216,22.7390619 28.4291957,22.7256602 C28.5039994,22.7118644 28.5791735,22.6669294 28.6539772,22.5908553 C28.7291512,22.5151754 28.8639461,22.4320063 29.0591024,22.3421364 C29.2538883,22.2522665 29.4042364,22.1316516 29.5090357,21.9795034 C29.7641831,21.8415451 30.1767146,21.6271186 30.7470004,21.3366181 L31.219523,21.0051242 C31.5491038,20.8671659 31.7516664,20.7497044 31.8268405,20.6527395 C31.9016442,20.5561687 32.051622,20.459598 32.2767738,20.362633 Z M39.7475189,20.362633 L40.1067249,20.0725266 C40.3307658,20.0725266 40.4655607,19.9791092 40.5103688,19.7926685 C40.555177,19.6062278 40.7158939,19.4576271 40.9925196,19.3468664 C41.2691453,19.236894 41.5272552,19.0122192 41.766479,18.6736303 C42.0057029,18.3350414 42.252333,18.1655499 42.5063694,18.1655499 C42.5959858,18.1655499 42.7007851,18.2349231 42.8207673,18.3728814 C42.9400089,18.5112337 43,18.6216003 43,18.7043752 C43,19.1608199 42.8500222,19.6306661 42.5500667,20.1139141 L42.4604503,20.6945211 L42.3030662,20.9637367 C42.0779144,21.0744974 41.9320101,21.191959 41.8646126,21.3161214 C41.7968449,21.4402838 41.6205747,21.592432 41.3361724,21.7721719 L41.1110206,22.0618841 C40.7810695,22.1592432 40.5599911,22.3180922 40.4474152,22.5388254 C40.3348393,22.7603469 40.1774552,22.8845093 39.9752629,22.9121009 C39.7727003,22.9400867 39.551622,23.0776508 39.3116575,23.3263697 C39.1616798,23.395743 38.9817064,23.4580213 38.7721078,23.5132046 L38.7269293,23.7205361 C38.5769516,23.8588885 38.34032,23.9688609 38.0181455,24.05203 C37.695971,24.1348049 37.4563768,24.2144265 37.2986224,24.2901064 C37.1412383,24.3665747 37.0323656,24.4044147 36.9727448,24.4044147 C36.6876018,24.4044147 36.4250481,24.3523847 36.1850837,24.248719 C35.9454896,24.1450532 35.6981188,24.0796216 35.4433417,24.05203 C35.3533551,23.9688609 35.3003999,23.8793851 35.2855873,23.7824202 C35.2704044,23.6858494 35.195971,23.5581395 35.0604355,23.3992905 C34.9256406,23.2404415 34.8586135,23.0228616 34.8586135,22.7461569 L34.9486002,22.3523847 C34.9486002,22.2972014 34.910828,22.2278281 34.8360243,22.1450532 C34.7608502,22.0618841 34.7234484,21.9932992 34.7234484,21.9377217 C34.7234484,21.8829326 34.738261,21.8415451 34.7686269,21.8135593 C34.7982521,21.7859677 34.813435,21.7445802 34.813435,21.6893969 C34.813435,21.6200236 34.7982521,21.5439495 34.7686269,21.4611746 C34.738261,21.3783997 34.7234484,21.3090264 34.7234484,21.2538431 L34.8586135,20.2380765 C34.8586135,20.1556957 34.8282477,20.1139141 34.7686269,20.1139141 C34.7082654,20.1139141 34.599763,20.1828932 34.4420086,20.3212456 C34.2846245,20.459598 34.100948,20.5281829 33.8909791,20.5281829 C33.7706266,20.611352 33.6732336,20.7839968 33.5984299,21.0465116 C33.4780773,21.184864 33.3284699,21.3090264 33.1481262,21.4197872 L33.0581395,21.5439495 C33.028144,21.6409145 32.9155681,21.7201419 32.7207821,21.7824202 C32.5259961,21.8446985 32.390831,21.9243201 32.3160273,22.0208908 L32.0908754,22.2278281 L31.663161,22.1868348 C31.6331655,22.2144265 31.5502148,22.3350414 31.4154199,22.5490737 C31.2806251,22.7638944 31.1080581,22.9400867 30.8980892,23.0776508 L29.1876018,24.362633 C29.0079988,24.4737879 28.7450748,24.6117462 28.4003111,24.777296 L28.2651459,24.9018526 C27.0649533,25.6342136 26.2176715,26 25.7225596,26 C25.3174345,26 24.8445415,25.8963343 24.3049919,25.6890028 C23.7647015,25.4820654 23.4725226,25.2333465 23.4273441,24.94324 L23.2021923,24.0934174 C23.0673974,23.9002759 23,23.6306661 23,23.2853764 C23,23.1194324 23.0148126,23.0086717 23.0448082,22.9534884 L23.0448082,22.8289318 L23,22.1450532 C23,21.9795034 23.1422012,21.8963343 23.4273441,21.8963343 L23.3825359,21.3366181 C23.3825359,21.2814348 23.5136276,21.0642491 23.7761813,20.6838786 C24.0383647,20.3039022 24.2150052,20.0863224 24.3049919,20.030745 L24.5301437,19.7615294 C24.5149607,19.5959795 24.61976,19.419393 24.8452822,19.2329523 C25.0700637,19.0465116 25.2507777,18.8565235 25.3859428,18.6633819 C25.521108,18.4698463 25.7766257,18.2554198 26.1521256,18.0204966 L26.8275811,17.3988963 C27.3530588,16.9152542 27.923715,16.5285771 28.5395497,16.2380765 C28.6295364,16.210879 28.8135832,16.0721324 29.0909495,15.8238076 C29.3686861,15.5746945 29.6845652,15.3921955 30.0374759,15.2743398 C30.3903866,15.1572724 30.7355207,15.0086717 31.0732484,14.8289318 C31.4113465,14.6495861 31.6779736,14.559322 31.8735002,14.559322 L32.0538439,14.559322 C32.1134647,14.559322 32.5111835,14.3866772 33.2473708,14.0409933 L33.3825359,14.0409933 C33.442527,14.0409933 33.5850985,14.0965708 33.8106206,14.2069373 L33.8554288,14.2069373 L34.2164864,14.0409933 C34.2761072,14.0134017 34.3512813,14 34.441268,14 C35.3718708,14 35.8829062,14.5940087 35.9732632,15.782026 C36.0028885,16.0311391 36.0784328,16.1553015 36.1987854,16.1553015 C36.3483928,16.1553015 36.5624352,15.9034292 36.8401718,15.3985022 C37.1179085,14.8943634 37.7070804,14.642097 38.6073174,14.642097 C39.2520367,14.642097 39.5745815,15.0224675 39.5745815,15.782026 C39.5745815,16.6807253 39.1394608,17.5301537 38.26996,18.3314939 C38.2099689,18.4422546 38.1647904,18.566417 38.1347948,18.7043752 L37.8200267,19.554592 L37.8200267,19.5959795 C37.8200267,19.6787544 37.7559621,19.7926685 37.6285735,19.9377217 C37.501185,20.0827749 37.4374907,20.2104848 37.4374907,20.3212456 L37.4822989,20.8391801 L37.3926826,21.4197872 C37.3926826,21.6823019 37.4448971,21.8549468 37.5496963,21.9377217 C38.028144,21.8273551 38.3758702,21.644462 38.5928751,21.388648 C38.8095097,21.1332282 38.9628203,20.9913283 39.0524367,20.9637367 L39.2768479,20.8809618 C39.4112724,20.6736303 39.5686565,20.5009854 39.7475189,20.362633 L39.7475189,20.362633 Z" id="Fill-45" fill="#F56823"></path>
                    <path d="M45.5804821,16.3452822 L45.911353,15.8285089 C46.0062208,15.7048132 46.127916,15.577976 46.2783826,15.4468193 C46.4280715,15.3164479 46.5894246,14.9791316 46.7632193,14.4352631 C46.9366252,13.8913946 47.1294712,13.5159879 47.3421462,13.3094357 C47.5548212,13.1032761 47.8662519,13 48.2764386,13 C48.5124417,13 48.8238725,13.1001346 49.2099533,13.2992258 C49.5960342,13.4991024 49.974339,14.101481 50.3448678,15.1059688 C50.7157854,16.111242 50.9008554,16.8200381 50.9008554,17.2327499 C50.9008554,17.3980702 50.9556765,17.6081566 51.0660964,17.8626164 C51.1765163,18.1174689 51.2476672,18.3138113 51.2791602,18.451251 C51.1531882,18.6852911 51.0902022,18.8160552 51.0902022,18.8435431 L51.1376361,19.6901717 L50.8538103,20.3714799 L50.8538103,20.8670481 C50.6652411,21.1427129 50.5707621,21.3143162 50.5707621,21.3834287 C50.5707621,21.4658925 50.6018663,21.5483563 50.6652411,21.6312128 C51.4043546,21.3559408 51.8526439,21.1325031 52.0097201,20.9597218 C52.1675739,20.7881185 52.3207621,20.6813082 52.4700622,20.6396836 C52.6189736,20.5988444 52.8666407,20.4201728 53.2130638,20.1032761 L53.6609642,19.8967239 C53.8180404,19.7314036 53.9517885,19.5833614 54.0618196,19.4525973 C54.1718507,19.322226 54.3013219,19.2291597 54.4506221,19.1741838 C54.5999222,19.1192079 54.7768274,19.0226074 54.9813375,18.884775 C55.1854588,18.7473354 55.4844479,18.5886907 55.8775272,18.4100191 L56.1135303,18.1622349 C56.3491446,17.9281948 56.627916,17.7424548 56.9506221,17.6046225 C57.2729393,17.4671828 57.4498445,17.3980702 57.4809487,17.3980702 C57.5913686,17.3980702 57.7052877,17.5256928 57.8230949,17.7801526 C57.940902,18.035005 58,18.2859307 58,18.5337148 C58,18.767755 57.846423,18.998261 57.5400467,19.2256255 C57.2325039,19.4525973 57.0241058,19.6210591 56.9140747,19.7314036 C56.8040435,19.841748 56.5524883,19.9379558 56.159409,20.0204196 C56.1275272,20.0345563 55.868196,20.3168967 55.3806376,20.8670481 L54.9086314,21.1148323 L54.6726283,21.3834287 C54.6407465,21.4384046 54.4288491,21.4933805 54.035381,21.5483563 C54.0198289,21.5483563 53.9840591,21.6174689 53.9292379,21.7549086 C53.8736392,21.8927409 53.7048989,21.9889487 53.4218507,22.0439246 C52.8557543,22.498261 52.5645412,22.7531134 52.5489891,22.8080893 L52.0532659,22.8905531 C51.9587869,23.1524739 51.8802488,23.3107259 51.8172628,23.3653091 C51.4393468,23.4481656 51.2270607,23.585998 51.1800156,23.7788062 C51.1325816,23.8059015 51.0540435,23.8333894 50.9440124,23.8608774 L50.8495334,23.9229216 C50.4879471,24.1707057 50.1341369,24.3226747 49.7877138,24.3772579 L49.2449456,24.5013463 L49.0563764,24.7487378 C49.0563764,24.8178503 48.8631415,24.9073825 48.4778383,25.0173342 C48.092535,25.1276787 47.80521,25.2651184 47.6166407,25.4304387 L47.2153966,25.6990351 C46.7274495,25.8639628 46.4206843,26.0155391 46.2954899,26.1529788 L45.964619,26.1529788 C45.7445568,26.1529788 45.3981337,26.2943453 44.9265163,26.5762931 C44.4545101,26.8586335 44.0765941,27 43.7939347,27 C42.8814152,27 42.2554432,26.8998654 41.9175739,26.7003815 C41.5797045,26.5008976 41.3001555,26.2531134 41.0804821,25.9570291 C40.8600311,25.6613374 40.659409,25.4233704 40.4782271,25.2446988 C40.2974339,25.0656345 40.2068429,24.9215191 40.2068429,24.8111747 C40.2068429,24.7145742 40.2818818,24.6183664 40.431182,24.521766 C40.5808709,24.4259509 40.742224,24.2296084 40.9148523,23.9331314 C41.0878694,23.6374397 41.5283826,23.4481656 42.2363919,23.3653091 C42.2678849,23.3653091 42.381804,23.3240772 42.5785381,23.2416134 C42.7752722,23.1591496 42.9362364,23.1179176 43.0622084,23.1179176 C43.2192846,23.1179176 43.4164075,23.2416134 43.6520218,23.4893975 C43.6520218,23.5172781 43.6839036,23.5306294 43.7468896,23.5306294 L44.1244168,23.4893975 C44.2970451,23.5997419 44.4152411,23.6547178 44.4786159,23.6547178 C44.8557543,23.6547178 45.2566096,23.4893975 45.6819596,23.1591496 L45.7760498,23.1179176 L45.9650078,23.1179176 C46.0124417,23.1179176 46.0909798,23.0008976 46.2006221,22.7664647 L46.6022551,22.0439246 L47.4280715,21.1148323 L47.4280715,20.90828 C47.4280715,20.8670481 47.4755054,20.7429597 47.5699844,20.5364075 L47.5699844,20.2269718 C47.5699844,20.1032761 47.6640747,20.0239538 47.8530327,19.9893975 C48.0416019,19.9552339 48.1360809,19.8692359 48.1360809,19.7314036 L48.088647,19.5664759 C47.962675,19.4148996 47.9004666,19.2978795 47.9004666,19.215023 L48.1360809,18.8023112 L48.088647,18.3687872 L48.183126,18.2034668 C48.12014,18.0106586 48.088647,17.9007068 48.088647,17.8732189 L48.183126,17.3568383 C48.183126,17.3430944 48.1395801,17.2123303 48.0532659,16.9645462 C47.9661742,16.716762 47.8993002,16.5926736 47.8522551,16.5926736 C47.757776,16.5926736 47.4580093,16.8066869 46.9537325,17.2327499 C46.4490669,17.6595983 46.1493002,17.962751 46.0548212,18.1414226 C45.9603421,18.3204869 45.7589425,18.4822731 45.4517885,18.6267811 C45.1442457,18.7712891 44.93507,18.9330753 44.8246501,19.1117469 C44.7142302,19.2908112 44.5800933,19.3940873 44.4230171,19.4215752 L42.8382582,20.5364075 L41.1119751,21.6516324 C40.9856143,21.7757209 40.9070762,21.8373724 40.8751944,21.8373724 C40.2919907,21.8373724 40,21.5554247 40,20.9911365 C40,20.8124649 40.1185848,20.4884999 40.3549767,20.0204196 C40.4653966,19.9654437 40.5478227,19.9242118 40.6030327,19.8967239 C40.6586314,19.8692359 40.6858476,19.8484237 40.6858476,19.8346797 C40.6858476,19.8213284 40.6702955,19.8138674 40.6388025,19.8138674 L40.7803266,19.8967239 L40.8277605,19.8967239 C41.411353,19.552732 41.7896579,19.3528554 41.962675,19.2978795 C42.1360809,19.2429036 42.2935459,19.0913273 42.4358476,18.8435431 L43.4292379,18.2238865 C43.681182,18.0589588 44.0672628,17.7561988 44.5878694,17.3156064 C45.1076983,16.875014 45.4385692,16.5518344 45.5804821,16.3452822" id="Fill-46" fill="#F5A623"></path>
                    <path d="M55.7151399,18.7646245 L55.8995945,18.5424706 C56.2994983,18.4617572 56.5531235,18.3268506 56.6604701,18.1381351 C56.7065837,18.0439696 57.0909903,17.6938274 57.8136898,17.0873242 C58.5367672,16.4812053 58.936293,16.1575832 59.0134011,16.1172265 C59.5013745,15.3362288 59.7988454,14.7500961 59.905814,14.3588285 C60.0887568,14.2781152 60.1802282,14.1839496 60.1802282,14.0759474 L60.3635489,13.7527097 L60.5695485,13.7119686 L60.6610199,13.6316396 L60.6610199,13.4494581 C60.6610199,13.2069337 60.9584908,12.6411715 61.5534328,11.7521716 C62.1498866,10.6602352 62.4711704,10.0575755 62.5169061,9.94303943 C62.5630197,9.82888769 62.6548691,9.66015835 62.7924541,9.43762011 C62.9304172,9.21546622 63.1405745,8.78768545 63.4236822,8.15427781 C63.7071679,7.52125452 64.1475156,6.86094242 64.7443475,6.17372588 C64.8055804,6.14720578 64.8970517,5.99538781 65.0198955,5.71904066 C65.1423613,5.44307787 65.3336197,5.17018987 65.5940485,4.90076101 L65.8695966,4.47643939 C65.9614459,4.34153278 66.1224658,4.10554232 66.3522782,3.76885233 C66.5813346,3.43216235 66.79187,3.16619264 66.9835063,2.97055884 C67.1747646,2.7753094 67.3199093,2.56968253 67.4196962,2.35406257 C67.5191052,2.13844262 67.6377912,1.9839342 67.7757542,1.88899992 C67.9137173,1.79521869 68.0547041,1.62341456 68.2006048,1.37397187 C68.3461274,1.12491352 68.571404,1 68.8783245,1 C69.4751563,1 69.9075665,1.21561996 70.1755549,1.64685987 C70.4431654,2.07809978 70.5773486,2.45514644 70.5773486,2.7783842 C70.5773486,2.81912522 70.4854993,3.10854024 70.3021785,3.64739796 L69.95746,5.46652318 C69.6509175,5.60104543 69.4982132,5.75632255 69.4982132,5.93120148 C69.4982132,6.64532247 69.1841111,7.38634791 68.5566628,8.15427781 C68.4950519,8.20847106 68.4455364,8.38373434 68.4073603,8.6796833 C68.3688063,8.97640095 68.235001,9.21892536 68.0051886,9.40764086 C67.7757542,9.59597202 67.5693767,9.91267584 67.3853,10.3569836 L65.2497079,13.045507 L65.0660092,13.2069337 C64.9741599,13.2607426 64.8668133,13.375663 64.7443475,13.5505419 L64.37695,13.4494581 C63.9638169,13.4494581 63.7570614,13.5639942 63.7570614,13.7930663 C63.7570614,13.8737797 63.7876778,13.9817818 63.8489107,14.1166884 L63.8489107,14.1566608 C63.8489107,14.170113 63.2823174,14.8780844 62.1495086,16.2790376 C62.0882757,16.3597509 61.9809291,16.6222615 61.8282249,17.067338 L61.5065631,17.6734568 C61.1849014,18.0643401 60.9588688,18.4448459 60.8292214,18.8153586 C60.698818,19.1858713 60.5268366,19.4856638 60.3125215,19.7143516 C60.005601,20.3208548 59.8528967,20.6375586 59.8528967,20.6644631 C59.8528967,20.7451764 59.8990104,20.7855331 59.9908597,20.7855331 C60.0827091,20.7855331 60.3008041,20.5833654 60.6451447,20.1794143 C60.9898632,19.7750788 61.2725929,19.5060343 61.4948457,19.3711277 C61.7167205,19.2366054 61.904199,19.0478899 62.0580372,18.8049812 L62.2878496,18.663925 C62.3494605,18.6370205 62.4798639,18.5559228 62.6790599,18.4210162 L62.9092502,18.4617572 C63.031716,18.3806595 63.1084462,18.2868783 63.1390626,18.1788762 C63.1696791,18.070874 63.2154147,17.9901607 63.2774036,17.9359674 C63.6757955,17.8956107 63.9248849,17.7676224 64.0246718,17.5520025 C64.1244588,17.3367669 64.2431448,17.2287647 64.3811078,17.2287647 C64.5039516,17.2287647 64.6649715,17.1046199 64.8641674,16.8547928 C65.0637413,16.6057345 65.3434472,16.4035668 65.704041,16.2482896 C66.0642568,16.0937812 66.3326232,15.9554155 66.5091403,15.8343455 C66.6852794,15.7132754 67.0420933,15.5683757 67.5788262,15.4000307 C68.1155591,15.2313014 68.4757749,15.1471289 68.6598516,15.1471289 L68.7978146,15.1471289 L68.9818913,15.1874856 L69.3269878,15.1471289 C69.8637207,15.1471289 70.3996976,15.278192 70.9356745,15.5410869 C71.4720294,15.8039819 71.7018418,16.2113921 71.6251117,16.7637021 L71.4417909,18.0170651 L71.1885437,19.0071489 C71.1579273,19.16896 71.0354615,19.5260204 70.8211463,20.0783304 C70.6068311,20.6310247 70.5002405,20.9473441 70.5002405,21.0284418 L70.4080132,21.4124068 L70.4994846,21.9378123 L70.4537489,22.3621339 C70.4537489,22.4970405 70.530101,22.5639173 70.6828053,22.5639173 C70.7436602,22.5639173 70.9114837,22.4428473 71.1862759,22.2007072 C71.3537214,22.2276117 71.5139853,22.1468983 71.6666896,21.9577984 C71.8193939,21.7694673 72.0253934,21.5738335 72.2850663,21.3716658 C72.2850663,21.3178569 72.3840973,21.2678915 72.5825373,21.2202321 C72.7805993,21.1733415 73.0557694,21.0149896 73.4065356,20.7451764 C73.4673906,20.6241064 73.7644835,20.3646706 74.2993265,19.9672534 C74.8330355,19.5702206 75.3444437,19.2631255 75.832417,19.0478899 L75.97038,18.8860789 C76.228919,18.6570067 76.465913,18.5424706 76.6794722,18.5424706 C76.8930314,18.5424706 77,18.6435545 77,18.8457222 C77,18.9802444 76.9614459,19.1220693 76.8850938,19.2700438 C76.8087417,19.4184026 76.7554464,19.6105773 76.7244519,19.8461834 C76.6938355,20.0817895 76.5411312,20.4219387 76.2659611,20.8666308 L76.1744897,21.0684142 C76.0671432,21.2978707 75.9374957,21.432393 75.7847914,21.4727496 C75.6320871,21.5134907 75.4676655,21.6245676 75.2915264,21.8063648 C75.1157652,21.9885464 74.7529036,22.1599662 74.2021854,22.3217772 C73.9576318,22.7257283 73.7663734,22.9278961 73.6287884,22.9278961 L73.2160333,22.766085 C72.8951275,22.9955415 72.7348636,23.2311477 72.7348636,23.4736721 C72.3372277,23.7703897 72.0998557,23.9656392 72.0238815,24.0598048 L71.5646347,24.0194481 C71.4425469,24.0194481 71.381692,24.1678069 71.381692,24.4641402 C71.381692,24.491429 71.2248299,24.5821354 70.9114837,24.7366439 C70.5977596,24.891921 70.3569858,25.029518 70.1891623,25.1513568 C70.0205828,25.2724268 69.6615009,25.333154 69.1111607,25.333154 C69.0499278,25.333154 68.9580785,25.285879 68.8359907,25.1917134 C68.7139028,25.0975479 68.5339839,25.0164501 68.2969899,24.949189 C68.0603739,24.8815435 67.8959522,24.723576 67.8041028,24.4741333 C67.7122535,24.2250749 67.6128445,24.0294412 67.5058759,23.8880006 C67.3985293,23.7465601 67.345234,23.6354831 67.345234,23.5543854 L67.3909697,23.1504343 L67.2764415,22.7257283 L67.483197,22.4428473 C67.3909697,22.2545161 67.345234,22.1269121 67.345234,22.0588823 L67.5750464,20.8262741 C67.7432479,19.9368898 67.8808329,19.3576755 67.9881795,19.0878622 C68.018418,19.0613421 68.0339152,18.9802444 68.0339152,18.8457222 L67.9881795,18.3403029 L68.0339152,18.0574218 C68.0339152,17.8552541 67.9575631,17.7476363 67.8044808,17.7337997 C67.6510205,17.7207318 67.5591712,17.6869091 67.5289327,17.6327158 C67.3293588,17.5520025 67.2148306,17.5116458 67.1838362,17.5116458 C67.0613704,17.5116458 66.9536458,17.5958183 66.8617964,17.7645476 C66.7699471,17.9328926 66.6471033,18.0843262 66.494399,18.2188485 L65.9194901,18.1381351 L65.9194901,18.1788762 C65.9194901,18.2868783 65.7127345,18.4951956 65.2988454,18.8049812 C64.9155728,18.8860789 64.5863515,19.0613421 64.3100474,19.330771 C64.1875816,19.330771 63.9766683,19.435314 63.6780634,19.6440157 C63.3794585,19.8527173 63.1840423,19.9707126 63.092193,19.997617 L62.9077383,20.3208548 L62.5399629,20.4219387 C62.4329943,20.6917519 62.1801251,20.8666308 61.7817332,20.9473441 L61.5519208,21.3313091 C61.2298811,21.3585979 61.0076283,21.5031132 60.8847846,21.7660081 C60.7623187,22.0285187 60.6704694,22.1599662 60.6096145,22.1599662 C60.57862,22.1599662 60.5287265,22.1430548 60.459556,22.1096164 C60.3911415,22.076178 60.3257508,22.0588823 60.2641399,22.0588823 C59.926981,22.0588823 59.7432822,22.2814206 59.7126658,22.7257283 C59.7126658,22.7799216 59.3981857,23.0966254 58.7699814,23.6758398 C58.1413992,24.2554385 57.8046182,24.5517719 57.7585046,24.5652241 C57.7127689,24.5786763 57.6246993,24.7166577 57.4942959,24.9791683 C57.3638925,25.2420632 57.1839736,25.437697 56.9541612,25.5656853 C56.7243488,25.6936736 56.5516116,25.7978323 56.4367054,25.8785456 C56.3217992,25.9596433 56.2337296,26 56.1724967,26 C55.850457,26 55.5900282,25.7978323 55.3908322,25.3934968 C55.1912583,24.9895457 55.0918494,24.780844 55.0918494,24.7673918 L55.2301904,24.3426858 L55.1840767,23.9790914 C55.1840767,23.9656392 55.2797059,23.6931355 55.4709642,23.1604274 C55.6626005,22.6281036 55.8806955,22.2107003 56.1263831,21.9074487 C56.3713147,21.6045814 56.562951,21.1091552 56.701292,20.4219387 C56.0114769,20.8262741 55.5975878,21.0284418 55.4596248,21.0284418 C55.1534602,21.0284418 55,20.8535629 55,20.502652 C55,19.8561765 55.2385059,19.2769621 55.7151399,18.7646245" id="Fill-47" fill="#F56823"></path>
                    <path d="M85.379365,9.2003243 L85.2370056,8.42022661 L85.2370056,8.30041638 C85.2370056,7.67321936 85.4897423,7.32672058 85.9956057,7.26015935 C86.105593,7.2468471 86.4371148,7.16012732 86.9905614,7 C87.2748901,7.05362934 87.5709197,7.2635825 87.87904,7.63023982 C88.1871604,7.99689715 88.3412205,8.32019458 88.3412205,8.60013212 C88.3412205,8.62713697 88.317819,8.6868519 88.2702358,8.78003763 C88.2226527,8.87360372 88.1910606,9.05008608 88.1754596,9.31024543 C88.1594685,9.57040477 88.0054084,9.79709333 87.7132791,9.98993074 C87.4207598,10.1835288 87.1091292,10.2801377 86.7772173,10.2801377 C86.5556827,10.2801377 86.2752542,10.1500581 85.9363218,9.89027906 C85.5962194,9.63011971 85.4105671,9.40000801 85.379365,9.2003243 Z M75.1423594,19.1997237 L75.5222445,18.9201666 L75.6642138,18.9201666 C75.7745911,18.9201666 75.9411321,18.8201345 76.1622767,18.6200705 L76.3998024,18.540197 C76.7161133,18.1400689 76.9926415,17.9069144 77.2301672,17.8403531 L77.6096622,17.599972 C77.6728464,17.546723 77.7637224,17.4999399 77.8822902,17.4600032 C78.0008581,17.4200665 78.1908006,17.2899868 78.4517278,17.0701445 C78.712655,16.8499219 78.9220989,16.7400008 79.0804493,16.7400008 C79.2384097,16.7400008 79.3651681,16.7536934 79.4599444,16.7803179 C79.5547206,16.6201906 79.7442731,16.4634864 80.0289919,16.3102054 C80.3137107,16.1569244 80.5434359,15.9735957 80.7169973,15.7598391 L81.0258977,15.6400288 C81.2786344,15.5335308 81.5036792,15.3969852 81.7014223,15.2300116 C81.8991653,15.0634183 82.1561923,14.9801217 82.4728932,14.9801217 C82.9311735,14.9801217 83.409345,15.177143 83.9070179,15.5700444 C84.4046907,15.9637066 84.6535271,16.3398727 84.6535271,16.7000641 L84.2506305,18.2602594 C83.9819028,19.4066341 83.681973,20.0068263 83.3504511,20.0600753 L83.2552848,20.4799816 C83.0337502,20.6134844 82.9233729,20.7199824 82.9233729,20.7998559 L83.0657323,21.2802378 C83.0657323,21.3467991 82.9787566,21.4468311 82.8051951,21.5799536 C82.773213,21.5799536 82.758002,21.6198903 82.758002,21.7001441 L82.758002,22.5201786 C82.758002,22.6669936 82.6472347,22.7868039 82.4260901,22.8799896 C82.4576822,22.9069944 82.5048753,22.9332386 82.5680595,22.9598631 C82.6628357,22.8799896 82.8761798,22.8400528 83.2080917,22.8400528 L83.5868067,22.8799896 L84.1071011,22.4399247 C84.2174784,22.4133002 84.3711485,22.3501621 84.5688915,22.2501301 C84.7658545,22.1500981 85.1012767,22.0200184 85.5747679,21.8598911 L88.6750826,19.8600112 C89.1006006,19.5002002 89.423542,19.3202947 89.6446865,19.3202947 C89.8814322,19.3202947 90,19.4469512 90,19.7002642 C90,19.993514 89.9325255,20.236938 89.7983567,20.4301557 C89.6641878,20.6233735 89.5417198,20.8569084 89.4313425,21.1299996 C89.3205752,21.4034712 89.1903066,21.5932658 89.0401466,21.7001441 C88.8903768,21.8070225 88.7679087,21.9234095 88.6731324,22.0500661 C88.5787462,22.1771029 88.3217192,22.3600512 87.9032216,22.5996717 C87.484334,22.8400528 87.1290205,23.0834768 86.8368912,23.3299435 C86.544762,23.5767906 86.3041161,23.7536534 86.1145636,23.859771 L85.0958163,24.4801217 L84.953847,24.6801858 C84.9222549,24.7068103 84.7759952,24.7634824 84.515458,24.8502022 C84.2549208,24.936922 84.0212954,25.0468431 83.8161419,25.1799656 L83.3902338,25.3800296 C83.2954575,25.4332786 83.1413973,25.4667494 82.9280533,25.4800617 C82.7147092,25.4933739 82.5290569,25.5702046 82.3714865,25.709793 C82.2131361,25.8501421 82.0867677,25.9201265 81.9923815,25.9201265 L81.636678,25.8798094 L81.1631868,26 C80.894459,26 80.5664474,25.8634544 80.1795418,25.5899828 C79.7922463,25.3168915 79.5991835,25.0266845 79.5991835,24.7197422 L79.5991835,24.5999319 L79.6463767,24.3199944 C79.6463767,24.2667454 79.5991835,24.1298194 79.5044073,23.9099772 C79.409631,23.6901349 79.3620479,23.5669015 79.3620479,23.5398967 L79.409631,23.2599592 L79.3620479,23.1401489 C79.3620479,22.7799576 79.39364,22.553269 79.4572142,22.4600833 C79.5200083,22.3668975 79.5675915,22.2368179 79.5991835,22.0698443 C79.6303856,21.9036313 79.6623677,21.7667054 79.6939598,21.6602074 L79.8125276,21.1600472 C79.8753218,20.9999199 79.954497,20.8934219 80.0496633,20.8397926 C80.0808653,20.733675 80.1440495,20.5533891 80.2388258,20.3000761 L80.333602,19.9398847 L80.5707377,19.6599472 C80.697106,19.5534492 80.771991,19.4100573 80.7957825,19.2301517 C80.8191841,19.0498659 80.9026496,18.8600713 81.0446189,18.6600072 C81.1869783,18.4599431 81.257963,18.3401329 81.257963,18.2998158 C81.257963,18.1400689 81.1631868,18.0601954 80.9736343,18.0601954 C80.9104501,18.0601954 80.712707,18.1666934 80.3811852,18.3800697 L79.954107,18.2602594 C79.9225149,18.2602594 79.8359292,18.3268207 79.6935698,18.4599431 C79.6935698,18.5135725 79.6221951,18.5535092 79.4802257,18.5801337 C79.3382563,18.6067582 79.2036974,18.7067902 79.0777191,18.8798495 L78.8873866,18.9201666 L78.5796563,18.799976 L78.48449,18.799976 C78.3265296,18.799976 78.2317533,18.9471714 78.2005512,19.2400408 C78.0265998,19.4534171 77.7972646,19.5933859 77.5125458,19.6599472 L76.9914714,19.7797574 C76.81752,19.8333867 76.6911516,19.9535773 76.6119764,20.1399488 C76.5328012,20.3270809 76.3748407,20.496717 76.1377051,20.649998 C75.9009595,20.803279 75.742999,20.8801097 75.6642138,20.8801097 C75.2215346,20.8801097 75,20.6735797 75,20.259759 L75.1903326,19.3202947 L75.1423594,19.1997237 L75.1423594,19.1997237 Z" id="Fill-48" fill="#F5A623"></path>
                    <path d="M95.2537256,23.9187523 L95.3465801,24.3659228 L95.3928162,24.4051288 L95.7638517,24.4051288 L95.8796332,24.443965 C96.1883836,24.4957465 96.4199465,24.5216373 96.5743217,24.5216373 C97.0531143,24.5216373 97.4352312,24.4210332 97.7210546,24.2201948 C98.0068781,24.0193564 98.2342377,23.9187523 98.4046618,23.9187523 C98.5743217,23.9187523 98.7168514,23.8218469 98.8330149,23.6269264 C98.9484142,23.4323758 99.0221628,23.3351005 99.0531143,23.3351005 L99.3775315,23.3351005 L99.4700038,23.2962643 C99.4700038,22.9981507 99.6282002,22.7843669 99.944593,22.6545432 C100.260986,22.5250894 100.485288,22.3531007 100.616737,22.139317 C100.747803,21.9251634 100.898739,21.7631611 101.068017,21.6529405 C101.238059,21.5430896 101.354222,21.3973616 101.415743,21.2153865 L101.60107,20.9819998 C101.662973,20.9305881 101.693924,20.8333128 101.693924,20.6901738 L102.134123,19.9900136 C102.226977,19.6660091 102.273214,19.4133892 102.273214,19.231784 C102.273214,18.9591912 102.106993,18.7454075 101.774933,18.589693 C101.442491,18.4343484 101.276653,18.1295771 101.276653,17.675749 C101.276653,17.3776353 101.458158,17.1020836 101.821169,16.8490938 C102.184562,16.5961041 102.366068,16.4440883 102.366068,16.3919369 C102.366068,16.3142646 102.319832,16.2754284 102.226977,16.2754284 C102.180359,16.2754284 102.002675,16.3275798 101.693924,16.430773 C101.585785,16.6127481 101.037447,16.8524226 100.049293,17.1505363 C99.7248758,17.0210825 99.5471914,16.9559857 99.51624,16.9559857 C99.4233856,16.9559857 99.3309133,17.0340279 99.238441,17.1893725 C99.1459687,17.3450869 99.0531143,17.4556775 98.9602598,17.5200345 L98.6591517,17.5200345 C98.6285823,17.5200345 98.5277035,17.6043644 98.3580436,17.7730243 C98.1883836,17.9416841 97.9721055,18.0256442 97.7095911,18.0256442 L97.4317921,18.2594008 C97.4466947,18.4665269 97.2927016,18.6806806 96.9682843,18.9011219 L96.7134123,19.1537418 C96.5590371,19.3094563 96.3584257,19.4910615 96.111196,19.6985575 L95.6939243,20.5732955 C95.5242644,20.9106152 95.4394345,21.163605 95.4394345,21.331895 C95.3928162,21.4099371 95.2884983,21.4909382 95.1260986,21.5752682 C94.9633168,21.6595981 94.882308,21.76649 94.882308,21.8959438 C94.882308,21.9222044 94.9365686,21.9869313 95.0447077,22.0904944 C95.1528468,22.1944273 95.2074895,22.2724695 95.2074895,22.3238811 L95.1146351,22.5768709 L95.0213985,23.2962643 L95.2537256,23.9187523 Z M102.468093,23.4131426 L101.375621,24.2105782 C101.313718,24.1587967 101.251815,24.1329059 101.189912,24.1329059 C101.035155,24.1329059 100.845625,24.2494144 100.62094,24.4824313 C100.395873,24.7161879 100.237295,24.8326963 100.144822,24.8326963 L99.9124952,24.7938602 C99.5250287,25.0405622 99.2464654,25.1829614 99.0760413,25.2217976 C98.9056171,25.2606337 98.7004203,25.3323881 98.4604509,25.4359512 C98.2204815,25.5395142 98.0034391,25.5979534 97.8093237,25.6105289 C97.6159725,25.6238442 97.457394,25.6789545 97.333206,25.7758599 C97.2094001,25.8731352 96.9075277,25.9219578 96.4275888,25.9219578 L96.0557891,25.8827518 C95.8544135,25.960794 95.7225831,26 95.6614444,26 C95.5372564,26 95.4050439,25.9445198 95.2659534,25.834669 C95.1260986,25.7244483 94.9751624,25.6626803 94.8123806,25.6497349 C94.6499809,25.6367895 94.4833779,25.5461719 94.3133359,25.377512 C94.1429117,25.209222 93.9843332,25.0923437 93.8372182,25.0272469 C93.6897211,24.96252 93.5697363,24.8719024 93.4768819,24.755024 L93.1517004,24.5216373 C92.8884219,24.3659228 92.6327856,24.0811244 92.3851739,23.6657625 C92.13718,23.2511404 92.0137562,22.9267661 92.0137562,22.6937492 L92.0137562,22.6157071 L92.0603745,22.2462089 L92.0137562,21.8182715 C92.075277,21.76649 92.1528468,21.6562693 92.2457012,21.4876094 L92.2457012,20.8651214 L92.8032098,19.3094563 C92.8337791,19.2443595 92.7718762,19.1603995 92.6171188,19.0564665 C92.4623615,19.2510171 92.307222,19.3675256 92.1517004,19.4067316 C91.9957967,19.4455677 91.8907146,19.5365553 91.8360718,19.6789545 C91.7818112,19.8217236 91.6923959,19.8927383 91.5674436,19.8927383 L91.2865877,19.815066 C91.2556362,19.8409567 91.1853267,19.9741092 91.0760413,20.2137838 C90.9667558,20.4538281 90.7795185,20.5732955 90.5147115,20.5732955 C90.2338556,20.5732955 90.0940008,20.4830477 90.0940008,20.3010726 L90.140619,19.9511774 L90,19.4648009 C90,19.3616077 90.124188,19.1574405 90.3721819,18.8522993 C90.6205579,18.547528 90.8490638,18.3729503 91.0584639,18.3270867 C91.2674818,18.2819628 91.4463126,18.1587967 91.5934276,17.9579583 C91.7405426,17.7567501 92.0619029,17.5137468 92.5582728,17.2285785 C92.8372182,17.1767969 93.0779519,17.0081371 93.2793275,16.7229688 C93.4963699,16.5801997 93.7791364,16.4633214 94.1276271,16.3727037 C94.4768819,16.2820861 94.7401605,16.1489335 94.9186091,15.9739859 C95.0970577,15.7990383 95.6243791,15.5268154 96.5001911,15.1569474 C97.3763852,14.7874491 98.0156668,14.602885 98.418418,14.602885 C98.542606,14.602885 98.7134123,14.5736654 98.9304547,14.5152262 C99.1474971,14.4571569 99.3488728,14.4053754 99.5353458,14.3598816 C99.7206725,14.3143879 99.9147879,14.2430033 100.116164,14.145728 C100.317921,14.0484527 100.480703,14 100.604891,14 L101.279327,14.1945506 C101.775697,14.3110591 102.07757,14.3957588 102.186473,14.4475404 C102.217425,14.4730613 102.376385,14.5285415 102.662973,14.6125015 C102.949561,14.6972013 103.244555,14.810381 103.546809,14.9527802 C103.849064,15.0955493 104.000382,15.3611145 104.000382,15.7502158 C103.736721,16.0745901 103.604891,16.2495377 103.604891,16.2754284 C103.604891,16.3275798 103.782958,16.4048823 104.139855,16.5088152 C104.264043,16.7029959 104.450134,16.9559857 104.698128,17.2670448 L104.953382,17.9479719 L105,19.5428431 L104.953382,19.6985575 C104.782958,19.8283812 104.698128,19.9123413 104.698128,19.9511774 L104.768055,20.3402786 L104.581964,20.8847244 C104.535728,21.0533843 104.457776,21.163605 104.349255,21.2153865 C104.241116,21.2675379 104.171571,21.331895 104.140619,21.4099371 L104.001528,21.5656516 C103.970195,21.6044877 103.904089,21.7180372 103.803592,21.9055604 C103.702713,22.0941931 103.590753,22.2399211 103.466565,22.3434842 C103.342377,22.4474171 103.265571,22.5705832 103.234238,22.7129824 C103.203286,22.8557514 103.125716,22.9593145 103.002293,23.0240414 C102.878105,23.0891382 102.789071,23.1571939 102.735193,23.2282086 C102.68055,23.2995931 102.591517,23.3613611 102.468093,23.4131426 L102.468093,23.4131426 Z" id="Fill-49" fill="#F56823"></path>
                    <path d="M127.591457,22.2670004 L127.682981,22.2670004 L127.911417,22.3454641 C127.9418,22.3454641 127.971808,22.3327604 128.002566,22.3066059 C128.002566,22.0839187 128.124098,21.8937379 128.368288,21.7368106 C128.444808,21.4879689 128.615478,21.2977881 128.882174,21.1670154 C129.148494,21.0362427 129.571231,20.8199073 130.15001,20.5183829 L130.720911,20.0860858 L130.995109,19.9683904 L131.177782,19.7718577 C131.345076,19.6018532 131.505244,19.5166642 131.657534,19.5166642 C131.88597,19.5166642 132,19.588776 132,19.7326259 L131.794446,20.1256912 L131.886345,20.7739501 C131.886345,21.0097145 131.790695,21.2193245 131.600894,21.4024062 C131.410719,21.5862352 131.117391,21.8545061 130.722411,22.2083396 L129.558103,23.2690928 L128.94219,23.5440891 C128.789899,23.6225527 128.653363,23.7144672 128.531831,23.819459 L127.64172,24.4673442 C127.64172,24.6511732 127.573077,24.7886713 127.436541,24.8802122 L127.070819,24.8802122 L126.888896,24.9586758 C126.781992,25.2075176 126.470285,25.4500075 125.953023,25.6857719 L125.633438,25.881931 C125.526535,25.9607682 125.427883,26 125.337109,26 L124.69794,25.9215364 L124.264325,26 C124.142793,26 123.978874,25.9476909 123.773695,25.8426991 C123.568141,25.738081 123.35921,25.6562547 123.146154,25.5972201 C122.933472,25.5385593 122.663026,25.2960693 122.336314,24.8704977 C122.009227,24.444926 121.830305,24.1661934 121.799922,24.0354207 C121.799922,23.9831116 121.765413,23.8945599 121.697145,23.770139 C121.628877,23.6457181 121.594743,23.5706172 121.594743,23.5440891 C121.594743,23.5179345 121.662636,23.3867882 121.799922,23.1513974 L121.799922,23.111792 C121.799922,23.0725602 121.757911,22.9810193 121.674264,22.8367957 C121.590617,22.6929457 121.54898,22.5158422 121.54898,22.3066059 C121.54898,22.1881632 121.503218,22.0383351 121.412069,21.8545061 C121.533601,21.7498879 121.594743,21.6710507 121.594743,21.6187416 C121.594743,21.5668062 121.571862,21.490958 121.526099,21.3926917 C121.480712,21.2944253 121.457831,21.2193245 121.457831,21.1670154 L121.594743,20.2041548 L121.503593,19.7131968 L121.54898,19.2416679 C121.54898,18.966298 121.412444,18.8287999 121.140497,18.8287999 C121.018965,18.8287999 120.8678,18.9009117 120.686252,19.0451353 L120.52721,19.0843671 C120.118351,19.2547452 119.831025,19.395606 119.664106,19.506576 C119.497562,19.6182932 119.323516,19.6735914 119.141968,19.6735914 C119.051194,19.7524286 118.876772,19.8245404 118.619454,19.8895531 L118.437906,20.0076222 C118.37714,20.0603049 118.256358,20.1387685 118.074435,20.2433866 C118.074435,20.2829921 117.790484,20.5023165 117.222584,20.9017337 C116.655434,21.3015244 116.144173,21.6777761 115.689928,22.031236 C115.235307,22.3850695 114.90672,22.5782394 114.702291,22.6107458 C114.497862,22.6439994 114.39546,22.8106412 114.39546,23.111792 C114.39546,23.1644747 114.259299,23.2690928 113.986601,23.42602 C113.956593,23.42602 113.797551,23.5706172 113.50985,23.8583171 C113.267911,23.7013899 113.13175,23.6225527 113.100992,23.6225527 C112.903314,23.6225527 112.758526,23.8388881 112.667002,24.2708115 C112.575478,24.4411897 112.332413,24.5461814 111.936308,24.5854132 C111.905175,24.5984905 111.851911,24.6967568 111.776141,24.8802122 L111.684992,24.9586758 L111.456181,24.9586758 C111.425423,24.9586758 111.318895,25.0341504 111.136596,25.1847258 C110.953173,25.3353012 110.79338,25.4302048 110.656469,25.4694366 C110.458416,25.8228964 110.290747,26 110.153836,26 C110.092695,26 110.005296,25.9738455 109.891266,25.9215364 C109.776861,25.8692273 109.636199,25.8228964 109.468904,25.7836646 C109.30161,25.7448065 109.115561,25.5845165 108.910381,25.3024212 C108.705202,25.0206994 108.6028,24.7819459 108.6028,24.5854132 C108.6028,23.131221 108.929136,22.3391122 109.582559,22.2083396 L109.628322,22.1295023 L109.628322,21.9722015 C109.628322,21.802197 109.71572,21.6807652 109.890516,21.6086534 C110.064937,21.5369153 110.24386,21.3926917 110.425783,21.1767299 C110.608456,20.9607682 110.729613,20.8397101 110.790379,20.8131819 L111.087083,20.8131819 C111.147474,20.8131819 111.178232,20.6756838 111.178232,20.4006875 C111.178232,20.3222239 111.215742,20.2501121 111.291887,20.1847258 C111.367657,20.1189658 111.41342,20.0240622 111.428799,19.8996413 C111.443803,19.7755941 111.554082,19.572336 111.759261,19.2906143 C111.964441,19.0092662 112.066843,18.8422508 112.066843,18.7895681 L112.021456,18.7111045 C111.641105,19.0126289 111.367657,19.1759079 111.200738,19.2020625 C111.033444,19.2285906 110.805759,19.4183978 110.517307,19.7718577 L110.15271,19.7131968 C109.513916,20.1189658 109.118186,20.3483784 108.965521,20.4006875 C108.813231,20.4533702 108.645561,20.6039456 108.462888,20.8527873 C108.462888,20.9308773 108.409248,20.98356 108.30272,21.0097145 C108.195817,21.0362427 107.99814,21.1408609 107.708563,21.3239426 L107.571651,21.3239426 C107.190926,21.3239426 107,21.0881781 107,20.6166492 L107.478252,19.4968615 C107.614788,19.1434016 107.937373,18.8452399 108.445633,18.6031236 C108.954268,18.3606337 109.383006,18.1286056 109.732224,17.9055448 C110.081066,17.6828576 110.430284,17.5647885 110.779877,17.5517113 L110.939294,17.3551786 C111.45468,17.1855478 111.804273,16.9169033 111.986196,16.5499925 C112.16887,16.1830818 112.419061,16 112.738271,16 C113.572492,16 114.210536,16.2649081 114.650527,16.7954715 C115.090894,17.326035 115.310702,17.7482439 115.310702,18.062472 L115.356464,18.5930354 C115.356464,18.7764908 115.310702,19.032058 115.219928,19.3593633 C115.03763,19.5951278 114.946481,19.7718577 114.946481,19.8895531 C114.946481,19.9945449 115.022251,20.046854 115.174166,20.046854 C115.265315,20.046854 115.386472,19.9915558 115.538388,19.8798386 C115.689928,19.7688686 115.860973,19.6672396 116.050398,19.5753251 C116.240574,19.4841578 116.350478,19.4053206 116.381236,19.3399342 C116.532776,19.0253325 116.797971,18.8089972 117.177572,18.6913017 C117.557173,18.5736063 117.79236,18.47534 117.883884,18.3968764 L118.111194,18.2395755 L118.293868,17.9447766 C118.703101,17.7874757 118.976174,17.6436258 119.113085,17.5128531 C119.249621,17.3817068 119.431919,17.2961441 119.659605,17.2572859 C119.887665,17.2180541 120.145734,17.0999851 120.434185,16.9034524 L120.775526,16.8246152 L121.093985,16.6676879 C121.124368,16.6415334 121.215517,16.6086534 121.367432,16.5694216 C121.518973,16.5301898 121.742907,16.4614407 122.03886,16.3631744 C122.334814,16.2649081 122.535867,16.2159617 122.642395,16.2159617 C123.4166,16.2159617 124.027262,16.4842326 124.475131,17.0211478 C124.923375,17.5588103 125.147309,17.9907338 125.147309,18.3180392 L125.101922,18.6718727 L125.192696,19.2020625 L125.192696,19.2805261 L125.010398,20.3610821 L125.055785,20.7343446 C125.055785,21.3504708 124.90387,21.7760424 124.600039,22.0118069 C124.524269,22.0383351 124.486009,22.1033478 124.486009,22.2083396 L124.486009,22.3850695 L124.94213,23.2100583 C125.078666,23.4981318 125.185194,23.6423554 125.261714,23.6423554 L125.992408,23.4656255 C126.205464,23.4133164 126.380636,23.2758183 126.517922,23.0531311 C126.63983,23.000822 126.852886,22.8435211 127.157467,22.5816022 C127.248991,22.3719922 127.393779,22.2670004 127.591457,22.2670004" id="Fill-50" fill="#F5A623"></path>
                    <path d="M26.0458984,41 L109.5,41" id="Line" stroke="#FAB446" stroke-linecap="square"></path>
                    <path d="M11.5,33 L123.5,33" id="Line" stroke="#F56823" stroke-linecap="square"></path>
                    <text id="for-life" font-family="Montserrat-Bold, Montserrat" font-size="5.5" font-weight="bold" fill="#121110">
                        <tspan x="55" y="39">FOR LIFE</tspan>
                    </text>
                </g>
            </g>
        </g>
    </g>
</svg>