<?xml version="1.0" encoding="UTF-8"?>
<svg width="15px" height="15px" viewBox="0 0 15 15" version="1.1" xmlns="http://www.w3.org/2000/svg" xmlns:xlink="http://www.w3.org/1999/xlink">
    <!-- Generator: Sketch 53.1 (72631) - https://sketchapp.com -->
    <title></title>
    <desc>Created with Sketch.</desc>
    <g id="Page-1" stroke="none" stroke-width="1" fill="none" fill-rule="evenodd">
        <g id="with-blog" transform="translate(-906.000000, -3814.000000)" fill="#ffffff" fill-rule="nonzero">
            <g id="sec-footer" transform="translate(58.000000, 3729.000000)">
                <g id="Group-13" transform="translate(743.000000, 82.000000)">
                    <path d="M120,4.875 L120,16.1640625 C120,16.6588566 119.81771,17.0885398 119.453125,17.453125 C119.08854,17.8177102 118.645836,18 118.125,18 L106.875,18 C106.354164,18 105.91146,17.8177102 105.546875,17.453125 C105.18229,17.0885398 105,16.6588566 105,16.1640625 L105,4.875 C105,4.35416406 105.18229,3.91146016 105.546875,3.546875 C105.91146,3.18228984 106.354164,3 106.875,3 L118.125,3 C118.645836,3 119.08854,3.18228984 119.453125,3.546875 C119.81771,3.91146016 120,4.35416406 120,4.875 Z M114.6875,8.3125 C114.088539,7.68749688 113.359379,7.375 112.5,7.375 C111.640621,7.375 110.904951,7.68098652 110.292969,8.29296875 C109.680987,8.90495098 109.375,9.6406207 109.375,10.5 C109.375,11.3593793 109.680987,12.095049 110.292969,12.7070312 C110.904951,13.3190135 111.640621,13.625 112.5,13.625 C113.359379,13.625 114.095049,13.3190135 114.707031,12.7070312 C115.319013,12.095049 115.625,11.3593793 115.625,10.5 C115.625,9.6406207 115.312503,8.91146133 114.6875,8.3125 Z M118.75,6.75 L118.75,4.875 C118.75,4.45833125 118.541669,4.25 118.125,4.25 L116.25,4.25 C115.833331,4.25 115.625,4.45833125 115.625,4.875 L115.625,6.75 C115.625,7.16666875 115.833331,7.375 116.25,7.375 L118.125,7.375 C118.541669,7.375 118.75,7.16666875 118.75,6.75 Z M118.164062,16.75 C118.554689,16.75 118.75,16.5416687 118.75,16.125 L118.75,9.25 L116.71875,9.25 C116.822917,9.58854336 116.875,10.0052059 116.875,10.5 C116.875,11.7239645 116.458337,12.7526 115.625,13.5859375 C114.765621,14.4453168 113.723964,14.875 112.5,14.875 C111.302077,14.875 110.273442,14.4453168 109.414062,13.5859375 C108.554683,12.7265582 108.125,11.6979227 108.125,10.5 C108.125,10.109373 108.190104,9.69271055 108.320312,9.25 L106.25,9.25 L106.25,16.125 C106.25,16.3072926 106.315104,16.4570307 106.445312,16.5742188 C106.575521,16.6914068 106.73177,16.75 106.914062,16.75 L118.164062,16.75 Z" id=""></path>
                </g>
            </g>
        </g>
    </g>
</svg>