<?xml version="1.0" encoding="UTF-8"?>
<svg width="226px" height="16px" viewBox="0 0 226 16" version="1.1" xmlns="http://www.w3.org/2000/svg" xmlns:xlink="http://www.w3.org/1999/xlink">
    <!-- Generator: Sketch 55.2 (78181) - https://sketchapp.com -->
    <title>payment-method_2dd397</title>
    <desc>Created with Sketch.</desc>
    <g id="finalzied-additions" stroke="none" stroke-width="1" fill="none" fill-rule="evenodd">
        <g id="menu2" transform="translate(-1108.000000, -3149.000000)">
            <g id="Section-Foooter" transform="translate(1.000000, 2937.000000)">
                <g id="payment-method_2dd397" transform="translate(1107.000000, 212.000000)">
                    <g id="Group" transform="translate(190.667000, 0.000000)">
                        <rect id="Rectangle" fill="#FFFFFF" x="0" y="0" width="35.333" height="16" rx="1"></rect>
                        <g transform="translate(10.029000, 3.000000)" fill="#4E4E4E" font-family="Roboto-Regular, Roboto" font-size="4.5" font-weight="normal">
                            <text id="CASH-ON">
                                <tspan x="0.672" y="4.733">CASH ON</tspan>
                            </text>
                            <text id="DELIVERY">
                                <tspan x="0.672" y="9.233">DELIVERY</tspan>
                            </text>
                        </g>
                        <g transform="translate(3.029000, 2.000000)" fill="#212121" font-family="Roboto-Regular, Roboto" font-size="10" font-weight="normal" id="₹">
                            <text>
                                <tspan x="0.606" y="9.5">₹</tspan>
                            </text>
                        </g>
                    </g>
                    <g id="Group" transform="translate(150.000000, 0.000000)">
                        <rect id="Rectangle" fill="#FFFFFF" x="0" y="0" width="35.333" height="16" rx="1"></rect>
                        <g transform="translate(11.371000, 3.000000)" fill="#4E4E4E" font-family="Roboto-Regular, Roboto" font-size="4.5" font-weight="normal">
                            <text id="NET">
                                <tspan x="0.743" y="4.733">NET</tspan>
                            </text>
                            <text id="BANKING">
                                <tspan x="0.743" y="9.233">BANKING</tspan>
                            </text>
                        </g>
                        <path d="M6.164,3.04 C6.684,3.04 7.111,3.478 7.111,4.014 L7.111,5 C8.351,5.11 9.319,6.174 9.319,7.481 L9.319,10.081 C9.319,11.462 8.24,12.574 6.9,12.574 C5.56,12.574 4.482,11.462 4.482,10.082 L4.482,7.482 C4.482,6.174 5.45,5.109 6.69,5 L6.69,4.014 C6.69349633,3.87207333 6.63969046,3.73471837 6.54072374,3.63292941 C6.44175703,3.53114045 6.30596887,3.47349471 6.164,3.473 C5.862,3.473 5.649,3.683 5.638,4.021 L5.632,4.238 C5.615,4.781 5.2,5.206 4.685,5.206 C4.165,5.206 3.74497089,4.765 3.74497089,4.231 C3.74373591,4.15350435 3.78371302,4.0811648 3.85,4.041 C3.9151815,4.00162393 3.9968185,4.00162393 4.062,4.041 C4.127,4.081 4.167,4.153 4.166,4.231 C4.166,4.538 4.39,4.773 4.686,4.773 C4.987,4.773 5.201,4.562 5.211,4.224 L5.218,4.008 C5.235,3.465 5.65,3.039 6.164,3.039 L6.164,3.04 Z M6.9,6.072 C6.81512739,6.07331577 6.73425485,6.1082985 6.67517868,6.1692501 C6.61610251,6.23020171 6.58366351,6.31212771 6.585,6.397 L6.585,7.48 C6.585,7.66 6.725,7.805 6.9,7.805 C6.98504714,7.80394731 7.06617628,7.76908011 7.12546802,7.70809968 C7.18475976,7.64711924 7.21733548,7.56504317 7.216,7.48 L7.216,6.398 C7.21733548,6.31295683 7.18475976,6.23088076 7.12546802,6.16990032 C7.06617628,6.10891989 6.98504714,6.07405269 6.9,6.073 L6.9,6.072 Z" id="Shape" fill="#000000" fill-rule="nonzero"></path>
                    </g>
                    <g id="Group" transform="translate(113.333000, 0.000000)">
                        <rect id="Rectangle" fill="#FFFFFF" x="0" y="0" width="32" height="16" rx="1"></rect>
                        <path d="M20.064,11.15 C20.044,11.097 20.091,10.831 20.17,10.558 L20.312,10.06 L20.654,10.032 C21.174,9.988 21.166,10.03 21.036,8.022 C20.976,7.102 20.938,6.328 20.952,6.305 C20.965,6.281 21.287,6.262 21.667,6.262 L22.36,6.262 L22.361,7.19 L22.363,8.118 L22.734,7.433 C22.938,7.056 23.171,6.638 23.253,6.505 L23.4,6.262 L24.039,6.262 C24.544,6.262 24.678,6.278 24.678,6.341 C24.678,6.459 22.339,10.403 22.096,10.696 C21.762,11.098 21.516,11.194 20.752,11.221 C20.186,11.241 20.095,11.231 20.064,11.149 L20.064,11.15 Z M21.204,11.06 C21.836,10.941 21.938,10.812 23.464,8.206 C23.988,7.312 24.436,6.533 24.46,6.476 C24.5,6.378 24.466,6.371 23.984,6.381 L23.464,6.391 L23.294,6.712 C22.71,7.804 22.366,8.402 22.309,8.421 C22.262,8.436 22.244,8.151 22.244,7.416 L22.244,6.39 L21.664,6.38 C21.143,6.372 21.084,6.382 21.084,6.474 C21.083,6.53 21.126,7.286 21.18,8.154 C21.292,9.963 21.281,10.045 20.918,10.144 C20.8011,10.1763218 20.6810897,10.1961 20.56,10.203 C20.428,10.203 20.403,10.241 20.314,10.569 C20.26,10.771 20.215,10.962 20.215,10.994 C20.215,11.116 20.722,11.149 21.205,11.059 L21.204,11.06 Z M23.807,10.67 C23.807,10.649 24.125,9.494 24.515,8.104 C25.255,5.464 25.295,5.364 25.481,5.734 C25.525,5.82 25.635,6.058 25.726,6.262 C25.817,6.466 25.893,6.585 25.893,6.526 C25.897,6.283 26.149,5.516 26.219,5.531 C26.318,5.554 27.588,8.014 27.565,8.139 C27.545,8.251 24.95,10.679 24.82,10.707 C24.705,10.732 24.713,10.572 24.845,10.153 L24.955,9.806 L24.466,10.245 C24.028,10.638 23.811,10.778 23.807,10.669 L23.807,10.67 Z M24.91,9.62 C24.91,9.595 24.94,9.575 24.976,9.575 C25.012,9.575 25.254,9.374 25.512,9.128 C26.379,8.304 26.555,8.147 26.613,8.147 C26.669,8.147 25.459,9.302 25.248,9.45 C25.19,9.49 25.142,9.56 25.142,9.604 C25.142,9.649 25.078,9.884 24.999,10.126 L24.857,10.566 L25.391,10.052 C26.209,9.262 27.063,8.462 27.269,8.293 L27.455,8.14 L26.875,7.003 C26.556,6.377 26.275,5.853 26.251,5.838 C26.226,5.824 26.149,6.026 26.08,6.288 L25.953,6.763 L26.303,7.426 C26.494,7.791 26.629,8.09 26.601,8.09 C26.573,8.09 26.389,7.775 26.192,7.39 C25.996,7.005 25.722,6.475 25.582,6.211 L25.33,5.732 L25.24,6.012 C25.0171993,6.76756498 24.8005255,7.52492319 24.59,8.284 C24.3935974,8.99692303 24.1892514,9.70763387 23.977,10.416 C23.941,10.511 24.078,10.415 24.417,10.109 C24.688,9.865 24.91,9.645 24.91,9.619 L24.91,9.62 Z M16.993,9.897 C16.589,9.715 16.445,9.333 16.583,8.811 C16.783,8.059 17.198,7.799 18.501,7.608 C18.914,7.548 19.108,7.492 19.19,7.412 C19.497,7.109 18.971,6.995 18.63,7.29 C18.437,7.457 18.416,7.461 17.828,7.461 C17.475,7.461 17.198,7.436 17.162,7.401 C17.118,7.356 17.062,7.399 16.969,7.548 C16.789,7.836 16.336,8.174 15.971,8.294 C15.791,8.354 15.391,8.408 15,8.428 L14.334,8.461 L14.155,9.092 C14.057,9.439 13.957,9.754 13.934,9.792 C13.875,9.885 12.468,9.888 12.436,9.796 C12.424,9.76 12.683,8.776 13.011,7.611 L13.668,5.277 L13.728,5.062 L15.019,5.062 C16.029,5.062 16.379,5.082 16.626,5.153 C17.319,5.353 17.561,5.906 17.338,6.776 C17.304,6.91 17.315,6.906 17.527,6.711 C17.819,6.441 18.132,6.289 18.581,6.202 C19.074,6.107 19.886,6.157 20.218,6.302 C20.832,6.574 20.857,6.811 20.427,8.322 C20.252,8.936 20.113,9.527 20.118,9.635 L20.128,9.832 L19.442,9.848 C18.79,9.863 18.755,9.858 18.725,9.746 C18.707,9.681 18.677,9.636 18.657,9.646 C18.106,9.946 17.352,10.059 16.993,9.897 L16.993,9.897 Z M18.36,9.617 C18.818,9.4 18.84,9.397 18.88,9.564 C18.897,9.636 18.93,9.694 18.954,9.692 C18.978,9.691 19.22,9.689 19.491,9.689 L19.983,9.689 L19.983,9.533 C19.983,9.447 20.13,8.847 20.31,8.199 C20.518,7.451 20.624,6.969 20.601,6.879 C20.548,6.669 20.291,6.443 20.019,6.366 C19.888,6.329 19.519,6.299 19.201,6.2999757 C18.56,6.302 18.101,6.425 17.751,6.687 C17.529,6.854 17.292,7.205 17.345,7.289 C17.365,7.321 17.6,7.347 17.867,7.347 C18.328,7.347 18.36,7.339 18.525,7.176 C18.672,7.031 18.745,7.004 18.989,7.004 C19.388,7.004 19.539,7.154 19.402,7.407 C19.308,7.58 19.06,7.677 18.531,7.745 C17.535,7.875 17.12,8.056 16.875,8.468 C16.67,8.813 16.618,9.374 16.775,9.563 C17.054,9.9 17.715,9.923 18.36,9.617 L18.36,9.617 Z M17.966,9.049 C17.853,8.937 17.886,8.722 18.04,8.582 C18.23,8.409 19.055,8.167 19.117,8.267 C19.207,8.41 18.938,8.915 18.71,9.031 C18.507,9.135 18.064,9.146 17.966,9.049 Z M18.74,8.83 C18.824287,8.746256 18.8906353,8.6462231 18.935,8.536 C18.987,8.39 18.981,8.372 18.895,8.397 C18.84,8.413 18.681,8.455 18.542,8.49 C18.402,8.526 18.225,8.618 18.146,8.696 C18.026,8.815 18.014,8.851 18.078,8.926 C18.181,9.049 18.563,8.994 18.74,8.83 L18.74,8.83 Z M13.89,9.503 C13.922,9.401 14.008,9.099 14.08,8.833 C14.151,8.565 14.23,8.333 14.255,8.316 C14.28,8.298 14.603,8.277 14.972,8.269 C15.845,8.249 16.238,8.118 16.635,7.715 C17.084,7.26 17.381,6.422 17.256,5.965 C17.162,5.622 17.053,5.487 16.748,5.34 C16.494,5.218 16.391,5.208 15.164,5.188 L13.851,5.166 L13.761,5.471 C13.5539189,6.20050727 13.348585,6.93050936 13.145,7.661 C12.855,8.698 12.606,9.578 12.593,9.618 C12.574,9.672 12.72,9.689 13.199,9.689 L13.831,9.689 L13.89,9.503 L13.89,9.503 Z M14.575,7.251 C14.556,7.221 14.601,6.98 14.675,6.715 L14.807,6.233 L15.241,6.217 C15.95,6.19 16.131,6.334 15.972,6.8 C15.857,7.14 15.676,7.24 15.101,7.275 C14.816,7.292 14.595,7.282 14.575,7.251 L14.575,7.251 Z M15.699,6.951 C15.927,6.727 15.934,6.455 15.713,6.372 C15.627,6.34 15.415,6.322 15.24,6.331 L14.923,6.348 L14.818,6.718 C14.76,6.923 14.712,7.097 14.711,7.104 C14.8464834,7.11851331 14.9828166,7.12352556 15.119,7.119 C15.495,7.119 15.543,7.105 15.699,6.952 L15.699,6.951 Z M9.104,9.825 C8.894,9.723 8.681,9.351 8.68199649,9.087 C8.68199649,8.83 9.293,6.499 9.408,6.317 C9.448,6.253 10.748,6.243 10.788,6.307 C10.803,6.33 10.686,6.811 10.528,7.376 C10.37,7.94 10.248,8.466 10.258,8.546 C10.293,8.842 10.785,8.733 10.962,8.39 C11.007,8.304 11.152,7.848 11.284,7.377 C11.634,6.134 11.516,6.263 12.302,6.263 C12.96,6.263 12.97,6.265 12.97,6.393 C12.97,6.546 12.125,9.595 12.039,9.754 C11.988,9.849 11.909,9.861 11.374,9.861 L10.768,9.861 L10.768,9.719 C10.768,9.64 10.761,9.576 10.753,9.577 C10.745,9.577 10.585,9.654 10.397,9.747 C10.119,9.887 9.985,9.918 9.673,9.91702315 C9.443,9.91702315 9.215,9.88 9.103,9.825 L9.104,9.825 Z M10.085,9.745 C10.205,9.712 10.419,9.597 10.564,9.488 C10.943,9.203 11.067,9.222 10.942,9.546 L10.885,9.694 L11.413,9.678 L11.942,9.661 L12.395,8.062 C12.645,7.182 12.85,6.444 12.852003,6.42 C12.853,6.396 12.606,6.377 12.302,6.377 C11.65,6.377 11.741,6.264 11.403,7.491 C11.273,7.962 11.103,8.443 11.026,8.559 C10.856,8.814 10.541,8.934 10.29,8.839 C10.147,8.785 10.13,8.751 10.13,8.511 C10.13,8.298 10.338,7.449 10.627,6.484 C10.651,6.404 10.582,6.39 10.103,6.382 C9.577,6.372 9.548,6.378 9.493,6.502 C9.461,6.575 9.303,7.11 9.143,7.691 C8.828,8.831 8.78,9.255 8.94,9.496 C9.124,9.771 9.605,9.876 10.085,9.745 Z M4.147,9.792 C4.133,9.752 4.167,9.565 4.224,9.376 C4.279,9.188 4.552,8.224 4.83,7.234 L5.389,5.244 L5.443,5.055 L6.961,5.074 C8.407,5.091 8.49,5.098 8.724,5.221 C9.165,5.454 9.283,5.811 9.122,6.43 C9.01,6.857 8.795,7.193 8.478,7.431 L8.246,7.605 L8.406,7.759 C8.606,7.951 8.616,8.249 8.446,8.948 C8.381,9.215 8.343,9.493 8.362,9.567 C8.427,9.823 8.32,9.861 7.542,9.861 C6.951,9.861 6.817,9.846 6.789,9.774 C6.77,9.726 6.81,9.45 6.878,9.16 C7.078,8.307 7.058,8.262 6.471,8.262 L6.081,8.262 L5.996,8.562 L5.774,9.347 L5.638,9.833 L4.905,9.849 C4.351,9.861 4.165,9.847 4.147,9.792 L4.147,9.792 Z M5.726,8.99 C5.985,8.052 5.959,8.09 6.329,8.09 C6.791,8.09 6.997,8.148 7.101,8.304 C7.188,8.434 7.185,8.481 7.067,8.967 C6.877,9.749 6.837,9.69 7.58,9.69 L8.217,9.69 L8.217,9.466 C8.217,9.343 8.271,9.019 8.337,8.746 C8.477,8.169 8.45,7.966 8.212,7.792 C8.12,7.725 8.044,7.638 8.044,7.6 C8.044,7.562 8.162,7.462 8.306,7.379 C8.726,7.137 9.028,6.578 9.042,6.019 C9.05,5.688 8.919,5.485 8.59,5.32 C8.385,5.218 8.224,5.204 6.963,5.187 L5.563,5.167 L5.503,5.358 C5.469,5.463 5.191,6.443 4.885,7.537 C4.69383156,8.22845919 4.49749273,8.9184785 4.296,9.607 C4.269,9.677 4.368,9.69 4.898,9.69 L5.533,9.69 L5.726,8.99 L5.726,8.99 Z M6.306,7.048 C6.306,6.978 6.353,6.766 6.41,6.578 L6.514,6.234 L7.018,6.218 C7.626,6.198 7.754,6.25 7.754,6.519 C7.754,7.015 7.519,7.177 6.8,7.177 C6.325,7.177 6.305,7.172 6.306,7.048 Z M7.474,6.893 C7.53839681,6.81090009 7.58720293,6.71769395 7.618,6.618 C7.674,6.4 7.516,6.32 7.029,6.32 L6.617,6.32 L6.539,6.62 C6.497,6.785 6.449,6.955 6.432,7 C6.408,7.064 6.489,7.073 6.885,7.05 C7.298,7.027 7.382,7.005 7.475,6.893 L7.474,6.893 Z M27.772,5.78 C27.524,5.674 27.402,5.482 27.402,5.197 C27.402,4.739 27.864,4.477 28.352,4.66 C28.796,4.827 28.76,5.59 28.298,5.78 C28.059,5.88 28.003,5.88 27.772,5.78 Z M28.304,5.55 C28.409,5.471 28.403,5.466 28.199,5.464 C28.069,5.463 27.982,5.434 27.982,5.394 C27.982,5.34 27.966,5.34 27.912,5.394 C27.788,5.516 27.692,5.471 27.692,5.291 C27.692,5.197 27.662,5.12 27.628,5.12 C27.527,5.12 27.622,5.42 27.758,5.534 C27.905,5.656 28.152,5.663 28.304,5.55 L28.304,5.55 Z M28.519,5.34 C28.476,5.298 28.471,5.23 28.506,5.14 C28.539,5.056 28.537,5.005 28.502,5.005 C28.471,5.005 28.445,5.057 28.445,5.12 C28.445,5.189 28.407,5.234 28.347,5.234 C28.262,5.234 28.264,5.244 28.362,5.318 C28.494,5.416 28.614,5.434 28.519,5.341 L28.519,5.34 Z M27.52,5.162 C27.492,5.123 27.47,5.155 27.47,5.234 C27.47,5.312 27.492,5.344 27.52,5.305 C27.5480556,5.26146156 27.5480556,5.20553844 27.52,5.162 Z M28.155,5.291 C28.1544544,5.25935868 28.128646,5.2339953 28.097,5.234 C28.0657438,5.23453441 28.0405344,5.25974381 28.04,5.291 C28.04,5.322 28.066,5.348 28.097,5.348 C28.128646,5.3480047 28.1544544,5.32264132 28.155,5.291 L28.155,5.291 Z M27.984,5.105 C27.956,5.066 27.933,5.098 27.933,5.177 C27.933,5.255 27.956,5.287 27.983,5.248 C28.0110556,5.20446156 28.0110556,5.14853844 27.983,5.105 L27.984,5.105 Z M28.225,4.848 C28.104,4.754 27.921,4.761 27.782,4.864 C27.677,4.942 27.686,4.948 27.906,4.948 C28.077,4.948 28.155,4.976 28.184,5.048 C28.222,5.14 28.23,5.138 28.272,5.034 C28.303,4.956 28.289,4.897 28.225,4.848 L28.225,4.848 Z M28.082,4.688 C28.026,4.663 27.947,4.664 27.908,4.692 C27.868,4.719 27.915,4.74 28.011,4.738 C28.106,4.736 28.138,4.713 28.081,4.688 L28.082,4.688 Z" id="Shape"></path>
                        <path d="M4.343,9.64 C4.32,9.624 4.48,9.018 4.861,7.675 C5.164,6.607 5.449,5.607 5.494,5.455 L5.576,5.175 L6.767,5.197 C8.159,5.222 8.373,5.241 8.597,5.352 C8.994,5.55 9.103,5.855 8.967,6.382 C8.85,6.831 8.627,7.136 8.197,7.438 C8.116,7.495 8.044,7.565 8.039,7.593 C8.033,7.625 8.083,7.694 8.169,7.771 C8.247,7.841 8.329,7.933 8.352,7.977 C8.414,8.096 8.403,8.334 8.317,8.746 C8.2730531,8.95766557 8.24133391,9.17168664 8.222,9.387 L8.205,9.662 L7.628,9.662 C7.22,9.662 7.042,9.652 7.016,9.626 C6.96,9.571 6.972,9.429 7.07,9.024 C7.179,8.574 7.185,8.396 7.098,8.286 C6.981,8.141 6.876,8.109 6.46,8.096 C6.123,8.085 6.067,8.09 6.016,8.136 C5.937,8.206 5.873,8.388 5.685,9.076 L5.525,9.662 L4.95,9.662 C4.634,9.662 4.36,9.652 4.342,9.639 L4.343,9.64 Z M7.373,7.123 C7.646,7.043 7.762,6.867 7.762,6.529 C7.762,6.427 7.745,6.356 7.71,6.314 C7.626,6.215 7.376,6.182 6.907,6.206 L6.499,6.228 L6.439,6.425 C6.348,6.729 6.284,7.024 6.294,7.093 C6.3,7.139 6.332,7.162 6.408,7.176 C6.575,7.209 7.198,7.174 7.373,7.123 L7.373,7.123 Z M9.303,9.726 C9.12,9.662 8.977,9.542 8.917,9.403 C8.803,9.14 8.907,8.553 9.326,7.128 C9.426,6.788 9.507,6.505 9.507,6.5 C9.507,6.496 9.529,6.472 9.555,6.446 C9.593,6.408 9.681,6.4 10.035,6.4 C10.272,6.4 10.5,6.412 10.541,6.428 L10.616,6.456 L10.541,6.717 C10.358,7.357 10.169,8.134 10.136,8.377 C10.106,8.597 10.107,8.656 10.143,8.729 C10.223,8.895 10.517,8.93 10.767,8.804 C11.059,8.655 11.114,8.528 11.585,6.91 C11.655,6.673 11.707,6.55 11.765,6.487 L11.849,6.4 L12.319,6.4 C12.683,6.4 12.793,6.409 12.805,6.44 C12.816,6.47 12.219,8.663 11.967,9.514 L11.927,9.647 L11.424,9.662 C11.148,9.67 10.922,9.668 10.922,9.658 C10.922,9.648 10.942,9.582 10.967,9.512 C11.069,9.228 10.942,9.21 10.572,9.457 C10.206,9.7 10.052,9.757 9.736,9.771 C9.522,9.78 9.428,9.771 9.303,9.726 L9.303,9.726 Z M12.646,9.638 C12.619,9.621 12.774,9.033 13.233,7.408 L13.856,5.198 L14.909,5.208 C16.223,5.218 16.491,5.241 16.745,5.365 C16.954,5.465 17.053,5.556 17.146,5.73 C17.302,6.022 17.3,6.36 17.138,6.825 C16.888,7.539 16.424,8.008 15.811,8.165 C15.712,8.19 15.401,8.225 15.119,8.241 C14.189,8.295 14.246,8.285 14.196,8.411 C14.172,8.471 14.079,8.777 13.99,9.091 L13.827,9.661 L13.254,9.661 C12.94,9.661 12.666,9.651 12.646,9.638 L12.646,9.638 Z M15.356,7.261 C15.662,7.222 15.823,7.129 15.925,6.931 C16.035,6.72 16.064,6.489 15.994,6.383 C15.898,6.24 15.768,6.209 15.276,6.211 C15.031,6.212 14.818,6.225 14.803,6.24 C14.77,6.273 14.563,7.08 14.563,7.177 C14.563,7.217 14.572,7.259 14.583,7.27 C14.611,7.298 15.111,7.292 15.356,7.261 L15.356,7.261 Z M17.075,9.738 C16.721,9.592 16.629,9.35 16.745,8.868 C16.906,8.193 17.262,7.968 18.482,7.765 C19.219,7.643 19.403,7.553 19.456,7.292 C19.496,7.099 19.328,6.993 18.98,6.993 C18.764,6.993 18.682,7.024 18.495,7.179 L18.343,7.304 L17.953,7.314 C17.5,7.326 17.361,7.308 17.361,7.239 C17.361,7.159 17.539,6.913 17.704,6.763 C17.883,6.603 18.118,6.48 18.374,6.415 C18.91,6.277 19.832,6.293 20.149,6.445 C20.319,6.527 20.469,6.663 20.542,6.798 C20.61,6.926 20.585,7.059 20.265,8.311 C20.108,8.926 19.979,9.481 19.979,9.545 L19.979,9.662 L19.607,9.662 C19.4367996,9.66057958 19.2666229,9.66691949 19.097,9.681 L18.957,9.699 L18.897,9.559 C18.824,9.394 18.816,9.394 18.437,9.561 C18.027,9.744 17.876,9.784 17.557,9.799 C17.285,9.811 17.238,9.806 17.075,9.739 L17.075,9.738 Z M18.693,9.045 C18.9,8.955 19.134,8.585 19.136,8.345 L19.136,8.23 L18.946,8.247 C18.734,8.267 18.286,8.409 18.122,8.509 C17.9890707,8.58382807 17.9057354,8.72348133 17.903,8.876 C17.903,9.016 17.925,9.056 18.024,9.097 C18.137,9.145 18.536,9.114 18.693,9.045 L18.693,9.045 Z M20.35,11.067 C20.23,11.04 20.225,10.995 20.308,10.67 C20.421,10.234 20.413,10.243 20.691,10.2 C20.99,10.155 21.123,10.09 21.191,9.958 C21.264,9.813 21.259,9.24 21.169,7.705 C21.119,6.85 21.107,6.463 21.129,6.437 C21.152,6.41 21.304,6.4 21.696,6.4 L22.232,6.4 L22.242,7.392 C22.248,8.069 22.262,8.394 22.284,8.417 C22.339,8.471 22.54,8.135 23.366,6.615 L23.482,6.4 L23.956,6.4 C24.216,6.4 24.436,6.41 24.443,6.423 C24.458,6.447 23.741,7.707 23.021,8.92 C21.998,10.646 21.806,10.883 21.326,11.015 C21.169,11.058 20.476,11.095 20.35,11.067 L20.35,11.067 Z" id="Shape" fill="#2A2C83" fill-rule="nonzero" opacity="0.938"></path>
                        <g transform="translate(23.000000, 5.000000)" id="Path">
                            <polygon fill="#097A44" points="1.785 5.67 3.191 0.593 4.531 3.217"></polygon>
                            <polygon fill="#F46F20" points="0.914 5.69 2.321 0.611 3.66 3.235"></polygon>
                        </g>
                    </g>
                    <g id="Group" transform="translate(75.000000, 0.000000)">
                        <rect id="Rectangle" fill="#FFFFFF" x="0" y="0" width="32" height="16" rx="1"></rect>
                        <path d="M24.002,5 L23.115,5.915 L22.287,5 L14.125,5 L13.424,6.547 L12.705,5 L9.435,5 L9.435,5.704 L9.072,5 L6.275,5 L3.538,10.992 L6.816,10.992 L7.222,10.037 L8.151,10.037 L8.557,10.992 L12.165,10.992 L12.165,10.263 L12.485,10.993 L14.353,10.993 L14.673,10.247 L14.673,10.992 L22.177,10.992 L23.089,10.061 L23.943,10.992 L27.796,11 L25.05,8.012 L27.796,5 L24.002,5 Z M24.467,5.85 L25.785,5.85 L23.782,8.012 L25.785,10.15 L24.407,10.15 L23.09,8.725 L21.722,10.15 L17.48,10.15 L17.48,5.85 L21.79,5.85 L23.107,7.26 L24.468,5.85 L24.467,5.85 Z M14.767,5.85 L16.507,5.85 L16.507,10.15 L15.451,10.15 L15.443,6.781 L13.897,10.15 L12.95,10.15 L11.396,6.78 L11.396,10.149 L9.216,10.149 L8.802,9.185 L6.57,9.185 L6.156,10.149 L4.991,10.149 L6.909,5.849 L8.506,5.849 L10.323,9.914 L10.323,5.85 L12.071,5.85 L13.474,8.765 L14.767,5.85 Z M6.951,8.296 L8.421,8.296 L7.686,6.579 L6.951,8.296 L6.951,8.296 Z M18.544,6.74 L18.544,7.525 L20.893,7.525 L20.893,8.4 L18.543,8.4 L18.543,9.258 L21.18,9.258 L22.405,7.995 L21.23,6.74 L18.544,6.74 Z" id="Shape" fill="#1CA9E1" fill-rule="nonzero"></path>
                    </g>
                    <g id="Group" transform="translate(36.667000, 0.000000)">
                        <rect id="Rectangle" fill="#FFFFFF" x="0" y="0" width="32" height="16" rx="1"></rect>
                        <g transform="translate(7.075000, 3.000000)">
                            <ellipse id="Oval" fill="#CC0000" cx="5.054" cy="5" rx="5.054" ry="5"></ellipse>
                            <ellipse id="Oval" fill="#FF9900" cx="12.129" cy="5" rx="5.054" ry="5"></ellipse>
                            <path d="M8.591,8.58 C8.591,8.58 10.108,6.977 10.108,5 C10.108,3.023 8.59,1.42 8.59,1.42 C8.59,1.42 7.075,2.645 7.075,5 C7.075,7.355 8.591,8.58 8.591,8.58 L8.591,8.58 Z" id="Path" fill="#F16D27"></path>
                        </g>
                    </g>
                    <g id="Group">
                        <rect id="Rectangle" fill="#FFFFFF" x="0" y="0" width="32" height="16" rx="1"></rect>
                        <path d="M11.936,11.58 L13.1,4.427 L14.963,4.427 L13.798,11.58 L11.935,11.58 L11.936,11.58 Z M20.556,4.603 C20.0224493,4.40140409 19.4563564,4.29971076 18.886,4.303 C17.045,4.303 15.748,5.273 15.738,6.663 C15.726,7.691 16.663,8.265 17.369,8.607 C18.095,8.957 18.339,9.181 18.336,9.494 C18.331,9.974 17.756,10.193 17.221,10.193 C16.475,10.193 16.079,10.085 15.466,9.818 L15.226,9.704 L14.966,11.304 C15.401,11.504 16.206,11.677 17.042,11.686 C18.999,11.686 20.271,10.727 20.286,9.243 C20.293,8.428 19.796,7.81 18.721,7.299 C18.07,6.968 17.671,6.748 17.675,6.412 C17.675,6.115 18.013,5.797 18.742,5.797 C19.352,5.787 19.792,5.927 20.136,6.072 L20.304,6.153 L20.556,4.603 L20.556,4.603 Z M23.037,9.044 C23.191,8.633 23.779,7.044 23.779,7.044 C23.768,7.064 23.932,6.63 24.026,6.362 L24.152,6.979 L24.583,9.044 L23.037,9.044 L23.037,9.044 Z M25.335,4.434 L23.895,4.434 C23.449,4.434 23.115,4.561 22.919,5.027 L20.152,11.583 L22.109,11.583 C22.109,11.583 22.429,10.701 22.501,10.507 L24.887,10.511 C24.942,10.761 25.113,11.583 25.113,11.583 L26.843,11.583 L25.335,4.435 L25.335,4.434 Z M10.373,4.433 L8.55,9.31 L8.354,8.318 C8.014,7.176 6.957,5.938 5.774,5.318 L7.442,11.574 L9.413,11.573 L12.347,4.433 L10.373,4.433 L10.373,4.433 Z" id="Shape" fill="#191975" fill-rule="nonzero"></path>
                        <path d="M6.857,4.428 L3.853,4.428 L3.828,4.577 C6.166,5.169 7.712,6.599 8.354,8.318 L7.701,5.032 C7.589,4.579 7.261,4.444 6.857,4.428" id="Path" fill="#EC982D"></path>
                    </g>
                </g>
            </g>
        </g>
    </g>
</svg>