<?xml version="1.0" encoding="UTF-8"?>
<svg width="35px" height="35px" viewBox="0 0 35 35" version="1.1" xmlns="http://www.w3.org/2000/svg" xmlns:xlink="http://www.w3.org/1999/xlink">
    <!-- Generator: Sketch 53.1 (72631) - https://sketchapp.com -->
    <title>Group 5</title>
    <desc>Created with Sketch.</desc>
    <g id="Page-1" stroke="none" stroke-width="1" fill="none" fill-rule="evenodd">
        <g id="1.categories-filters-closed" transform="translate(-99.000000, -293.000000)">
            <g id="sec-filters" transform="translate(72.000000, 231.000000)">
                <g id="price-group" transform="translate(27.000000, 37.000000)">
                    <g id="Group-7" transform="translate(0.000000, 25.000000)">
                        <g id="Group-5">
                            <circle id="Oval" fill="#FAB446" cx="17.5" cy="17.5" r="17.5"></circle>
                            <path d="M23.2,19.9 C23.2,20.9933388 22.800004,21.9299961 22,22.71 C21.199996,23.4900039 20.0466742,23.9733324 18.54,24.16 L18.54,26.4 L16.54,26.4 L16.54,24.22 C15.5533284,24.1666664 14.6133378,23.9933348 13.72,23.7 C12.8266622,23.4066652 12.1066694,23.0466688 11.56,22.62 L12.66,20.18 C13.1666692,20.5533352 13.7599966,20.8666654 14.44,21.12 C15.1200034,21.3733346 15.8199964,21.533333 16.54,21.6 L16.54,18.26 C15.5933286,18.0333322 14.7933366,17.7800014 14.14,17.5 C13.4866634,17.2199986 12.9400022,16.8100027 12.5,16.27 C12.0599978,15.7299973 11.84,15.0133378 11.84,14.12 C11.84,13.0133278 12.2433293,12.0633373 13.05,11.27 C13.8566707,10.4766627 15.0199924,9.9933342 16.54,9.82 L16.54,7.6 L18.54,7.6 L18.54,9.78 C20.1800082,9.913334 21.533328,10.3199966 22.6,11 L21.6,13.46 C20.599995,12.8866638 19.5800052,12.5400006 18.54,12.42 L18.54,15.82 C19.473338,16.0333344 20.2633301,16.2766653 20.91,16.55 C21.5566699,16.8233347 22.0999978,17.2299973 22.54,17.77 C22.9800022,18.3100027 23.2,19.0199956 23.2,19.9 Z M15.06,13.96 C15.06,14.293335 15.1866654,14.5666656 15.44,14.78 C15.6933346,14.9933344 16.0599976,15.1733326 16.54,15.32 L16.54,12.48 C16.0333308,12.6000006 15.6600012,12.7899987 15.42,13.05 C15.1799988,13.3100013 15.06,13.6133316 15.06,13.96 Z M18.54,21.52 C19.0200024,21.4133328 19.3799988,21.2400012 19.62,21 C19.8600012,20.7599988 19.98,20.473335 19.98,20.14 C19.98,19.806665 19.8566679,19.5333344 19.61,19.32 C19.3633321,19.1066656 19.006669,18.9200008 18.54,18.76 L18.54,21.52 Z" id="$" fill="#FFFFFF" fill-rule="nonzero"></path>
                        </g>
                    </g>
                </g>
            </g>
        </g>
    </g>
</svg>