<?xml version="1.0" encoding="UTF-8"?>
<svg width="32px" height="24px" viewBox="0 0 32 24" version="1.1" xmlns="http://www.w3.org/2000/svg" xmlns:xlink="http://www.w3.org/1999/xlink">
    <!-- Generator: Sketch 53.1 (72631) - https://sketchapp.com -->
    <title></title>
    <desc>Created with Sketch.</desc>
    <g id="Page-1" stroke="none" stroke-width="1" fill="none" fill-rule="evenodd">
        <g id="with-blog" transform="translate(-1053.000000, -3771.000000)" fill="#ffffff" fill-rule="nonzero">
            <g id="sec-footer" transform="translate(58.000000, 3729.000000)">
                <g id="Group-8" transform="translate(994.000000, 37.000000)">
                    <g id="Group">
                        <path d="M25.5,26.314 C26.0893363,26.314 26.5936646,26.110002 27.013,25.702 C27.4323354,25.293998 27.642,24.7953363 27.642,24.206 C27.642,23.6166637 27.4323354,23.1123354 27.013,22.693 C26.5936646,22.2736646 26.0893363,22.064 25.5,22.064 C24.9106637,22.064 24.412002,22.2736646 24.004,22.693 C23.595998,23.1123354 23.392,23.6166637 23.392,24.206 C23.392,24.7953363 23.595998,25.293998 24.004,25.702 C24.412002,26.110002 24.9106637,26.314 25.5,26.314 Z M27.642,13.564 L24.106,13.564 L24.106,17.1 L30.43,17.1 L27.642,13.564 Z M8.5,26.314 C9.08933628,26.314 9.59366457,26.110002 10.013,25.702 C10.4323354,25.293998 10.642,24.7953363 10.642,24.206 C10.642,23.6166637 10.4323354,23.1123354 10.013,22.693 C9.59366457,22.2736646 9.08933628,22.064 8.5,22.064 C7.91066372,22.064 7.41200204,22.2736646 7.004,22.693 C6.59599796,23.1123354 6.392,23.6166637 6.392,24.206 C6.392,24.7953363 6.59599796,25.293998 7.004,25.702 C7.41200204,26.110002 7.91066372,26.314 8.5,26.314 Z M28.356,11.456 L32.606,17.1 L32.606,24.206 L29.75,24.206 C29.75,24.9540037 29.5573353,25.6566634 29.172,26.314 C28.7866647,26.9713366 28.2653366,27.4926647 27.608,27.878 C26.9506634,28.2633353 26.2480037,28.456 25.5,28.456 C24.7519963,28.456 24.0493366,28.2633353 23.392,27.878 C22.7346634,27.4926647 22.2133353,26.9713366 21.828,26.314 C21.4426647,25.6566634 21.25,24.9540037 21.25,24.206 L12.75,24.206 C12.75,24.9540037 12.5573353,25.6566634 12.172,26.314 C11.7866647,26.9713366 11.2653366,27.4926647 10.608,27.878 C9.95066338,28.2633353 9.24800374,28.456 8.5,28.456 C7.75199626,28.456 7.04933662,28.2633353 6.392,27.878 C5.73466338,27.4926647 5.21333526,26.9713366 4.828,26.314 C4.44266474,25.6566634 4.25,24.9540037 4.25,24.206 L1.394,24.206 L1.394,8.6 C1.394,7.82932948 1.6773305,7.1606695 2.244,6.594 C2.8106695,6.0273305 3.47932948,5.744 4.25,5.744 L24.106,5.744 L24.106,11.456 L28.356,11.456 Z" id=""></path>
                    </g>
                </g>
            </g>
        </g>
    </g>
</svg>