<?xml version="1.0" encoding="UTF-8"?>
<svg width="22px" height="22px" viewBox="0 0 22 22" version="1.1" xmlns="http://www.w3.org/2000/svg" xmlns:xlink="http://www.w3.org/1999/xlink">
    <!-- Generator: Sketch 53.1 (72631) - https://sketchapp.com -->
    <title>Shape</title>
    <desc>Created with Sketch.</desc>
    <defs>
        <path d="M21.351,19.538 L11.451,9.638 C11.055,9.242 10.505,9 9.9,9 L2.2,9 C0.99,9 0,9.99 0,11.2 L0,18.9 C0,19.505 0.242,20.055 0.649,20.462 L10.549,30.362 C10.945,30.758 11.495,31 12.1,31 C12.705,31 13.255,30.758 13.651,30.351 L21.351,22.651 C21.758,22.255 22,21.705 22,21.1 C22,20.495 21.747,19.934 21.351,19.538 Z M3.85,14.5 C2.937,14.5 2.2,13.763 2.2,12.85 C2.2,11.937 2.937,11.2 3.85,11.2 C4.763,11.2 5.5,11.937 5.5,12.85 C5.5,13.763 4.763,14.5 3.85,14.5 Z" id="path-1"></path>
    </defs>
    <g id="Page-1" stroke="none" stroke-width="1" fill="none" fill-rule="evenodd">
        <g id="with-blog" transform="translate(-1057.000000, -3917.000000)">
            <g id="sec-footer" transform="translate(58.000000, 3729.000000)">
                <g id="Group-8" transform="translate(994.000000, 37.000000)">
                    <g id="Group" transform="translate(5.000000, 142.000000)">
                        <mask id="mask-2" fill="white">
                            <use xlink:href="#path-1"></use>
                        </mask>
                        <use id="Shape" fill="#ffffff" fill-rule="nonzero" transform="translate(11.000000, 20.000000) scale(-1, 1) translate(-11.000000, -20.000000) " xlink:href="#path-1"></use>
                    </g>
                </g>
            </g>
        </g>
    </g>
</svg>