<?xml version="1.0" encoding="UTF-8"?>
<svg width="19px" height="15px" viewBox="0 0 19 15" version="1.1" xmlns="http://www.w3.org/2000/svg" xmlns:xlink="http://www.w3.org/1999/xlink">
    <!-- Generator: Sketch 53.1 (72631) - https://sketchapp.com -->
    <title></title>
    <desc>Created with Sketch.</desc>
    <g id="Page-1" stroke="none" stroke-width="1" fill="none" fill-rule="evenodd">
        <g id="with-blog" transform="translate(-829.000000, -3813.000000)" fill="#ffffff" fill-rule="nonzero">
            <g id="sec-footer" transform="translate(58.000000, 3729.000000)">
                <g id="Group-13" transform="translate(743.000000, 81.000000)">
                    <path d="M46.4375,4.796875 C45.9687477,5.52604531 45.3437539,6.17708047 44.5625,6.75 L44.5625,7.21875 C44.5625,9.95313867 43.5794369,12.4335826 41.6132812,14.6601562 C39.6471256,16.8867299 37.0364746,18 33.78125,18 C31.6979062,18 29.7708422,17.4270891 28,16.28125 C28.4166687,16.3333336 28.7161449,16.359375 28.8984375,16.359375 C30.6432379,16.359375 32.2057223,15.8125055 33.5859375,14.71875 C32.7786418,14.6927082 32.0494824,14.4388045 31.3984375,13.9570312 C30.7473926,13.475258 30.3046887,12.8567746 30.0703125,12.1015625 C30.3828141,12.1536461 30.6171867,12.1796875 30.7734375,12.1796875 C31.0338555,12.1796875 31.3723938,12.1276047 31.7890625,12.0234375 C30.9296832,11.8411449 30.2070342,11.4049514 29.6210938,10.7148438 C29.0351533,10.0247361 28.7421875,9.22396289 28.7421875,8.3125 L28.7421875,8.2734375 C29.315107,8.58593906 29.888018,8.7421875 30.4609375,8.7421875 C29.3411402,8.01301719 28.78125,6.95834023 28.78125,5.578125 C28.78125,4.92708008 28.9505191,4.30208633 29.2890625,3.703125 C31.2942809,6.1770957 33.8854008,7.49218672 37.0625,7.6484375 C37.0104164,7.46614492 36.984375,7.17968945 36.984375,6.7890625 C36.984375,5.72134883 37.3489547,4.82292031 38.078125,4.09375 C38.8072953,3.36457969 39.7057238,3 40.7734375,3 C41.8411512,3 42.7526004,3.4036418 43.5078125,4.2109375 C44.2890664,4.08072852 45.09635,3.76823164 45.9296875,3.2734375 C45.6692695,4.18490039 45.1093793,4.88801836 44.25,5.3828125 C45.0572957,5.30468711 45.7864551,5.10937656 46.4375,4.796875 Z" id=""></path>
                </g>
            </g>
        </g>
    </g>
</svg>