<?xml version="1.0" encoding="UTF-8"?>
<svg width="18px" height="14px" viewBox="0 0 18 14" version="1.1" xmlns="http://www.w3.org/2000/svg" xmlns:xlink="http://www.w3.org/1999/xlink">
    <!-- Generator: Sketch 53.1 (72631) - https://sketchapp.com -->
    <title></title>
    <desc>Created with Sketch.</desc>
    <g id="Page-1" stroke="none" stroke-width="1" fill="none" fill-rule="evenodd">
        <g id="with-blog" transform="translate(-868.000000, -3814.000000)" fill="#ffffff" fill-rule="nonzero">
            <g id="sec-footer" transform="translate(58.000000, 3729.000000)">
                <g id="Group-13" transform="translate(743.000000, 82.000000)">
                    <path d="M84.8945312,6.48828125 C84.9648441,7.75391258 85,9.00780629 85,10.25 C85,11.4921937 84.9648441,12.7460874 84.8945312,14.0117188 C84.8945312,14.8085977 84.6425806,15.4824191 84.1386719,16.0332031 C83.6347631,16.5839871 83.0195349,16.859375 82.2929688,16.859375 C80.4882722,16.9531255 78.390637,17 76,17 C73.609363,17 71.5117278,16.9531255 69.7070312,16.859375 C68.9804651,16.859375 68.3652369,16.5839871 67.8613281,16.0332031 C67.3574194,15.4824191 67.1054688,14.8085977 67.1054688,14.0117188 C67.0351559,12.7460874 67,11.4921937 67,10.25 C67,9.4296834 67.0468745,8.17578969 67.140625,6.48828125 C67.140625,5.69140227 67.3867163,5.01758088 67.8789062,4.46679688 C68.3710962,3.91601287 68.9804651,3.640625 69.7070312,3.640625 C71.4179773,3.54687453 73.4101449,3.5 75.6835938,3.5 L76.3164062,3.5 C78.5898551,3.5 80.5820227,3.54687453 82.2929688,3.640625 C83.0195349,3.640625 83.6347631,3.91601287 84.1386719,4.46679688 C84.6425806,5.01758088 84.8945312,5.69140227 84.8945312,6.48828125 Z M74.2773438,13.6953125 L79.375,10.25 L74.2773438,6.76953125 L74.2773438,13.6953125 Z" id=""></path>
                </g>
            </g>
        </g>
    </g>
</svg>