<?xml version="1.0" encoding="iso-8859-1"?>
<!-- Generator: Adobe Illustrator 19.0.0, SVG Export Plug-In . SVG Version: 6.00 Build 0)  -->
<svg version="1.1" id="Capa_1" xmlns="http://www.w3.org/2000/svg" xmlns:xlink="http://www.w3.org/1999/xlink" x="0px" y="0px"
	 viewBox="0 0 480.001 480.001" style="enable-background:new 0 0 480.001 480.001;" xml:space="preserve">
<g>
	<g>
		<rect x="96" y="352.001" width="16" height="16"/>
	</g>
</g>
<g>
	<g>
		<rect x="80" y="384.001" width="48" height="16"/>
	</g>
</g>
<g>
	<g>
		<path d="M464,48.001h8c4.418,0,8-3.582,8-8v-32c0-4.418-3.582-8-8-8H8c-4.418,0-8,3.582-8,8v32c0,4.418,3.582,8,8,8h8v240H8
			c-4.418,0-8,3.582-8,8c0,0.655,0.081,1.308,0.24,1.944l8,32c0.892,3.559,4.091,6.056,7.76,6.056h17.056l13.72,96H40
			c-4.418,0-8,3.582-8,8v32c0,4.418,3.582,8,8,8h128c4.418,0,8-3.582,8-8v-32c0-4.418-3.582-8-8-8h-6.776l13.72-96H192
			c3.669,0,6.868-2.497,7.76-6.056l2.48-9.944H384v152c0,4.418,3.582,8,8,8h64c4.418,0,8-3.582,8-8v-184h16v-16h-16v-8.88
			c21.604-21.989,21.293-57.328-0.696-78.933c-0.064-0.063-0.128-0.125-0.192-0.187H464V48.001z M160,464.001H48v-16h112V464.001z
			 M49.224,336.001h109.552l-13.72,96H62.944L49.224,336.001z M185.752,320.001H22.248l-4-16h171.504L185.752,320.001z M96,248.001
			c0-4.418,3.582-8,8-8s8,3.582,8,8s-3.582,8-8,8S96,252.419,96,248.001z M384,272.001h-16v16h16v16H206.24l1.52-6.056
			c1.074-4.286-1.53-8.631-5.816-9.704c-0.636-0.159-1.288-0.24-1.944-0.24h-88v-17.472c12.497-4.418,19.046-18.131,14.627-30.627
			S108.497,220.856,96,225.274s-19.046,18.131-14.627,30.627c2.416,6.835,7.793,12.211,14.627,14.627v17.472H32v-240h416v125.48
			c-27.888-13.27-61.252-1.419-74.522,26.468c-10.073,21.169-5.872,46.374,10.522,63.132V272.001z M448,464.001h-48v-176h48V464.001
			z M464,224.001c-0.02,11.362-4.872,22.18-13.344,29.752c-1.69,1.517-2.656,3.681-2.656,5.952v12.296h-16v-20.688l21.656-21.656
			l-11.312-11.312L424,236.689l-18.344-18.344l-11.312,11.312L416,251.313v20.688h-16v-12.296c0.002-2.274-0.964-4.441-2.656-5.96
			c-16.471-14.722-17.889-40.009-3.168-56.48s40.009-17.889,56.48-3.168C459.167,201.704,464.023,212.586,464,224.001z M16,32.001
			v-16h448v16H16z"/>
	</g>
</g>
<g>
	<g>
		<path d="M360,336.001h-64c-4.418,0-8,3.582-8,8v128c0,4.418,3.582,8,8,8h64c4.418,0,8-3.582,8-8v-128
			C368,339.582,364.418,336.001,360,336.001z M352,464.001h-48v-112h48V464.001z"/>
	</g>
</g>
<g>
	<g>
		<path d="M264,400.001h-64c-4.418,0-8,3.582-8,8v64c0,4.418,3.582,8,8,8h64c4.418,0,8-3.582,8-8v-64
			C272,403.582,268.418,400.001,264,400.001z M256,464.001h-48v-48h48V464.001z"/>
	</g>
</g>
<g>
	<g>
		<path d="M160,72.001H64c-4.418,0-8,3.582-8,8v64c0,4.418,3.582,8,8,8h96c4.418,0,8-3.582,8-8v-64
			C168,75.582,164.418,72.001,160,72.001z M152,136.001H72v-48h80V136.001z"/>
	</g>
</g>
<g>
	<g>
		<rect x="224" y="72.001" width="200" height="16"/>
	</g>
</g>
<g>
	<g>
		<rect x="192" y="104.001" width="232" height="16"/>
	</g>
</g>
<g>
	<g>
		<rect x="192" y="136.001" width="232" height="16"/>
	</g>
</g>
<g>
	<g>
		<rect x="192" y="72.001" width="16" height="16"/>
	</g>
</g>
<g>
	<g>
		<rect x="192" y="176.001" width="16" height="16"/>
	</g>
</g>
<g>
	<g>
		<rect x="224" y="176.001" width="112" height="16"/>
	</g>
</g>
<g>
	<g>
		<rect x="192" y="208.001" width="16" height="16"/>
	</g>
</g>
<g>
	<g>
		<rect x="224" y="208.001" width="112" height="16"/>
	</g>
</g>
<g>
	<g>
		<rect x="192" y="240.001" width="16" height="16"/>
	</g>
</g>
<g>
	<g>
		<rect x="224" y="240.001" width="112" height="16"/>
	</g>
</g>
<g>
	<g>
		<rect x="416" y="304.001" width="16" height="16"/>
	</g>
</g>
<g>
	<g>
		<rect x="320" y="368.001" width="16" height="16"/>
	</g>
</g>
<g>
	<g>
		<rect x="224" y="432.001" width="16" height="16"/>
	</g>
</g>
<g>
</g>
<g>
</g>
<g>
</g>
<g>
</g>
<g>
</g>
<g>
</g>
<g>
</g>
<g>
</g>
<g>
</g>
<g>
</g>
<g>
</g>
<g>
</g>
<g>
</g>
<g>
</g>
<g>
</g>
</svg>
