<?xml version="1.0" encoding="iso-8859-1"?>
<!-- Generator: Adobe Illustrator 19.0.0, SVG Export Plug-In . SVG Version: 6.00 Build 0)  -->
<svg version="1.1" id="Capa_1" xmlns="http://www.w3.org/2000/svg" xmlns:xlink="http://www.w3.org/1999/xlink" x="0px" y="0px"
	 viewBox="0 0 480 480" style="enable-background:new 0 0 480 480;" xml:space="preserve" fill="white">
<g>
	<g>
		<path d="M472,0H8C3.582,0,0,3.582,0,8v64c0,4.418,3.582,8,8,8h56v48c-17.673,0-32,14.327-32,32v256H8c-4.418,0-8,3.582-8,8v24
			c0,17.673,14.327,32,32,32h224c17.673,0,32-14.327,32-32v-24h64c17.673,0,32-14.327,32-32V80h88c4.418,0,8-3.582,8-8V8
			C480,3.582,476.418,0,472,0z M32,464c-8.837,0-16-7.163-16-16v-16h208v16c-0.009,5.619,1.474,11.141,4.296,16H32z M272,160v288
			c0,8.837-7.163,16-16,16s-16-7.163-16-16v-24c0-4.418-3.582-8-8-8H48V160c0-8.837,7.163-16,16-16h212.448
			C273.569,148.843,272.033,154.366,272,160z M288,408V160c0-8.837,7.163-16,16-16s16,7.163,16,16v232
			c0.033,5.634,1.569,11.157,4.448,16H288z M368,64v328c0,8.837-7.163,16-16,16s-16-7.163-16-16V160c0-17.673-14.327-32-32-32H80V64
			c0-8.837,7.163-16,16-16h276.448C369.569,52.843,368.033,58.366,368,64z M464,64h-80c0-8.837,7.163-16,16-16h16V32H96
			c-17.673,0-32,14.327-32,32H16V16h448V64z"/>
	</g>
</g>
<g>
	<g>
		<rect x="432" y="32" width="16" height="16"/>
	</g>
</g>
<g>
	<g>
		<rect x="32" y="32" width="16" height="16"/>
	</g>
</g>
<g>
	<g>
		<path d="M200,272v-8.888c21.645-22.091,21.283-57.547-0.808-79.192c-22.091-21.645-57.547-21.283-79.192,0.808
			c-21.333,21.773-21.333,56.61,0,78.384V272h-16v16h112v-16H200z M189.824,250.584c-0.996,1.114-2.054,2.172-3.168,3.168
			c-1.69,1.517-2.656,3.681-2.656,5.952V272h-16v-20.688l21.656-21.656l-11.312-11.312L160,236.688l-18.344-18.344l-11.312,11.312
			L152,251.312V272h-16v-12.296c0-2.271-0.966-4.435-2.656-5.952c-16.471-14.722-17.889-40.009-3.168-56.48
			c14.722-16.471,40.009-17.889,56.48-3.168C203.127,208.826,204.545,234.113,189.824,250.584z"/>
	</g>
</g>
<g>
	<g>
		<rect x="104" y="312" width="16" height="16"/>
	</g>
</g>
<g>
	<g>
		<rect x="136" y="312" width="112" height="16"/>
	</g>
</g>
<g>
	<g>
		<rect x="72" y="344" width="176" height="16"/>
	</g>
</g>
<g>
	<g>
		<rect x="72" y="376" width="144" height="16"/>
	</g>
</g>
<g>
	<g>
		<rect x="328" y="64" width="16" height="16"/>
	</g>
</g>
<g>
	<g>
		<rect x="296" y="64" width="16" height="16"/>
	</g>
</g>
<g>
	<g>
		<rect x="264" y="64" width="16" height="16"/>
	</g>
</g>
<g>
	<g>
		<rect x="232" y="64" width="16" height="16"/>
	</g>
</g>
<g>
	<g>
		<rect x="200" y="64" width="16" height="16"/>
	</g>
</g>
<g>
	<g>
		<rect x="168" y="64" width="16" height="16"/>
	</g>
</g>
<g>
	<g>
		<rect x="136" y="64" width="16" height="16"/>
	</g>
</g>
<g>
	<g>
		<rect x="104" y="64" width="16" height="16"/>
	</g>
</g>
<g>
</g>
<g>
</g>
<g>
</g>
<g>
</g>
<g>
</g>
<g>
</g>
<g>
</g>
<g>
</g>
<g>
</g>
<g>
</g>
<g>
</g>
<g>
</g>
<g>
</g>
<g>
</g>
<g>
</g>
</svg>
