<?xml version="1.0" encoding="iso-8859-1"?>
<!-- Generator: Adobe Illustrator 19.0.0, SVG Export Plug-In . SVG Version: 6.00 Build 0)  -->
<svg version="1.1" id="Capa_1" xmlns="http://www.w3.org/2000/svg" xmlns:xlink="http://www.w3.org/1999/xlink" x="0px" y="0px"
	 viewBox="0 0 480 480" style="enable-background:new 0 0 480 480;" xml:space="preserve" fill="white">
<g>
	<g>
		<path d="M472,416h-8V128c0-17.673-14.327-32-32-32H327.44c0.24-2.656,0.56-5.296,0.56-8c0-48.601-39.399-88-88-88
			s-88,39.399-88,88c0,2.704,0.32,5.344,0.56,8H48c-17.673,0-32,14.327-32,32v288H8c-4.418,0-8,3.582-8,8v24
			c0,17.673,14.327,32,32,32h416c17.673,0,32-14.327,32-32v-24C480,419.582,476.418,416,472,416z M174.08,59.152
			C185.536,32.955,211.408,16.019,240,16c39.765,0.027,71.978,32.284,71.952,72.048c-0.019,28.592-16.955,54.464-43.152,65.92
			c-2.914,1.272-4.798,4.148-4.8,7.328V176h-16v-60.688l29.656-29.656l-11.312-11.312L240,100.688l-26.344-26.344l-11.312,11.312
			L232,115.312V176h-16v-14.704c-0.002-3.18-1.886-6.056-4.8-7.328C174.767,138.036,158.148,95.585,174.08,59.152z M201.344,316.44
			l32,48c2.451,3.676,7.418,4.669,11.094,2.218c0.878-0.586,1.632-1.339,2.218-2.218l32-48c0.874-1.316,1.341-2.86,1.344-4.44
			V166.352c10.707-5.467,20.178-13.075,27.824-22.352H416v240H64V144h108.176c7.646,9.277,17.117,16.885,27.824,22.352V312
			C200.003,313.58,200.47,315.124,201.344,316.44z M248,304v-80h16v80H248z M257.056,320L240,345.6L222.944,320H257.056z M216,208
			v-16h48v16H216z M232,224v80h-16v-80H232z M32,128c0-8.837,7.163-16,16-16h107.344c1.638,5.535,3.82,10.894,6.512,16H56
			c-4.418,0-8,3.582-8,8v256c0,4.418,3.582,8,8,8h368c4.418,0,8-3.582,8-8V136c0-4.418-3.582-8-8-8H318.144
			c2.692-5.106,4.874-10.465,6.512-16H432c8.837,0,16,7.163,16,16v288H312c-2.122,0-4.156,0.844-5.656,2.344L292.688,432H187.312
			l-13.656-13.656c-1.5-1.5-3.534-2.344-5.656-2.344H32V128z M464,448c0,8.837-7.163,16-16,16H32c-8.837,0-16-7.163-16-16v-16
			h148.688l13.656,13.656c1.5,1.5,3.534,2.344,5.656,2.344h112c2.122,0,4.156-0.844,5.656-2.344L315.312,432H464V448z"/>
	</g>
</g>
<g>
	<g>
		<path d="M168,168H96c-4.418,0-8,3.582-8,8v56c0,4.418,3.582,8,8,8h72c4.418,0,8-3.582,8-8v-56C176,171.582,172.418,168,168,168z
			 M160,224h-56v-40h56V224z"/>
	</g>
</g>
<g>
	<g>
		<rect x="88" y="264" width="16" height="16"/>
	</g>
</g>
<g>
	<g>
		<rect x="120" y="264" width="56" height="16"/>
	</g>
</g>
<g>
	<g>
		<rect x="88" y="296" width="88" height="16"/>
	</g>
</g>
<g>
	<g>
		<rect x="88" y="328" width="56" height="16"/>
	</g>
</g>
<g>
	<g>
		<path d="M384,168h-72c-4.418,0-8,3.582-8,8v56c0,4.418,3.582,8,8,8h72c4.418,0,8-3.582,8-8v-56C392,171.582,388.418,168,384,168z
			 M376,224h-56v-40h56V224z"/>
	</g>
</g>
<g>
	<g>
		<rect x="304" y="264" width="16" height="16"/>
	</g>
</g>
<g>
	<g>
		<rect x="336" y="264" width="56" height="16"/>
	</g>
</g>
<g>
	<g>
		<rect x="304" y="296" width="88" height="16"/>
	</g>
</g>
<g>
	<g>
		<rect x="304" y="328" width="56" height="16"/>
	</g>
</g>
<g>
</g>
<g>
</g>
<g>
</g>
<g>
</g>
<g>
</g>
<g>
</g>
<g>
</g>
<g>
</g>
<g>
</g>
<g>
</g>
<g>
</g>
<g>
</g>
<g>
</g>
<g>
</g>
<g>
</g>
</svg>
