<?xml version="1.0" encoding="iso-8859-1"?>
<!-- Generator: Adobe Illustrator 19.0.0, SVG Export Plug-In . SVG Version: 6.00 Build 0)  -->
<svg version="1.1" id="Capa_1" xmlns="http://www.w3.org/2000/svg" xmlns:xlink="http://www.w3.org/1999/xlink" x="0px" y="0px"
	 viewBox="0 0 480.08 480.08" style="enable-background:new 0 0 480.08 480.08;" xml:space="preserve" fill="white">
<g>
	<g>
		<path d="M388.2,105.776l-74.328-17.488c-4.301-1.012-8.608,1.655-9.619,5.955c-0.142,0.602-0.213,1.218-0.213,1.837
			c-0.018,2.676-0.202,5.347-0.552,8H280.04v-8.888C301.685,73.1,301.323,37.645,279.232,16
			C257.14-5.645,221.685-5.283,200.04,16.808c-21.333,21.773-21.333,56.61,0,78.384v8.888h-23.448c-0.35-2.653-0.534-5.324-0.552-8
			c0.003-4.418-3.577-8.002-7.995-8.005c-0.618,0-1.235,0.071-1.837,0.213L91.88,105.776c-39.818,9.25-67.96,44.786-67.84,85.664
			v88.64c0,4.418,3.582,8,8,8h64v184c0,4.418,3.582,8,8,8h272c4.418,0,8-3.582,8-8v-184h64c4.418,0,8-3.582,8-8v-88.64
			C456.16,150.562,428.017,115.025,388.2,105.776z M210.216,29.352c14.722-16.471,40.009-17.889,56.48-3.168
			c16.471,14.722,17.889,40.009,3.168,56.48c-0.996,1.114-2.054,2.172-3.168,3.168c-1.69,1.517-2.656,3.681-2.656,5.952v12.296h-16
			V83.392l21.656-21.656l-11.312-11.312L240.04,68.768l-18.344-18.344l-11.312,11.312l21.656,21.656v20.688h-16V91.784
			c0-2.271-0.966-4.435-2.656-5.952C196.913,71.11,195.494,45.823,210.216,29.352z M299.328,120.08
			c-9.79,24.149-33.23,39.963-59.288,40c-26.058-0.037-49.498-15.851-59.288-40H299.328z M96.04,272.08h-56v-16h56V272.08z
			 M440.04,272.08h-56v-16h56V272.08z M440.04,240.08h-56v-48h-16v272h-256v-16h208v-16h-208v-240h-16v48h-56v-48.64
			c-0.099-33.445,22.926-62.52,55.504-70.088l65.112-15.32c5.472,43.843,45.45,74.948,89.293,69.475
			c36.327-4.534,64.941-33.148,69.475-69.475l65.112,15.32c32.578,7.568,55.603,36.643,55.504,70.088V240.08z"/>
	</g>
</g>
<g>
	<g>
		<rect x="232.04" y="272.08" width="16" height="16"/>
	</g>
</g>
<g>
	<g>
		<path d="M240.04,240.08c-22.091,0-40,17.909-40,40c0,22.091,17.909,40,40,40c22.091,0,40-17.909,40-40
			C280.013,257.999,262.12,240.106,240.04,240.08z M240.04,304.08c-13.255,0-24-10.745-24-24s10.745-24,24-24s24,10.745,24,24
			S253.295,304.08,240.04,304.08z"/>
	</g>
</g>
<g>
	<g>
		<rect x="200.04" y="336.08" width="80" height="16"/>
	</g>
</g>
<g>
	<g>
		<path d="M312.04,296.08v-80c0-4.418-3.582-8-8-8h-128c-4.418,0-8,3.582-8,8v160c0,4.418,3.582,8,8,8h128c4.418,0,8-3.582,8-8v-32
			h-16v24h-112v-144h112v72H312.04z"/>
	</g>
</g>
<g>
	<g>
		<rect x="296.04" y="312.08" width="16" height="16"/>
	</g>
</g>
<g>
	<g>
		<rect x="336.04" y="432.08" width="16" height="16"/>
	</g>
</g>
<g>
</g>
<g>
</g>
<g>
</g>
<g>
</g>
<g>
</g>
<g>
</g>
<g>
</g>
<g>
</g>
<g>
</g>
<g>
</g>
<g>
</g>
<g>
</g>
<g>
</g>
<g>
</g>
<g>
</g>
</svg>
