<?xml version="1.0" encoding="iso-8859-1"?>
<!-- Generator: Adobe Illustrator 19.0.0, SVG Export Plug-In . SVG Version: 6.00 Build 0)  -->
<svg version="1.1" id="Capa_1" xmlns="http://www.w3.org/2000/svg" xmlns:xlink="http://www.w3.org/1999/xlink" x="0px" y="0px"
	 viewBox="0 0 480.178 480.178" style="enable-background:new 0 0 480.178 480.178;" xml:space="preserve">
<g>
	<g>
		<path d="M184.171,256.178c-35.33,0.04-63.96,28.67-64,64c0,35.346,28.654,64,64,64c35.346,0,64-28.654,64-64
			C248.171,284.832,219.517,256.178,184.171,256.178z M192.171,272.898c20.1,3.435,35.845,19.18,39.28,39.28h-39.28V272.898z
			 M152.078,284.481c6.768-6.07,15.125-10.088,24.093-11.583v44.472l-27.768,34.712C130.75,332.4,132.395,302.134,152.078,284.481z
			 M184.171,368.178c-8.156,0.003-16.177-2.084-23.296-6.064l27.144-33.936h43.432C227.532,351.245,207.568,368.135,184.171,368.178
			z"/>
	</g>
</g>
<g>
	<g>
		<rect x="120.171" y="400.178" width="16" height="16"/>
	</g>
</g>
<g>
	<g>
		<rect x="152.171" y="400.178" width="96" height="16"/>
	</g>
</g>
<g>
	<g>
		<rect x="120.171" y="432.178" width="128" height="16"/>
	</g>
</g>
<g>
	<g>
		<rect x="296.171" y="400.178" width="16" height="16"/>
	</g>
</g>
<g>
	<g>
		<rect x="328.171" y="400.178" width="96" height="16"/>
	</g>
</g>
<g>
	<g>
		<rect x="296.171" y="432.178" width="128" height="16"/>
	</g>
</g>
<g>
	<g>
		<rect x="312.171" y="80.178" width="16" height="16"/>
	</g>
</g>
<g>
	<g>
		<rect x="344.171" y="80.178" width="80" height="16"/>
	</g>
</g>
<g>
	<g>
		<rect x="312.171" y="112.178" width="112" height="16"/>
	</g>
</g>
<g>
	<g>
		<rect x="312.171" y="168.178" width="16" height="16"/>
	</g>
</g>
<g>
	<g>
		<rect x="344.171" y="168.178" width="80" height="16"/>
	</g>
</g>
<g>
	<g>
		<rect x="312.171" y="200.178" width="112" height="16"/>
	</g>
</g>
<g>
	<g>
		<path d="M408.171,304.178h-24v-40c0-4.418-3.582-8-8-8h-32c-4.418,0-8,3.582-8,8v24h-24c-4.418,0-8,3.582-8,8v80
			c0,4.418,3.582,8,8,8h96c4.418,0,8-3.582,8-8v-64C416.171,307.76,412.589,304.178,408.171,304.178z M336.171,368.178h-16v-64h16
			V368.178z M368.171,368.178h-16v-96h16V368.178z M400.171,368.178h-16v-48h16V368.178z"/>
	</g>
</g>
<g>
	<g>
		<path d="M288.171,72.178h-96c-4.418,0-8,3.582-8,8v48c0,4.418,3.582,8,8,8h96c4.418,0,8-3.582,8-8v-48
			C296.171,75.76,292.589,72.178,288.171,72.178z M280.171,120.178h-80v-32h80V120.178z"/>
	</g>
</g>
<g>
	<g>
		<path d="M288.171,160.178h-96c-4.418,0-8,3.582-8,8v48c0,4.418,3.582,8,8,8h96c4.418,0,8-3.582,8-8v-48
			C296.171,163.76,292.589,160.178,288.171,160.178z M280.171,208.178h-80v-32h80V208.178z"/>
	</g>
</g>
<g>
	<g>
		<path d="M456.171,32.178H147.995C125.998-0.948,81.312-9.97,48.185,12.028c-33.126,21.997-42.148,66.684-20.151,99.81
			c5.304,7.987,12.15,14.835,20.136,20.141v108.2c-0.001,1.817,0.617,3.581,1.752,5l30.248,37.808v189.192c0,4.418,3.582,8,8,8h368
			c4.418,0,8-3.582,8-8v-432C464.171,35.76,460.589,32.178,456.171,32.178z M60.171,120.626
			C33.414,105.115,24.297,70.85,39.808,44.093C49.809,26.841,68.23,16.209,88.171,16.178c30.928,0.047,55.962,25.157,55.915,56.085
			c-0.03,19.941-10.663,38.362-27.915,48.363c-2.473,1.428-3.997,4.065-4,6.92v16.632h-16V99.49l21.656-21.656l-11.312-11.312
			L88.171,84.866L69.827,66.522L58.515,77.834L80.171,99.49v44.688h-16v-16.632C64.168,124.691,62.644,122.054,60.171,120.626z
			 M64.171,176.178v-16h48v16H64.171z M112.171,192.178v40h-16v-40H112.171z M64.171,192.178h16v40h-16V192.178z M72.811,248.178
			h30.72l-15.36,19.2L72.811,248.178z M448.171,464.178h-352V282.986l30.248-37.808c1.135-1.419,1.753-3.183,1.752-5v-108.2
			c19.942-13.377,31.934-35.787,32-59.8c-0.016-8.181-1.437-16.299-4.2-24h292.2V464.178z"/>
	</g>
</g>
<g>
</g>
<g>
</g>
<g>
</g>
<g>
</g>
<g>
</g>
<g>
</g>
<g>
</g>
<g>
</g>
<g>
</g>
<g>
</g>
<g>
</g>
<g>
</g>
<g>
</g>
<g>
</g>
<g>
</g>
</svg>
