<?xml version="1.0" encoding="iso-8859-1"?>
<!-- Generator: Adobe Illustrator 19.0.0, SVG Export Plug-In . SVG Version: 6.00 Build 0)  -->
<svg version="1.1" id="Capa_1" xmlns="http://www.w3.org/2000/svg" xmlns:xlink="http://www.w3.org/1999/xlink" x="0px" y="0px"
	 viewBox="0 0 479.985 479.985" style="enable-background:new 0 0 479.985 479.985;" xml:space="preserve">
<g>
	<g>
		<path d="M463.992,47.985h-200c-2.122,0-4.156,0.844-5.656,2.344l-18.344,18.344l-18.344-18.344c-1.5-1.5-3.534-2.344-5.656-2.344
			h-32.64c-4.391-30.574-32.736-51.8-63.311-47.409c-24.574,3.529-43.88,22.835-47.409,47.409h-56.64c-4.418,0-8,3.582-8,8v392
			c0,4.418,3.582,8,8,8H212.68l21.656,21.656c3.124,3.123,8.188,3.123,11.312,0l21.656-21.656h28.688v16c0,4.418,3.582,8,8,8h112
			c4.418,0,8-3.582,8-8v-16h40c4.418,0,8-3.582,8-8v-392C471.992,51.566,468.411,47.985,463.992,47.985z M98.147,29.326
			c7.59-8.5,18.45-13.354,29.845-13.341c22.065-0.025,39.972,17.842,39.997,39.906c0.013,11.396-4.841,22.255-13.341,29.846
			c-1.69,1.517-2.656,3.681-2.656,5.952v12.296h-16V83.297l21.656-21.656l-11.312-11.312l-18.344,18.344l-18.344-18.344
			L98.336,61.641l21.656,21.656v20.688h-16V91.689c0-2.271-0.966-4.435-2.656-5.952C84.878,71.04,83.45,45.784,98.147,29.326z
			 M231.992,452.673l-10.344-10.344c-1.5-1.5-3.534-2.344-5.656-2.344h-192v-376H72.64c1.7,11.733,7.074,22.625,15.352,31.112v8.888
			h-16v16h112v-16h-16v-8.888c8.278-8.487,13.652-19.379,15.352-31.112h29.336l19.312,19.312V452.673z M423.992,374.097
			c-0.029,10.524-2.493,20.899-7.2,30.312c-5.783,11.642-8.795,24.464-8.8,37.464v22.112h-96v-24c-0.034-12.582-5.954-24.424-16-32
			l-6.4-4.8c-6.03-4.544-9.583-11.65-9.6-19.2v-52.224c0.617-8.902,5.578-16.93,13.264-21.464l2.736-1.368v35.056h16v-128
			c0-4.418,3.582-8,8-8s8,3.582,8,8v80h16v-24c0-4.418,3.582-8,8-8s8,3.582,8,8v40h16v-24c0-4.418,3.582-8,8-8s8,3.582,8,8v40h16
			v-24c0-4.418,3.582-8,8-8s8,3.582,8,8V374.097z M455.992,439.985h-31.888c0.26-9.874,2.665-19.573,7.048-28.424
			c5.797-11.639,8.822-24.461,8.84-37.464v-70.112c0.045-13.211-10.628-23.956-23.839-24.001c-3.115-0.011-6.203,0.588-9.089,1.761
			c-3.336-12.714-16.348-20.316-29.062-16.979c-1,0.262-1.981,0.59-2.938,0.979c-3.225-12.629-16.077-20.252-28.706-17.027
			c-0.801,0.205-1.591,0.451-2.366,0.739v-33.472c0-13.255-10.745-24-24-24s-24,10.745-24,24v75.056l-9.888,4.944
			c-13.07,7.29-21.436,20.826-22.112,35.776v52.224c0.034,12.582,5.954,24.424,16,32l6.4,4.8c6.029,4.544,9.582,11.65,9.6,19.2h-32
			c-2.122,0-4.156,0.844-5.656,2.344l-10.344,10.344V83.297l19.312-19.312h188.688V439.985z"/>
	</g>
</g>
<g>
	<g>
		<rect x="335.992" y="95.985" width="96" height="16"/>
	</g>
</g>
<g>
	<g>
		<rect x="271.992" y="159.985" width="128" height="16"/>
	</g>
</g>
<g>
	<g>
		<rect x="271.992" y="127.985" width="160" height="16"/>
	</g>
</g>
<g>
	<g>
		<rect x="303.992" y="95.985" width="16" height="16"/>
	</g>
</g>
<g>
	<g>
		<rect x="47.992" y="343.985" width="160" height="16"/>
	</g>
</g>
<g>
	<g>
		<rect x="111.992" y="311.985" width="96" height="16"/>
	</g>
</g>
<g>
	<g>
		<rect x="47.992" y="375.985" width="160" height="16"/>
	</g>
</g>
<g>
	<g>
		<rect x="79.992" y="311.985" width="16" height="16"/>
	</g>
</g>
<g>
	<g>
		<path d="M199.992,143.985h-144c-4.418,0-8,3.582-8,8v128c0,4.418,3.582,8,8,8h144c4.418,0,8-3.582,8-8v-128
			C207.992,147.566,204.411,143.985,199.992,143.985z M191.992,271.985h-128v-112h128V271.985z"/>
	</g>
</g>
<g>
	<g>
		<path d="M175.432,213.024c-0.813-2.041-2.43-3.658-4.471-4.471l-80-32c-4.103-1.639-8.758,0.358-10.397,4.461
			c-0.378,0.945-0.571,1.953-0.571,2.971v64c0,2.654,1.315,5.135,3.512,6.624c1.326,0.894,2.889,1.373,4.488,1.376
			c1.017,0.003,2.024-0.19,2.968-0.568l80-32C175.065,221.781,177.067,217.129,175.432,213.024z M95.992,236.169v-40.368
			l50.464,20.184L95.992,236.169z"/>
	</g>
</g>
<g>
	<g>
		<rect x="159.992" y="239.985" width="16" height="16"/>
	</g>
</g>
<g>
</g>
<g>
</g>
<g>
</g>
<g>
</g>
<g>
</g>
<g>
</g>
<g>
</g>
<g>
</g>
<g>
</g>
<g>
</g>
<g>
</g>
<g>
</g>
<g>
</g>
<g>
</g>
<g>
</g>
</svg>
