<?xml version="1.0" encoding="iso-8859-1"?>
<!-- Generator: Adobe Illustrator 19.0.0, SVG Export Plug-In . SVG Version: 6.00 Build 0)  -->
<svg version="1.1" id="Capa_1" xmlns="http://www.w3.org/2000/svg" xmlns:xlink="http://www.w3.org/1999/xlink" x="0px" y="0px"
	 viewBox="0 0 448 448" style="enable-background:new 0 0 448 448;" xml:space="preserve">
<g>
	<g>
		<path d="M400,0H96c-4.418,0-8,3.582-8,8v376H48c-4.418,0-8,3.582-8,8v24c0,17.673,14.327,32,32,32h304c17.673,0,32-14.327,32-32V8
			C408,3.582,404.418,0,400,0z M72,432c-8.837,0-16-7.163-16-16v-16h288v16c-0.009,5.619,1.474,11.141,4.296,16H72z M392,416
			c0,8.837-7.163,16-16,16s-16-7.163-16-16v-24c0-4.418-3.582-8-8-8H104V144h288V416z M392,128H104V16h288V128z"/>
	</g>
</g>
<g>
	<g>
		<rect x="152" y="64" width="16" height="16"/>
	</g>
</g>
<g>
	<g>
		<path d="M160,32c-22.091,0-40,17.909-40,40c0.026,22.08,17.92,39.974,40,40c22.091,0,40-17.909,40-40S182.091,32,160,32z M160,96
			c-13.255,0-24-10.745-24-24s10.745-24,24-24s24,10.745,24,24S173.255,96,160,96z"/>
	</g>
</g>
<g>
	<g>
		<rect x="288" y="32" width="88" height="16"/>
	</g>
</g>
<g>
	<g>
		<rect x="224" y="64" width="152" height="16"/>
	</g>
</g>
<g>
	<g>
		<rect x="224" y="96" width="120" height="16"/>
	</g>
</g>
<g>
	<g>
		<rect x="256" y="32" width="16" height="16"/>
	</g>
</g>
<g>
	<g>
		<path d="M288,299.8c19.942-13.377,31.934-35.787,32-59.8c0.037-39.764-32.169-72.03-71.933-72.066
			c-39.764-0.037-72.03,32.169-72.066,71.933c-0.022,24.071,11.986,46.56,32,59.933V312h-16v16h16v24c0,4.418,3.582,8,8,8h64
			c4.418,0,8-3.582,8-8v-24h16v-16h-16V299.8z M272,344h-48v-16h48V344z M276,288.448c-2.473,1.428-3.997,4.065-4,6.92V312h-16
			v-44.688l21.656-21.656l-11.312-11.312L248,252.688l-18.344-18.344l-11.312,11.312L240,267.312V312h-16v-16.632
			c-0.003-2.855-1.527-5.492-4-6.92c-26.784-15.464-35.961-49.713-20.497-76.497c15.464-26.784,49.713-35.961,76.497-20.497
			c26.784,15.464,35.961,49.713,20.497,76.497C291.582,276.464,284.513,283.533,276,288.448z"/>
	</g>
</g>
<g>
</g>
<g>
</g>
<g>
</g>
<g>
</g>
<g>
</g>
<g>
</g>
<g>
</g>
<g>
</g>
<g>
</g>
<g>
</g>
<g>
</g>
<g>
</g>
<g>
</g>
<g>
</g>
<g>
</g>
</svg>
