<?xml version="1.0" encoding="iso-8859-1"?>
<!-- Generator: Adobe Illustrator 19.0.0, SVG Export Plug-In . SVG Version: 6.00 Build 0)  -->
<svg version="1.1" id="Capa_1" xmlns="http://www.w3.org/2000/svg" xmlns:xlink="http://www.w3.org/1999/xlink" x="0px" y="0px"
	 viewBox="0 0 479.987 479.987" style="enable-background:new 0 0 479.987 479.987;" xml:space="preserve">
<g>
	<g>
		<path d="M475.987,231.397l-68-39.4l68-39.392c2.473-1.428,3.997-4.065,4-6.92c-0.003-2.855-1.527-5.492-4-6.92l-152-88
			c-2.475-1.429-5.525-1.429-8,0l-11.032,6.4c-16.954-35.876-59.781-51.216-95.657-34.263
			c-15.044,7.109-27.154,19.219-34.263,34.263l-11.032-6.4c-2.475-1.429-5.525-1.429-8,0l-152,88
			c-3.822,2.217-5.123,7.112-2.906,10.934c0.699,1.205,1.701,2.207,2.906,2.906l67.984,39.392l-68,39.392
			c-3.822,2.217-5.123,7.112-2.906,10.934c0.699,1.205,1.701,2.207,2.906,2.906l76,44v78.768c0.003,2.855,1.527,5.492,4,6.92l152,88
			c2.475,1.429,5.525,1.429,8,0l152-88c2.473-1.428,3.997-4.065,4-6.92v-78.76l76-44c3.822-2.217,5.123-7.112,2.906-10.934
			C478.194,233.098,477.192,232.096,475.987,231.397z M310.275,72.549l9.712-5.6l136,78.76l-64,37.048l-92.912-53.792
			C310.576,112.572,314.642,92.093,310.275,72.549z M191.624,59.912c10.001-17.252,28.422-27.884,48.363-27.915
			c30.928,0.047,55.962,25.157,55.915,56.085c-0.03,19.941-10.663,38.362-27.915,48.363c-2.473,1.428-3.997,4.065-4,6.92v16.632h-16
			v-44.688l21.656-21.656l-11.312-11.312l-18.344,18.344l-18.344-18.344l-11.312,11.312l21.656,21.656v44.688h-16v-16.632
			c-0.003-2.855-1.527-5.492-4-6.92C185.23,120.934,176.113,86.669,191.624,59.912z M263.987,175.997v16h-48v-16H263.987z
			 M23.987,145.685l136-78.76l9.712,5.6c-4.366,19.544-0.301,40.022,11.2,56.416l-92.912,53.816L23.987,145.685z M23.987,238.309
			l64-37.072l136,78.76l-64,37.072L23.987,238.309z M231.987,442.125l-136-78.736v-64.888l60,34.728c2.475,1.429,5.525,1.429,8,0
			l68-39.36V442.125z M239.987,270.757l-136-78.76l87.752-50.8c2.583,2.401,5.339,4.607,8.248,6.6v12.2h-16v16h16v24
			c0,4.418,3.582,8,8,8h24v16h16v-16h24c4.418,0,8-3.582,8-8v-24h16v-16h-16v-12.2c2.922-1.992,5.693-4.198,8.288-6.6l87.752,50.8
			L239.987,270.757z M383.987,363.389l-136,78.736V293.869l68,39.36c2.475,1.429,5.525,1.429,8,0l60-34.728V363.389z
			 M319.987,317.069l-64-37.072l136-78.76l64,37.072L319.987,317.069z"/>
	</g>
</g>
<g>
	<g>
		<rect x="231.987" y="239.997" width="16" height="16"/>
	</g>
</g>
<g>
</g>
<g>
</g>
<g>
</g>
<g>
</g>
<g>
</g>
<g>
</g>
<g>
</g>
<g>
</g>
<g>
</g>
<g>
</g>
<g>
</g>
<g>
</g>
<g>
</g>
<g>
</g>
<g>
</g>
</svg>
