<?xml version="1.0" encoding="iso-8859-1"?>
<!-- Generator: Adobe Illustrator 19.0.0, SVG Export Plug-In . SVG Version: 6.00 Build 0)  -->
<svg version="1.1" id="Capa_1" xmlns="http://www.w3.org/2000/svg" xmlns:xlink="http://www.w3.org/1999/xlink" x="0px" y="0px"
	 viewBox="0 0 480.002 480.002" style="enable-background:new 0 0 480.002 480.002;" xml:space="preserve">
<g>
	<g>
		<path d="M420.073,153.112l-110-65c1.255-5.28,1.901-10.685,1.928-16.112c0-39.765-32.235-72-72-72c-39.764,0-72,32.235-72,72
			c0.027,5.427,0.673,10.832,1.928,16.112l-110,65c-2.435,1.44-3.929,4.059-3.928,6.888v208c-0.001,2.829,1.493,5.448,3.928,6.888
			l176,104c2.512,1.485,5.632,1.485,8.144,0l176-104c2.435-1.44,3.929-4.059,3.928-6.888V160
			C424.002,157.171,422.508,154.552,420.073,153.112z M191.638,43.915C201.639,26.663,220.06,16.03,240.001,16
			c30.928,0.047,55.962,25.157,55.915,56.085c-0.03,19.941-10.663,38.362-27.915,48.363c-2.473,1.428-3.997,4.065-4,6.92V144h-16
			V99.312l21.656-21.656l-11.312-11.312l-18.344,18.344l-18.344-18.344l-11.312,11.312l21.656,21.656V144h-16v-16.632
			c-0.003-2.855-1.527-5.492-4-6.92C185.244,104.937,176.127,70.672,191.638,43.915z M264.001,160v16h-48v-16H264.001z
			 M232.001,457.976l-160-94.544V174.016l160,94.552V457.976z M240.001,254.704L79.729,160l95.696-56.552
			c5.55,11.452,14.028,21.233,24.576,28.352V144h-16v16h16v24c0,4.418,3.582,8,8,8h24v16h16v-16h24c4.418,0,8-3.582,8-8v-24h16v-16
			h-16v-12.2c10.548-7.119,19.026-16.9,24.576-28.352L400.273,160L240.001,254.704z M408.001,363.432l-160,94.544V268.568
			l160-94.552V363.432z"/>
	</g>
</g>
<g>
	<g>
		<rect x="172.932" y="290.548" transform="matrix(0.8609 -0.5088 0.5088 0.8609 -126.6558 133.8866)" width="17.136" height="16"/>
	</g>
</g>
<g>
	<g>
		<rect x="202.418" y="273.119" transform="matrix(0.8609 -0.5088 0.5088 0.8609 -113.6841 146.4634)" width="17.136" height="16"/>
	</g>
</g>
<g>
	<g>
		<rect x="84.449" y="342.854" transform="matrix(0.8609 -0.5088 0.5088 0.8609 -165.5723 96.1312)" width="17.128" height="16"/>
	</g>
</g>
<g>
	<g>
		<rect x="143.476" y="308" transform="matrix(0.8609 -0.5088 0.5088 0.8609 -139.6337 121.3244)" width="17.128" height="16"/>
	</g>
</g>
<g>
	<g>
		<rect x="113.954" y="325.431" transform="matrix(0.8609 -0.5088 0.5088 0.8609 -152.6096 108.727)" width="17.128" height="16"/>
	</g>
</g>
<g>
	<g>
		<rect x="378.978" y="342.316" transform="matrix(0.5087 -0.861 0.861 0.5087 -111.9649 505.5693)" width="16" height="17.136"/>
	</g>
</g>
<g>
	<g>
		<rect x="290.49" y="290.03" transform="matrix(0.5088 -0.8609 0.8609 0.5088 -110.4357 403.64)" width="16" height="17.128"/>
	</g>
</g>
<g>
	<g>
		<rect x="349.502" y="324.896" transform="matrix(0.5087 -0.861 0.861 0.5087 -111.4492 471.6329)" width="16" height="17.136"/>
	</g>
</g>
<g>
	<g>
		<rect x="260.999" y="272.573" transform="matrix(0.5088 -0.8609 0.8609 0.5088 -109.8961 369.6638)" width="16" height="17.128"/>
	</g>
</g>
<g>
	<g>
		<rect x="320.004" y="307.41" transform="matrix(0.5088 -0.8609 0.8609 0.5088 -110.9006 437.585)" width="16" height="17.128"/>
	</g>
</g>
<g>
	<g>
		<rect x="232.001" y="224" width="16" height="16"/>
	</g>
</g>
<g>
</g>
<g>
</g>
<g>
</g>
<g>
</g>
<g>
</g>
<g>
</g>
<g>
</g>
<g>
</g>
<g>
</g>
<g>
</g>
<g>
</g>
<g>
</g>
<g>
</g>
<g>
</g>
<g>
</g>
</svg>
