<?xml version="1.0" encoding="iso-8859-1"?>
<!-- Generator: Adobe Illustrator 19.0.0, SVG Export Plug-In . SVG Version: 6.00 Build 0)  -->
<svg version="1.1" id="Capa_1" xmlns="http://www.w3.org/2000/svg" xmlns:xlink="http://www.w3.org/1999/xlink" x="0px" y="0px"
	 viewBox="0 0 480 480" style="enable-background:new 0 0 480 480;" xml:space="preserve" fill="white">
<g>
	<g>
		<path d="M416,24h-24V8c0-4.418-3.582-8-8-8H64c-4.418,0-8,3.582-8,8v432c0,4.418,3.582,8,8,8h24v24c0,4.418,3.582,8,8,8h320
			c4.418,0,8-3.582,8-8V32C424,27.582,420.418,24,416,24z M72,432V16h304v368h-40c-4.418,0-8,3.582-8,8v40H72z M364.688,400
			L344,420.688V400H364.688z M408,464H104v-16h232c2.125,0,4.163-0.847,5.664-2.352l48-48c1.496-1.499,2.336-3.53,2.336-5.648V40h16
			V464z"/>
	</g>
</g>
<g>
	<g>
		<path d="M344,40H104c-4.418,0-8,3.582-8,8v64c0,4.418,3.582,8,8,8h240c4.418,0,8-3.582,8-8V48C352,43.582,348.418,40,344,40z
			 M336,104H112V56h224V104z"/>
	</g>
</g>
<g>
	<g>
		<path d="M208,280H104c-4.418,0-8,3.582-8,8v104c0,4.418,3.582,8,8,8h104c4.418,0,8-3.582,8-8V288C216,283.582,212.418,280,208,280
			z M112,384v-4.688l24-24L164.688,384H112z M200,384h-12.688l-16-16L184,355.312l16,16V384z M200,348.688l-10.344-10.344
			c-3.124-3.123-8.188-3.123-11.312,0L160,356.688l-18.344-18.344c-3.124-3.123-8.188-3.123-11.312,0L112,356.688V296h88V348.688z"
			/>
	</g>
</g>
<g>
	<g>
		<path d="M344,280h-96c-4.418,0-8,3.582-8,8v32c0,4.418,3.582,8,8,8h96c4.418,0,8-3.582,8-8v-32C352,283.582,348.418,280,344,280z
			 M336,312h-80v-16h80V312z"/>
	</g>
</g>
<g>
	<g>
		<rect x="96" y="144" width="120" height="16"/>
	</g>
</g>
<g>
	<g>
		<rect x="96" y="176" width="120" height="16"/>
	</g>
</g>
<g>
	<g>
		<rect x="96" y="208" width="120" height="16"/>
	</g>
</g>
<g>
	<g>
		<rect x="96" y="240" width="120" height="16"/>
	</g>
</g>
<g>
	<g>
		<rect x="240" y="384" width="64" height="16"/>
	</g>
</g>
<g>
	<g>
		<rect x="240" y="352" width="112" height="16"/>
	</g>
</g>
<g>
	<g>
		<path d="M336,239.112c10.231-10.451,15.973-24.487,16-39.112c0.044-30.928-24.992-56.036-55.92-56.08s-56.036,24.992-56.08,55.92
			c-0.021,14.682,5.725,28.785,16,39.272V240h-16v16h112v-16h-16V239.112z M325.824,226.584c-0.996,1.114-2.054,2.172-3.168,3.168
			c-1.69,1.517-2.656,3.681-2.656,5.952V240h-16v-12.688l21.656-21.656l-11.312-11.312L296,212.688l-18.344-18.344l-11.312,11.312
			L288,227.312V240h-16v-4.296c0-2.271-0.966-4.435-2.656-5.952c-16.471-14.722-17.889-40.009-3.168-56.48
			c14.722-16.471,40.009-17.889,56.48-3.168C339.127,184.826,340.545,210.113,325.824,226.584z"/>
	</g>
</g>
<g>
	<g>
		<rect x="152" y="312" width="16" height="16"/>
	</g>
</g>
<g>
</g>
<g>
</g>
<g>
</g>
<g>
</g>
<g>
</g>
<g>
</g>
<g>
</g>
<g>
</g>
<g>
</g>
<g>
</g>
<g>
</g>
<g>
</g>
<g>
</g>
<g>
</g>
<g>
</g>
</svg>
