<?xml version="1.0" encoding="iso-8859-1"?>
<!-- Generator: Adobe Illustrator 19.0.0, SVG Export Plug-In . SVG Version: 6.00 Build 0)  -->
<svg version="1.1" id="Capa_1" xmlns="http://www.w3.org/2000/svg" xmlns:xlink="http://www.w3.org/1999/xlink" x="0px" y="0px"
	 viewBox="0 0 480 480" style="enable-background:new 0 0 480 480;" xml:space="preserve" fill="white">
<g>
	<g>
		<path d="M312,192v-8.88c21.645-22.091,21.283-57.547-0.808-79.192C289.1,82.283,253.645,82.645,232,104.736
			c-21.333,21.773-21.333,56.61,0,78.384V192h-16v16h112v-16H312z M301.824,170.576c-0.996,1.114-2.054,2.172-3.168,3.168
			c-1.69,1.517-2.656,3.681-2.656,5.952V192h-16v-20.688l21.656-21.656l-11.312-11.312L272,156.688l-18.344-18.344l-11.312,11.312
			L264,171.312V192h-16v-12.296c0.002-2.274-0.964-4.441-2.656-5.96c-16.471-14.722-17.889-40.009-3.168-56.48
			c14.722-16.471,40.009-17.889,56.48-3.168C315.127,128.818,316.545,154.105,301.824,170.576z"/>
	</g>
</g>
<g>
	<g>
		<path d="M456,64c4.418,0,8-3.582,8-8V24c0-4.418-3.582-8-8-8H88c-4.418,0-8,3.582-8,8v8H64V8c0-4.418-3.582-8-8-8H24
			c-4.418,0-8,3.582-8,8v464c0,4.418,3.582,8,8,8h32c4.418,0,8-3.582,8-8V368h16v8c0,4.418,3.582,8,8,8h368c4.418,0,8-3.582,8-8v-32
			c0-4.418-3.582-8-8-8h-8V64H456z M48,464H32V16h16V464z M80,344v8H64V48h16v8c0,4.418,3.582,8,8,8h8v272h-8
			C83.582,336,80,339.582,80,344z M448,368H96v-16h352V368z M112,336V64h320v272H112z M96,48V32h352v16H96z"/>
	</g>
</g>
<g>
	<g>
		<rect x="304" y="232" width="104" height="16"/>
	</g>
</g>
<g>
	<g>
		<rect x="240" y="264" width="168" height="16"/>
	</g>
</g>
<g>
	<g>
		<rect x="240" y="296" width="136" height="16"/>
	</g>
</g>
<g>
	<g>
		<rect x="272" y="232" width="16" height="16"/>
	</g>
</g>
<g>
	<g>
		<path d="M208,232h-64c-4.418,0-8,3.582-8,8v64c0,4.418,3.582,8,8,8h64c4.418,0,8-3.582,8-8v-64C216,235.582,212.418,232,208,232z
			 M200,296h-48v-48h48V296z"/>
	</g>
</g>
<g>
</g>
<g>
</g>
<g>
</g>
<g>
</g>
<g>
</g>
<g>
</g>
<g>
</g>
<g>
</g>
<g>
</g>
<g>
</g>
<g>
</g>
<g>
</g>
<g>
</g>
<g>
</g>
<g>
</g>
</svg>
