<?xml version="1.0" encoding="UTF-8"?>
<svg width="485px" height="308px" viewBox="0 0 485 308" version="1.1" xmlns="http://www.w3.org/2000/svg" xmlns:xlink="http://www.w3.org/1999/xlink">
    <!-- Generator: Sketch 55.2 (78181) - https://sketchapp.com -->
    <title>Enterprise</title>
    <desc>Created with Sketch.</desc>
    <g id="Enterprise" stroke="none" stroke-width="1" fill="none" fill-rule="evenodd">
        <circle id="Oval" fill="#D8D8D8" cx="237" cy="144" r="129"></circle>
        <g id="Humaaan" transform="translate(361.000000, 208.000000) scale(-1, 1) translate(-361.000000, -208.000000) translate(237.000000, 30.000000)">
            <g id="Head/Front/Short-2" transform="translate(136.256621, 49.429249) rotate(7.000000) translate(-136.256621, -49.429249) translate(80.104286, 6.609746)">
                <g id="Head" stroke-width="1" transform="translate(44.470588, 25.634615)" fill="#B28B67">
                    <path d="M6.80422555,28.5206817 C3.00947652,24.0480608 0.441111007,18.5668022 0.870286393,12.4248946 C2.10686018,-5.27165163 26.6399664,-1.37863694 31.4121635,7.55305991 C36.1843606,16.4847568 35.6172995,39.1407466 29.44966,40.7370899 C26.9900138,41.3737094 21.7502363,39.8142465 16.4173652,36.5866377 L19.7647059,60.3653846 L0,60.3653846 L6.80422555,28.5206817 Z"></path>
                </g>
                <path d="M49.7561139,58.1389108 C47.2754488,47.057264 40.2084387,39.5032766 41.2877407,34.5502544 C42.0072753,31.2482396 43.9250508,29.1948325 47.0410672,28.3900331 C48.6526414,21.8435872 53.8502988,19.0591286 62.6340394,20.0366574 C75.8096503,21.5029504 83.8513098,26.9971851 80.3785145,39.086899 C77.1861989,39.086899 73.3323919,37.9276428 68.0033776,39.9138221 C66.3125029,40.5440288 65.1031397,42.498355 64.3752881,45.7768007 L61.9671276,45.7768007 C59.6299065,41.8861819 57.3253914,40.4564857 55.0535824,41.487712 C52.7817735,42.5189383 52.2653544,45.0237912 53.5043251,49.0022705 L52.3180626,58.1389108 L49.7561139,58.1389108 Z" id="Hair" fill="#191847"></path>
            </g>
            <g id="Bottom/Standing/Skinny-Jeans-Walk" transform="translate(0.000000, 160.000000)">
                <polygon id="Leg" fill="#AFB9C5" points="105.813333 0 145.560822 104.336712 173.420885 181.238494 189.306667 181.238494 151.010249 8.04860595e-14"></polygon>
                <path d="M95.9897458,0 C95.557689,35.8000879 95.8700484,83.9990955 94.8633651,86.2306908 C94.1922429,87.718421 73.3177879,104.66917 32.24,137.082939 L40.428117,150.895397 C89.1969041,119.695967 114.827968,102.017868 117.321308,97.8611004 C121.061319,91.6259488 139.850837,34.2492671 149.626667,0 L95.9897458,0 Z" id="Leg" fill="#AFB9C5"></path>
                <g id="Accessories/Shoe/Flat-Pointy" transform="translate(46.706667, 154.995816) rotate(50.000000) translate(-46.706667, -154.995816) translate(21.493333, 138.594142)" fill="#191847">
                    <path d="M0,33 L0.819672131,15.675 L18.0327869,15.675 C26.1947568,21.45 36.8504945,26.125 50,29.7 L50,33 L18.852459,33 L8.19672131,31.35 L8.19672131,33 L0,33 Z" id="Shoe"></path>
                </g>
                <g id="Accessories/Shoe/Flat-Pointy" transform="translate(171.946667, 163.196653)" fill="#191847">
                    <path d="M0,33 L0.819672131,15.675 L18.0327869,15.675 C26.1947568,21.45 36.8504945,26.125 50,29.7 L50,33 L18.852459,33 L8.19672131,31.35 L8.19672131,33 L0,33 Z" id="Shoe"></path>
                </g>
            </g>
            <g id="Body/Trench-Coat" transform="translate(123.865445, 150.367539) rotate(7.000000) translate(-123.865445, -150.367539) translate(18.166932, 73.374779)">
                <path d="M162.942257,74.3187849 L187.822636,95.394262 C194.801748,97.809087 200.577715,100.610414 205.150536,103.798243 C206.20607,104.903426 207.423124,107.077285 202.772799,106.391373 C198.122475,105.705461 193.200157,105.192952 192.443519,106.741274 C191.686882,108.289596 194.382862,110.392804 192.928324,112.451598 C191.958632,113.824127 188.102833,109.94328 181.360926,100.809055 L156.142307,88.2336466 L162.942257,74.3187849 Z M44.8167359,58.0112533 L59.1135368,61.6426141 C39.9754876,93.7901206 29.7411318,110.779712 28.4104693,112.611389 C25.4164788,116.732661 27.5910287,124.686944 28.3298234,128.854447 C22.2670752,129.934257 25.1017982,121.048025 17.4233285,122.532307 C10.4147775,123.887091 4.31760054,127.986517 -1.82188638,121.705709 C-2.57670022,120.933521 -3.03752431,118.619292 -0.271875234,117.589532 C6.61836521,115.024024 16.8585873,110.080789 18.583842,108.043785 C20.9365349,105.265967 29.6808329,88.5884564 44.8167359,58.0112533 Z" id="Skin" fill="#B28B67" transform="translate(101.862105, 93.478491) rotate(-4.000000) translate(-101.862105, -93.478491) "></path>
                <path d="M167.580531,72.2053321 C170.9632,71.9626877 174.642714,72.5225958 178.587659,73.850685 C180.528848,74.5041976 181.572272,76.6063022 180.918212,78.545867 C180.538339,79.6723503 179.66942,80.4962538 178.627359,80.8610338 C179.3822,81.4112623 180.143729,81.9584533 180.912025,82.5025524 L174.279392,96.0314546 C146.368928,82.126906 120.135762,71.6436334 108.18189,48.6883417 C104.169861,40.9839524 105.527819,14.8138611 105.144872,5.29329184 L113.959915,1.6811894 C126.247742,27.0597369 142.877515,51.407373 167.580531,72.2053321 Z" id="Back-Arm" fill="#89C5CC"></path>
                <path d="M74.1796875,93.8080254 C100.091745,96.6522268 120.487377,96.6522268 135.366583,93.8080254 C137.210017,93.4556479 137.129063,85.5156243 136.274173,83.3471291 C122.961308,49.5780141 114.203999,24.8574385 114.203999,1.40217192 C111.761256,2.67707172 107.486225,2.86813139 101.378906,1.97535093 C84.9655803,26.1467573 77.4209589,53.8806806 74.1796875,93.8080254 Z" id="Shirt" fill="#191847"></path>
                <path d="M69.3652468,97.8000573 C68.4855921,96.9724561 68.0269288,95.7318414 68.2521403,94.4535348 C68.2522016,94.4531865 68.252263,94.4528382 68.2523245,94.4524899 L68.6806836,92.0251766 C68.9719141,90.3749079 70.3122211,89.1732271 71.8947403,88.9851065 C72.1713708,87.7495611 72.4098794,86.5222969 72.6068615,85.3040189 C74.2707899,75.0130929 71.4278805,64.922506 71.5613937,55.0134987 C58.3078704,66.3118625 46.4184178,85.8209821 35.8930359,113.540858 L20.3261923,108.96404 C20.9201555,106.759246 21.5353968,104.581531 22.1719163,102.430896 C20.3751865,101.411027 18.2757019,96.7366871 19.7866932,95.9544853 C21.3472132,95.1466437 23.0004,94.5780578 24.7413839,94.2433997 C39.0147147,51.2886923 62.3559556,19.8742258 94.7651064,-4.72510919e-13 L97.6323666,-4.71366905e-13 L104.138741,-1.0658141e-14 C101.378906,36.4664921 139.498728,116.080506 126.262559,184.073739 C101.797491,189.53265 66.8704419,172.54816 32.8721622,186.117647 C34.1372462,158.735888 59.4785047,126.568523 69.3652498,97.8000495 Z" id="Coat-Front" fill="#89C5CC"></path>
                <polygon id="Shade-Lapel" fill-opacity="0.1" fill="#000000" points="98.1691996 0.823529412 93.9169272 13.8891901 102.48006 23.6839182 94.7411459 31.3810054 113.463808 63.4117647 90.5681123 31.4449981 98.1691996 23.6839182 90.5681123 15.0281421"></polygon>
                <path d="M107.972656,75.7647059 C106.151842,75.7647059 104.675781,74.2898792 104.675781,72.4705882 C104.675781,70.6512973 106.151842,69.1764706 107.972656,69.1764706 C109.79347,69.1764706 111.269531,70.6512973 111.269531,72.4705882 C111.269531,74.2898792 109.79347,75.7647059 107.972656,75.7647059 Z M112.09375,94.7058824 C110.272936,94.7058824 108.796875,93.2310556 108.796875,91.4117647 C108.796875,89.5924738 110.272936,88.1176471 112.09375,88.1176471 C113.914564,88.1176471 115.390625,89.5924738 115.390625,91.4117647 C115.390625,93.2310556 113.914564,94.7058824 112.09375,94.7058824 Z M112.917969,113.647059 C111.097155,113.647059 109.621094,112.172232 109.621094,110.352941 C109.621094,108.53365 111.097155,107.058824 112.917969,107.058824 C114.738783,107.058824 116.214844,108.53365 116.214844,110.352941 C116.214844,112.172232 114.738783,113.647059 112.917969,113.647059 Z" id="Buttons" fill-opacity="0.4" fill="#000000"></path>
            </g>
        </g>
        <g id="Humaaan" transform="translate(312.000000, 250.500000) scale(-1, 1) translate(-312.000000, -250.500000) translate(188.000000, 72.000000)">
            <g id="Head/Front/Short-Beard" transform="translate(136.256621, 49.429249) rotate(7.000000) translate(-136.256621, -49.429249) translate(80.104286, 6.609746)">
                <g id="Head" stroke-width="1" transform="translate(44.470588, 25.634615)" fill="#B28B67">
                    <path d="M6.80422555,28.5206817 C3.00947652,24.0480608 0.441111007,18.5668022 0.870286393,12.4248946 C2.10686018,-5.27165163 26.6399664,-1.37863694 31.4121635,7.55305991 C36.1843606,16.4847568 35.6172995,39.1407466 29.44966,40.7370899 C26.9900138,41.3737094 21.7502363,39.8142465 16.4173652,36.5866377 L19.7647059,60.3653846 L0,60.3653846 L6.80422555,28.5206817 Z"></path>
                </g>
                <path d="M61.8761339,40.0139221 C62.6326971,50.5962026 64.634007,55.8873429 67.8800635,55.8873429 C72.7494335,55.8873429 76.880748,52.7833636 79.0173106,52.7833636 C80.5747923,52.7833636 80.2270544,54.7404393 79.1946742,56.1914718 C78.3429272,57.3886204 74.1949908,58.5425285 74.1949908,60.3985107 C74.1949908,62.254493 77.4722046,60.8186218 77.4722046,61.9193686 C77.4722046,63.7401381 78.04817,67.1635105 74.9010081,67.1635105 C71.7159753,67.1635105 62.583922,65.9980404 61.0189355,61.2514096 C60.0089389,58.188073 59.3559035,51.8402664 59.0598294,42.2079899 C58.8666151,42.184936 58.6699809,42.1730769 58.4705882,42.1730769 C55.7416518,42.1730769 53.5294118,44.3944334 53.5294118,47.1346154 C53.5294118,48.5256805 54.0995345,49.7830376 55.0179535,50.6839462 C53.8746323,52.3043865 52.5932972,53.9971534 51.125024,55.7438688 C45.6090397,52.4208652 41.5158657,42.6931878 46.9086356,33.348384 C48.3992142,28.7705099 51.7736755,26.3252953 55.7589956,25.1899037 C58.9873102,23.8339245 62.3386064,23.6810367 65.1675775,24.4939339 C70.7131444,24.9715585 75.6650697,26.6695205 77.0684852,27.6778984 C77.0684852,32.9497185 76.0511872,34.513852 67.3620752,34.3759795 C65.2270195,35.5081895 63.5856965,37.4578538 61.8761339,40.0139221 Z" id="Hair" fill="#191847"></path>
            </g>
            <g id="Bottom/Standing/Skinny-Jeans-Walk" transform="translate(0.000000, 160.000000)">
                <polygon id="Leg" fill="#1F28CF" points="105.813333 0 145.560822 104.336712 173.420885 181.238494 189.306667 181.238494 151.010249 8.04860595e-14"></polygon>
                <path d="M95.9897458,0 C95.557689,35.8000879 95.8700484,83.9990955 94.8633651,86.2306908 C94.1922429,87.718421 73.3177879,104.66917 32.24,137.082939 L40.428117,150.895397 C89.1969041,119.695967 114.827968,102.017868 117.321308,97.8611004 C121.061319,91.6259488 139.850837,34.2492671 149.626667,0 L95.9897458,0 Z" id="Leg" fill="#2B44FF"></path>
                <g id="Accessories/Shoe/Flat-Pointy" transform="translate(46.706667, 154.995816) rotate(50.000000) translate(-46.706667, -154.995816) translate(21.493333, 138.594142)" fill="#191847">
                    <path d="M0,33 L0.819672131,15.675 L18.0327869,15.675 C26.1947568,21.45 36.8504945,26.125 50,29.7 L50,33 L18.852459,33 L8.19672131,31.35 L8.19672131,33 L0,33 Z" id="Shoe"></path>
                </g>
                <g id="Accessories/Shoe/Flat-Pointy" transform="translate(171.946667, 163.196653)" fill="#191847">
                    <path d="M0,33 L0.819672131,15.675 L18.0327869,15.675 C26.1947568,21.45 36.8504945,26.125 50,29.7 L50,33 L18.852459,33 L8.19672131,31.35 L8.19672131,33 L0,33 Z" id="Shoe"></path>
                </g>
            </g>
            <g id="Body/Hoodie" transform="translate(123.865445, 150.367539) rotate(7.000000) translate(-123.865445, -150.367539) translate(18.166932, 73.374779)">
                <path d="M157.245446,75.9388704 L183.536599,95.2288928 C190.667301,97.1514042 196.624772,99.5433332 201.409012,102.40468 C202.539133,103.433601 203.90499,105.517339 199.218106,105.157217 C194.531223,104.797095 189.585115,104.628911 188.938416,106.226197 C188.291718,107.823484 191.127966,109.733663 189.820706,111.888821 C188.949199,113.325593 184.831851,109.722941 177.468663,101.080865 L151.433524,90.29378 L157.245446,75.9388704 Z M56.3006751,76.6046165 L73.5246972,76.6722938 C62.8896583,110.975314 57.1483176,129.176282 56.3006751,131.275197 C54.3934795,135.997756 58.4293619,143.190132 60.1552654,147.055261 C54.5340552,149.568481 55.1330011,140.261 48.0419957,143.557229 C41.5696547,146.565874 36.6461611,152.017336 29.1683064,147.407129 C28.2489481,146.840332 27.2414812,144.706235 29.6756486,143.038552 C35.7400474,138.883745 44.4792134,131.612083 45.6600123,129.21856 C47.2702427,125.954562 50.8171303,108.416581 56.3006751,76.6046165 Z" id="Skin" fill="#B28B67"></path>
                <path d="M101.161338,7.89246835 L108.154883,6.05451416 C136.487233,26.4873952 151.128925,69.2224307 185.443507,89.5373779 L178.513684,99.8429179 C121.889958,97.8138065 103.344055,45.7473901 101.161338,7.89246835 Z" id="Coat-Back" fill="#2026A2" transform="translate(143.302422, 52.948716) rotate(5.000000) translate(-143.302422, -52.948716) "></path>
                <path d="M74.1796875,93.8823529 C102.756799,93.8823529 123.777523,93.8823529 137.24186,93.8823529 C140.123479,93.8823529 139.580493,89.7248776 139.163938,87.6269928 C134.356383,63.4148664 115.589512,37.3153657 115.589512,2.85001319 L97.3994134,0 C82.3538646,24.1775115 77.1508529,53.9449235 74.1796875,93.8823529 Z" id="Shirt" fill="#DDE3E9"></path>
                <path d="M74.6864512,23.7653776 C72.0445676,23.0066022 69.9524693,21.2369011 68.4101562,18.4562743 C61.7616427,6.46970947 64.1627321,-0.129782294 71.2678846,-2.2990725 C78.373037,-4.46836271 84.7093452,-1.687539e-14 96.0297524,-5.77315973e-15 C96.6454882,-5.32907052e-15 97.2094329,0.0385679694 97.7215865,0.115703908 L103.416035,0.440374071 C119.754027,55.7654542 124.259948,92.6774864 116.933797,111.176471 L67.2989561,111.176471 C64.3581445,118.028129 61.544036,123.792835 58.8566306,128.470588 L45.3320312,128.470588 C44.0591764,87.3493689 53.8439831,52.4476321 74.6864512,23.7653776 Z" id="Coat-Front" fill="#2026A2"></path>
                <path d="M78.1072782,82.7627564 C79.6682843,95.8127248 82.2054416,105.283963 85.71875,111.176471 L67.2989561,111.176471 C70.7293307,103.184202 74.3321047,93.7129643 78.1072782,82.7627564 Z" id="Shade" fill-opacity="0.1" fill="#000000"></path>
            </g>
        </g>
        <g id="Humaaan" transform="translate(-11.000000, 30.000000)">
            <g id="Head/Front/Short-1" transform="translate(136.256621, 49.429249) rotate(7.000000) translate(-136.256621, -49.429249) translate(80.104286, 6.609746)">
                <g id="Head" stroke-width="1" transform="translate(44.470588, 25.634615)" fill="#D4A181">
                    <path d="M6.80422555,28.5206817 C3.00947652,24.0480608 0.441111007,18.5668022 0.870286393,12.4248946 C2.10686018,-5.27165163 26.6399664,-1.37863694 31.4121635,7.55305991 C36.1843606,16.4847568 35.6172995,39.1407466 29.44966,40.7370899 C26.9900138,41.3737094 21.7502363,39.8142465 16.4173652,36.5866377 L19.7647059,60.3653846 L0,60.3653846 L6.80422555,28.5206817 Z"></path>
                </g>
                <path d="M67.1659799,34.483031 C64.4838515,35.9895294 62.5750665,38.8124283 60.2773521,42.515233 C59.7177333,42.29437 59.1082674,42.1730769 58.4705882,42.1730769 C55.7416518,42.1730769 53.5294118,44.3944334 53.5294118,47.1346154 C53.5294118,48.5256805 54.0995345,49.7830376 55.0179535,50.6839462 C53.8746323,52.3043865 52.5932972,53.9971534 51.125024,55.7438688 C45.6457961,52.4430084 41.5704795,42.8225464 46.8020909,33.5352435 C51.3033256,14.9321027 76.8092322,26.4788696 81.7163566,23.3413737 C82.7889602,30.0921322 79.3293094,35.5354143 67.1659799,34.483031 Z" id="Hair" fill="#2F3676"></path>
            </g>
            <g id="Bottom/Standing/Skinny-Jeans" transform="translate(0.000000, 160.000000)" fill="#191847">
                <polygon id="Leg" points="105.813333 9.9475983e-14 135.784102 104.336712 157.651085 181.238494 173.6 181.238494 150.363205 9.9475983e-14"></polygon>
                <path d="M97.7982561,0 C97.1050352,53.7763514 94.7411645,83.1074347 94.0133109,87.99325 C93.2854572,92.8790654 82.2799287,123.960813 60.9967254,181.238494 L77.5187213,181.238494 C104.613868,126.290346 119.739071,95.2085983 122.894333,87.99325 C126.049594,80.7779018 135.787039,51.4468185 150.453333,0 L97.7982561,0 Z" id="Leg"></path>
                <g id="Accessories/Shoe/Flat-Pointy" transform="translate(59.520000, 163.196653)">
                    <path d="M0,33 L0.819672131,15.675 L18.0327869,15.675 C26.1947568,21.45 36.8504945,26.125 50,29.7 L50,33 L18.852459,33 L8.19672131,31.35 L8.19672131,33 L0,33 Z" id="Shoe"></path>
                </g>
                <g id="Accessories/Shoe/Flat-Pointy" transform="translate(155.413333, 163.196653)">
                    <path d="M0,33 L0.819672131,15.675 L18.0327869,15.675 C26.1947568,21.45 36.8504945,26.125 50,29.7 L50,33 L18.852459,33 L8.19672131,31.35 L8.19672131,33 L0,33 Z" id="Shoe"></path>
                </g>
            </g>
            <g id="Body/Jacket-2" transform="translate(123.865445, 150.367539) rotate(7.000000) translate(-123.865445, -150.367539) translate(18.166932, 73.374779)">
                <path d="M163.195312,63.9199545 L193.060522,50.815202 C198.29221,45.6062535 203.344151,41.6472116 208.216344,38.9380766 C209.673223,38.474643 212.162231,38.3346342 209.506654,42.2101387 C206.851076,46.0856431 204.232249,50.2814234 205.293348,51.6396558 C206.354447,52.9978882 209.42822,51.4987695 210.642573,53.7075218 C211.452142,55.1800234 206.270869,56.9414428 195.098753,58.9917801 L172.731474,76.1264715 L163.195312,63.9199545 Z M42.4540925,67.5294118 L59.34375,70.8777544 C42.3583179,102.505578 33.2493358,119.268343 32.0168036,121.166049 C29.2436063,125.435888 31.8310555,133.261255 32.7868485,137.382147 C26.7907396,138.776746 29.1554207,129.759416 21.5674608,131.642152 C14.6415228,133.360627 8.76916262,137.770845 2.31100915,131.822962 C1.51701713,131.091705 0.935777433,128.806002 3.64289843,127.633676 C10.3873241,124.712984 20.3516449,119.244047 21.9673604,117.120785 C24.170677,114.225339 30.9995878,97.6948806 42.4540925,67.5294118 Z" id="Skin" fill="#B28B67"></path>
                <path d="M101.612925,8.13722211 L108.60647,6.29926791 C125.382293,19.9350135 134.843526,55.3929259 145.566513,59.2577978 C155.704663,62.9118779 169.135798,57.342491 185.039176,50.0176611 L191.04929,60.8024902 C177.542274,78.2333196 146.953518,94.6374852 133.391014,87.9869983 C111.707391,77.3542521 103.067112,33.357229 101.612925,8.13722211 Z" id="Coat-Back" fill="#FF4133" transform="translate(146.331107, 47.899575) rotate(5.000000) translate(-146.331107, -47.899575) "></path>
                <path d="M74.1796875,93.8823529 C102.756799,93.8823529 123.777523,93.8823529 137.24186,93.8823529 C140.123479,93.8823529 139.580493,89.7248776 139.163938,87.6269928 C134.356383,63.4148664 115.589512,37.3153657 115.589512,2.85001319 L97.3994134,0 C82.3538646,24.1775115 77.1508529,53.9449235 74.1796875,93.8823529 Z" id="Shirt" fill="#DDE3E9"></path>
                <path d="M67.8898719,69.3684926 C55.0342242,92.5382147 44.2283567,109.219305 35.4722693,119.411765 L22.2539063,116.824911 C30.7685745,64.0629065 55.4259173,25.1212696 96.2259347,-9.9475983e-14 L99.5091357,-9.9475983e-14 L103.428242,0 C119.758097,55.6186628 124.259948,92.6774864 116.933797,111.176471 L60.1679687,111.176471 C61.0660607,97.6404886 63.9456899,83.3256934 67.8898732,69.3684898 Z" id="Coat-Front" fill="#FF4133"></path>
            </g>
        </g>
        <g id="Humaaan" transform="translate(38.000000, 80.000000)">
            <g id="Head/Front/Top" transform="translate(136.256621, 49.429249) rotate(7.000000) translate(-136.256621, -49.429249) translate(80.104286, 6.609746)">
                <g id="Head" stroke-width="1" transform="translate(44.470588, 25.634615)" fill="#D4A181">
                    <path d="M6.80422555,28.5206817 C3.00947652,24.0480608 0.441111007,18.5668022 0.870286393,12.4248946 C2.10686018,-5.27165163 26.6399664,-1.37863694 31.4121635,7.55305991 C36.1843606,16.4847568 35.6172995,39.1407466 29.44966,40.7370899 C26.9900138,41.3737094 21.7502363,39.8142465 16.4173652,36.5866377 L19.7647059,60.3653846 L0,60.3653846 L6.80422555,28.5206817 Z"></path>
                </g>
                <path d="M55.1752423,25.4581129 C65.1041701,22.0042098 77.9889831,26.0403726 76.2647069,34.1359304 C75.1574905,39.3343636 69.1616296,41.9308897 63.2627707,44.709612 C62.3945143,43.1959058 60.7385358,42.1730769 58.8384328,42.1730769 C56.0382603,42.1730769 53.768272,44.3944334 53.768272,47.1346154 C53.768272,48.1216376 54.0627946,49.0413441 54.57053,49.814167 C52.5861567,51.5474747 51.1859973,53.6338148 50.8473731,56.339735 C47.6489827,56.339735 42.4794917,46.9101944 44.1861452,37.9638548 C43.7386948,38.013157 43.2840551,38.0384615 42.8235294,38.0384615 C36.0011884,38.0384615 30.4705882,32.4850705 30.4705882,25.6346154 C30.4705882,18.7841603 36.0011884,13.2307692 42.8235294,13.2307692 C49.5871809,13.2307692 55.0812204,18.6890246 55.1752454,25.4581118 Z" id="Hair" fill="#191847"></path>
            </g>
            <g id="Bottom/Standing/Skinny-Jeans" transform="translate(0.000000, 160.000000)">
                <polygon id="Leg" fill="#191847" points="105.813333 9.9475983e-14 135.784102 104.336712 157.651085 181.238494 173.6 181.238494 150.363205 9.9475983e-14"></polygon>
                <path d="M97.7982561,0 C97.1050352,53.7763514 94.7411645,83.1074347 94.0133109,87.99325 C93.2854572,92.8790654 82.2799287,123.960813 60.9967254,181.238494 L77.5187213,181.238494 C104.613868,126.290346 119.739071,95.2085983 122.894333,87.99325 C126.049594,80.7779018 135.787039,51.4468185 150.453333,0 L97.7982561,0 Z" id="Leg" fill="#2F3676"></path>
                <g id="Accessories/Shoe/Flat-Pointy" transform="translate(59.520000, 163.196653)" fill="#191847">
                    <path d="M0,33 L0.819672131,15.675 L18.0327869,15.675 C26.1947568,21.45 36.8504945,26.125 50,29.7 L50,33 L18.852459,33 L8.19672131,31.35 L8.19672131,33 L0,33 Z" id="Shoe"></path>
                </g>
                <g id="Accessories/Shoe/Flat-Pointy" transform="translate(155.413333, 163.196653)" fill="#191847">
                    <path d="M0,33 L0.819672131,15.675 L18.0327869,15.675 C26.1947568,21.45 36.8504945,26.125 50,29.7 L50,33 L18.852459,33 L8.19672131,31.35 L8.19672131,33 L0,33 Z" id="Shoe"></path>
                </g>
            </g>
            <g id="Body/Hoodie" transform="translate(123.865445, 150.367539) rotate(7.000000) translate(-123.865445, -150.367539) translate(18.166932, 73.374779)">
                <path d="M157.245446,75.9388704 L183.536599,95.2288928 C190.667301,97.1514042 196.624772,99.5433332 201.409012,102.40468 C202.539133,103.433601 203.90499,105.517339 199.218106,105.157217 C194.531223,104.797095 189.585115,104.628911 188.938416,106.226197 C188.291718,107.823484 191.127966,109.733663 189.820706,111.888821 C188.949199,113.325593 184.831851,109.722941 177.468663,101.080865 L151.433524,90.29378 L157.245446,75.9388704 Z M56.3006751,76.6046165 L73.5246972,76.6722938 C62.8896583,110.975314 57.1483176,129.176282 56.3006751,131.275197 C54.3934795,135.997756 58.4293619,143.190132 60.1552654,147.055261 C54.5340552,149.568481 55.1330011,140.261 48.0419957,143.557229 C41.5696547,146.565874 36.6461611,152.017336 29.1683064,147.407129 C28.2489481,146.840332 27.2414812,144.706235 29.6756486,143.038552 C35.7400474,138.883745 44.4792134,131.612083 45.6600123,129.21856 C47.2702427,125.954562 50.8171303,108.416581 56.3006751,76.6046165 Z" id="Skin" fill="#B28B67"></path>
                <path d="M101.161338,7.89246835 L108.154883,6.05451416 C136.487233,26.4873952 151.128925,69.2224307 185.443507,89.5373779 L178.513684,99.8429179 C121.889958,97.8138065 103.344055,45.7473901 101.161338,7.89246835 Z" id="Coat-Back" fill="#FF9B21" transform="translate(143.302422, 52.948716) rotate(5.000000) translate(-143.302422, -52.948716) "></path>
                <path d="M74.1796875,93.8823529 C102.756799,93.8823529 123.777523,93.8823529 137.24186,93.8823529 C140.123479,93.8823529 139.580493,89.7248776 139.163938,87.6269928 C134.356383,63.4148664 115.589512,37.3153657 115.589512,2.85001319 L97.3994134,0 C82.3538646,24.1775115 77.1508529,53.9449235 74.1796875,93.8823529 Z" id="Shirt" fill="#DDE3E9"></path>
                <path d="M74.6864512,23.7653776 C72.0445676,23.0066022 69.9524693,21.2369011 68.4101562,18.4562743 C61.7616427,6.46970947 64.1627321,-0.129782294 71.2678846,-2.2990725 C78.373037,-4.46836271 84.7093452,-1.687539e-14 96.0297524,-5.77315973e-15 C96.6454882,-5.32907052e-15 97.2094329,0.0385679694 97.7215865,0.115703908 L103.416035,0.440374071 C119.754027,55.7654542 124.259948,92.6774864 116.933797,111.176471 L67.2989561,111.176471 C64.3581445,118.028129 61.544036,123.792835 58.8566306,128.470588 L45.3320312,128.470588 C44.0591764,87.3493689 53.8439831,52.4476321 74.6864512,23.7653776 Z" id="Coat-Front" fill="#FF9B21"></path>
                <path d="M78.1072782,82.7627564 C79.6682843,95.8127248 82.2054416,105.283963 85.71875,111.176471 L67.2989561,111.176471 C70.7293307,103.184202 74.3321047,93.7129643 78.1072782,82.7627564 Z" id="Shade" fill-opacity="0.1" fill="#000000"></path>
            </g>
        </g>
    </g>
</svg>