<?xml version="1.0" encoding="UTF-8"?>
<svg width="287px" height="328px" viewBox="0 0 287 328" version="1.1" xmlns="http://www.w3.org/2000/svg" xmlns:xlink="http://www.w3.org/1999/xlink">
    <!-- Generator: Sketch 55.2 (78181) - https://sketchapp.com -->
    <title>Individual</title>
    <desc>Created with Sketch.</desc>
    <g id="Individual" stroke="none" stroke-width="1" fill="none" fill-rule="evenodd">
        <circle id="Oval" fill="#D8D8D8" cx="144" cy="219" r="102"></circle>
        <g id="Humaaan" transform="translate(156.981949, 280.500000) scale(-1, 1) translate(-156.981949, -280.500000) translate(-11.018051, 39.000000)">
            <g id="Head/Front/Short-Beard" transform="translate(185.036489, 66.736409) rotate(7.000000) translate(-185.036489, -66.736409) translate(109.193726, 8.924083)">
                <g id="Head" stroke-width="1" transform="translate(60.352941, 34.576923)" fill="#B28B67">
                    <path d="M9.2343061,38.4697568 C4.08428957,32.4369193 0.598650652,25.0435937 1.18110296,16.7591601 C2.85931025,-7.11059987 36.1542401,-1.8595568 42.6307933,10.1878483 C49.1073465,22.2352533 48.3377636,52.7944953 39.9673957,54.9477027 C36.6293045,55.8063988 29.5181778,53.7029372 22.2807099,49.3494182 L26.8235294,81.4230769 L0,81.4230769 L9.2343061,38.4697568 Z"></path>
                </g>
                <path d="M83.9747531,53.972267 C85.0015175,68.2460407 87.7175809,75.3829276 92.1229434,75.3829276 C98.7313741,75.3829276 104.338158,71.1961648 107.237779,71.1961648 C109.351504,71.1961648 108.879574,73.8359414 107.478486,75.793148 C106.322544,77.4079066 100.693202,78.9643407 100.693202,81.4677587 C100.693202,83.9711766 105.140849,82.0344201 105.140849,83.5191483 C105.140849,85.97507 105.922516,90.5926421 101.651368,90.5926421 C97.3288236,90.5926421 84.9353228,89.0206126 82.8114124,82.6181805 C81.4407028,78.486238 80.5544405,69.9240803 80.1526256,56.9317074 C79.8904062,56.9006113 79.6235455,56.8846154 79.3529412,56.8846154 C75.6493846,56.8846154 72.6470588,59.8808636 72.6470588,63.5769231 C72.6470588,65.4532434 73.4207968,67.1492135 74.6672227,68.3643925 C73.1155724,70.5501027 71.3766176,72.8333697 69.3839611,75.1894044 C61.8979825,70.7072135 56.3429606,57.5861603 63.6617198,44.9815412 C65.6846479,38.8067343 70.264274,35.5085378 75.6729226,33.9770794 C80.0542067,32.1480842 84.6023943,31.9418634 88.4417123,33.0383295 C95.9678389,33.6825672 102.688309,35.9728417 104.592944,37.3329793 C104.592944,44.4438064 103.212325,46.5535679 91.4199592,46.3676002 C88.5223837,47.8947673 86.2948738,50.524547 83.9747531,53.972267 Z" id="Hair" fill="#191847"></path>
            </g>
            <g id="Bottom/Standing/Skinny-Jeans-Walk" transform="translate(0.981949, 216.000000)">
                <polygon id="Leg" fill="#1F28CF" points="142.933333 0 196.624497 141.599824 234.258051 245.966527 255.716667 245.966527 203.985618 1.09231081e-13"></polygon>
                <path d="M129.663568,0 C129.079943,48.5858336 129.50188,113.998772 128.142046,117.027366 C127.235489,119.046428 99.0381409,142.051017 43.55,186.041131 L54.6105613,204.786611 C120.487753,162.444527 155.11036,138.452821 158.47838,132.811493 C163.53041,124.349502 188.911413,46.4811483 202.116667,0 L129.663568,0 Z" id="Leg" fill="#2B44FF"></path>
                <g id="Accessories/Shoe/Flat-Pointy" transform="translate(63.091667, 210.351464) rotate(50.000000) translate(-63.091667, -210.351464) translate(29.033333, 188.092050)" fill="#191847">
                    <path d="M0,45 L1.1147541,21.375 L24.5245902,21.375 C35.6248692,29.25 50.1166725,35.625 68,40.5 L68,45 L25.6393443,45 L11.147541,42.75 L11.147541,45 L0,45 Z" id="Shoe"></path>
                </g>
                <g id="Accessories/Shoe/Flat-Pointy" transform="translate(232.266667, 221.481172)" fill="#191847">
                    <path d="M0,45 L1.1147541,21.375 L24.5245902,21.375 C35.6248692,29.25 50.1166725,35.625 68,40.5 L68,45 L25.6393443,45 L11.147541,42.75 L11.147541,45 L0,45 Z" id="Shoe"></path>
                </g>
            </g>
            <g id="Body/Hoodie" transform="translate(168.300212, 203.017238) rotate(7.000000) translate(-168.300212, -203.017238) translate(25.537364, 99.066228)">
                <path d="M213.138377,102.566786 L248.774727,128.620842 C258.440039,131.217481 266.515094,134.448138 272.999894,138.312814 C274.531716,139.702527 276.383067,142.516925 270.03023,142.030527 C263.677392,141.544128 256.973189,141.316971 256.096621,143.474344 C255.220053,145.631718 259.064446,148.211701 257.29252,151.122563 C256.111237,153.063138 250.530377,148.197219 240.549941,136.524805 L205.260607,121.955235 L213.138377,102.566786 Z M76.3127634,103.465976 L99.6590683,103.557384 C85.2438022,149.888736 77.4617006,174.471862 76.3127634,177.30676 C73.7276546,183.685281 79.1980924,193.399659 81.5374687,198.620093 C73.918198,202.014572 74.7300394,189.443429 65.1185344,193.895478 C56.3455984,197.959102 49.6720478,205.322117 39.5361878,199.095344 C38.2900433,198.329798 36.9244721,195.447383 40.2238649,193.194927 C48.4438557,187.58324 60.2893603,177.761775 61.8898745,174.528964 C64.0724616,170.120448 68.8800912,146.432785 76.3127634,103.465976 Z" id="Skin" fill="#B28B67"></path>
                <path d="M137.139471,10.6760338 L146.619385,8.19061998 C185.012925,35.7772128 204.840663,93.4927161 251.342652,120.917524 L241.945578,134.839959 C165.197846,132.12287 140.082177,61.8052299 137.139471,10.6760338 Z" id="Coat-Back" fill="#2026A2" transform="translate(194.241062, 71.515290) rotate(5.000000) translate(-194.241062, -71.515290) "></path>
                <path d="M100.546875,126.802139 C139.281727,126.802139 167.774273,126.802139 186.024511,126.802139 C189.930403,126.802139 189.194413,121.186848 188.629792,118.353341 C182.113391,85.6512481 156.675832,50.3999744 156.675832,3.84936846 L132.020058,0 C111.626565,32.6553402 104.574142,72.8606758 100.546875,126.802139 Z" id="Shirt" fill="#DDE3E9"></path>
                <path d="M101.233768,32.0986918 C97.6528262,31.0738523 94.817091,28.6836066 92.7265625,24.9279549 C83.7148332,8.73830889 86.9693904,-0.175290371 96.600071,-3.10524078 C106.230752,-6.0351912 114.819302,-2.17603713e-14 130.163551,-6.66133815e-15 C130.99815,-6.21724894e-15 131.762549,0.0520918028 132.456748,0.156275408 L140.175289,0.594790954 C162.320625,75.3195745 168.428176,125.174787 158.497944,150.160428 L91.220386,150.160428 C87.2342622,159.414616 83.4198782,167.200712 79.7772339,173.518717 L61.4453125,173.518717 C59.7200211,117.978368 72.9828396,70.8383602 101.233768,32.0986918 Z" id="Coat-Front" fill="#2026A2"></path>
                <path d="M105.870529,111.783465 C107.986395,129.409395 111.425385,142.201716 116.1875,150.160428 L91.220386,150.160428 C95.870088,139.365676 100.753469,126.573355 105.870528,111.783464 Z" id="Shade" fill-opacity="0.1" fill="#000000"></path>
            </g>
        </g>
        <rect id="Rectangle" x="0" y="315" width="287" height="13"></rect>
    </g>
</svg>