<?xml version="1.0" encoding="UTF-8"?>
<svg width="509px" height="328px" viewBox="0 0 509 328" version="1.1" xmlns="http://www.w3.org/2000/svg" xmlns:xlink="http://www.w3.org/1999/xlink">
    <!-- Generator: Sketch 55.2 (78181) - https://sketchapp.com -->
    <title>Team</title>
    <desc>Created with Sketch.</desc>
    <g id="Team" stroke="none" stroke-width="1" fill="none" fill-rule="evenodd">
        <circle id="Oval" fill="#D8D8D8" cx="263" cy="164" r="129"></circle>
        <g id="Humaaan" transform="translate(373.500000, 231.000000) scale(-1, 1) translate(-373.500000, -231.000000) translate(181.000000, -46.000000)">
            <g id="Head/Front/Short-Beard" transform="translate(211.527416, 76.705333) rotate(7.000000) translate(-211.527416, -76.705333) translate(124.355444, 10.257141)">
                <g id="Head" stroke-width="1" transform="translate(69.088235, 39.644231)" fill="#B28B67">
                    <path d="M10.5708504,44.107566 C4.67543674,37.1906057 0.685297457,28.7137755 1.35205207,19.2152439 C3.27315778,-8.15267054 41.3870907,-2.13207806 48.8010397,11.680895 C56.2149887,25.493868 55.3340189,60.5316197 45.7521503,63.0003832 C41.9309144,63.9849227 33.7905456,61.5731952 25.5055495,56.5816606 L30.7058824,93.3557692 L0,93.3557692 L10.5708504,44.107566 Z"></path>
                </g>
                <path d="M96.1289937,61.8819958 C97.3043687,78.2476157 100.413547,86.4304256 105.456527,86.4304256 C113.021441,86.4304256 119.439734,81.6300855 122.759036,81.6300855 C125.178695,81.6300855 124.63846,84.6567259 123.034583,86.9007646 C121.711333,88.7521688 115.267218,90.536701 115.267218,93.4069991 C115.267218,96.2772973 120.358604,94.0567058 120.358604,95.7590235 C120.358604,98.5748648 121.253407,103.86915 116.364066,103.86915 C111.41589,103.86915 97.2285932,102.066737 94.7972747,94.7260172 C93.2281729,89.9885315 92.2136359,80.1715748 91.7536635,65.2751472 C91.4534913,65.239494 91.148006,65.2211538 90.8382353,65.2211538 C86.5986377,65.2211538 83.1617647,68.6565074 83.1617647,72.8942308 C83.1617647,75.0455291 84.0474911,76.9900465 85.4743207,78.3833121 C83.6980895,80.8893418 81.7074438,83.5072256 79.4263765,86.2085413 C70.856901,81.0694775 64.4978628,66.0255114 72.8759161,51.5736637 C75.1916364,44.4939281 80.4341031,40.7123753 86.6255824,38.9564789 C91.6409998,36.8594414 96.8474777,36.6229986 101.242486,37.8801537 C109.857921,38.6188055 117.55109,41.2447236 119.731397,42.8041917 C119.731397,50.9571228 118.150952,53.3760735 104.651795,53.162852 C101.334834,54.913828 98.7849213,57.9290064 96.1289937,61.8819958 Z" id="Hair" fill="#191847"></path>
            </g>
            <g id="Bottom/Standing/Skinny-Jeans-Walk" transform="translate(0.000000, 248.038737)">
                <polygon id="Leg" fill="#1F28CF" points="164.266667 0 225.971437 162.3607 269.221939 282.029289 293.883333 282.029289 234.431233 1.25246164e-13"></polygon>
                <path d="M149.016339,0 C148.345606,55.7093205 148.830519,130.712878 147.267724,134.185514 C146.225861,136.500604 113.819953,162.878046 50.05,213.317839 L62.7613914,234.811715 C138.471,186.261582 178.26116,158.752295 182.131869,152.283855 C187.937934,142.581196 217.107147,53.2960535 232.283333,0 L149.016339,0 Z" id="Leg" fill="#2B44FF"></path>
                <g id="Accessories/Shoe/Flat-Pointy" transform="translate(72.508333, 241.192469) rotate(50.000000) translate(-72.508333, -241.192469) translate(33.366667, 215.669456)" fill="#191847">
                    <path d="M0,51 L1.27868852,24.225 L28.1311475,24.225 C40.8638206,33.15 57.4867714,40.375 78,45.9 L78,51 L29.4098361,51 L12.7868852,48.45 L12.7868852,51 L0,51 Z" id="Shoe"></path>
                </g>
                <g id="Accessories/Shoe/Flat-Pointy" transform="translate(266.933333, 253.953975)" fill="#191847">
                    <path d="M0,51 L1.27868852,24.225 L28.1311475,24.225 C40.8638206,33.15 57.4867714,40.375 78,45.9 L78,51 L29.4098361,51 L12.7868852,48.45 L12.7868852,51 L0,51 Z" id="Shoe"></path>
                </g>
            </g>
            <g id="Body/Hoodie" transform="translate(192.291115, 233.343464) rotate(7.000000) translate(-192.291115, -233.343464) translate(28.202697, 113.864503)">
                <path d="M244.438419,117.853182 L285.308078,147.790295 C296.392771,150.773933 305.653674,154.486082 313.090787,158.926743 C314.847562,160.523576 316.97079,163.757429 309.685019,163.198538 C302.399247,162.639647 294.710511,162.378634 293.705216,164.85754 C292.699921,167.336446 297.108875,170.300945 295.076737,173.645637 C293.721978,175.875433 287.321551,170.284304 275.875457,156.872252 L235.403773,140.131256 L244.438419,117.853182 Z M87.5195328,118.886385 L114.294316,118.991417 C97.7621228,172.227923 88.8371951,200.47488 87.5195328,203.732287 C84.5547927,211.061453 90.8285815,222.223646 93.5115026,228.222126 C84.773318,232.122513 85.7043809,217.677786 74.6813961,222.793362 C64.6201268,227.462622 56.9665443,235.923009 45.3422014,228.768207 C43.9130567,227.888567 42.346947,224.57656 46.130866,221.988402 C55.5579883,215.540357 69.1430426,204.255116 70.9785974,200.540492 C73.4817043,195.474938 78.9953494,168.256902 87.5195328,118.886385 Z" id="Skin" fill="#B28B67"></path>
                <path d="M157.266346,12.2572544 L168.138101,9.40325832 C212.175725,41.1081413 234.926509,107.428278 288.263436,138.948805 L277.488858,154.944205 C189.468691,151.807648 160.650948,71.0063769 157.266346,12.2572544 Z" id="Coat-Back" fill="#2026A2" transform="translate(222.764891, 82.173732) rotate(5.000000) translate(-222.764891, -82.173732) "></path>
                <path d="M115.3125,145.700535 C159.735687,145.700535 192.412453,145.700535 213.342796,145.700535 C217.822281,145.700535 216.978207,139.248349 216.330671,135.992541 C208.857316,98.4165783 179.684171,57.9115091 179.684171,4.42307241 L151.407619,0 C128.019278,37.5222419 119.931184,83.7197189 115.3125,145.700535 Z" id="Shirt" fill="#DDE3E9"></path>
                <path d="M116.100265,36.8826315 C111.993451,35.7050514 108.741279,32.9585673 106.34375,28.6431789 C96.0086199,10.040653 99.7411191,-0.201415378 110.786095,-3.56804109 C121.831072,-6.93466681 131.680878,-2.66453526e-14 149.278478,-8.8817842e-15 C150.23564,-7.99360578e-15 151.112294,0.059855485 151.908438,0.179566455 L160.760471,0.683437682 C186.157919,86.545088 193.162384,143.830644 181.773865,172.540107 L104.616387,172.540107 C100.044888,183.173525 95.6703498,192.120049 91.4927718,199.379679 L70.46875,199.379679 C68.4900941,135.561683 83.7005993,81.3960004 116.100265,36.8826315 Z" id="Coat-Front" fill="#2026A2"></path>
                <path d="M121.417949,128.443501 C123.844537,148.696373 127.788554,163.395241 133.25,172.540107 L104.616387,172.540107 C109.948912,160.136522 115.549433,145.437653 121.417949,128.443499 Z" id="Shade" fill-opacity="0.1" fill="#000000"></path>
            </g>
        </g>
        <g id="Humaaan" transform="translate(-53.000000, -27.000000)">
            <g id="Head/Front/Top" transform="translate(211.527416, 76.705333) rotate(7.000000) translate(-211.527416, -76.705333) translate(124.355444, 10.257141)">
                <g id="Head" stroke-width="1" transform="translate(69.088235, 39.644231)" fill="#D4A181">
                    <path d="M10.5708504,44.107566 C4.67543674,37.1906057 0.685297457,28.7137755 1.35205207,19.2152439 C3.27315778,-8.15267054 41.3870907,-2.13207806 48.8010397,11.680895 C56.2149887,25.493868 55.3340189,60.5316197 45.7521503,63.0003832 C41.9309144,63.9849227 33.7905456,61.5731952 25.5055495,56.5816606 L30.7058824,93.3557692 L0,93.3557692 L10.5708504,44.107566 Z"></path>
                </g>
                <path d="M85.71868,39.3712677 C101.143979,34.0297663 121.161456,40.271739 118.48267,52.7916133 C116.76253,60.8310506 107.447532,64.8466085 98.283233,69.1439348 C96.9343347,66.8029706 94.3616539,65.2211538 91.4097081,65.2211538 C87.0594401,65.2211538 83.5328511,68.6565074 83.5328511,72.8942308 C83.5328511,74.4206721 83.990413,75.8430089 84.7792162,77.0381885 C81.6963506,79.718769 79.521103,82.9453183 78.9950261,87.1300553 C74.0260981,87.1300553 65.9949246,72.5471611 68.6463327,58.7115429 C67.9511865,58.7877893 67.2448713,58.8269231 66.5294118,58.8269231 C55.9304177,58.8269231 47.3382353,50.2385392 47.3382353,39.6442308 C47.3382353,29.0499223 55.9304177,20.4615385 66.5294118,20.4615385 C77.0372274,20.4615385 85.5726103,28.9027939 85.7186849,39.371266 Z" id="Hair" fill="#191847"></path>
            </g>
            <g id="Bottom/Standing/Skinny-Jeans" transform="translate(0.000000, 248.038737)">
                <polygon id="Leg" fill="#191847" points="164.266667 9.9475983e-14 210.793868 162.3607 244.740595 282.029289 269.5 282.029289 233.42675 9.9475983e-14"></polygon>
                <path d="M151.823906,0 C150.747736,83.6825876 147.078018,129.325345 145.948083,136.928272 C144.818149,144.531199 127.732954,192.898204 94.692497,282.029289 L120.341563,282.029289 C162.404593,196.523243 185.885252,148.156237 190.783541,136.928272 C195.68183,125.700306 210.798427,80.0575492 233.566667,0 L151.823906,0 Z" id="Leg" fill="#2F3676"></path>
                <g id="Accessories/Shoe/Flat-Pointy" transform="translate(92.400000, 253.953975)" fill="#191847">
                    <path d="M0,51 L1.27868852,24.225 L28.1311475,24.225 C40.8638206,33.15 57.4867714,40.375 78,45.9 L78,51 L29.4098361,51 L12.7868852,48.45 L12.7868852,51 L0,51 Z" id="Shoe"></path>
                </g>
                <g id="Accessories/Shoe/Flat-Pointy" transform="translate(241.266667, 253.953975)" fill="#191847">
                    <path d="M0,51 L1.27868852,24.225 L28.1311475,24.225 C40.8638206,33.15 57.4867714,40.375 78,45.9 L78,51 L29.4098361,51 L12.7868852,48.45 L12.7868852,51 L0,51 Z" id="Shoe"></path>
                </g>
            </g>
            <g id="Body/Hoodie" transform="translate(192.291115, 233.343464) rotate(7.000000) translate(-192.291115, -233.343464) translate(28.202697, 113.864503)">
                <path d="M244.438419,117.853182 L285.308078,147.790295 C296.392771,150.773933 305.653674,154.486082 313.090787,158.926743 C314.847562,160.523576 316.97079,163.757429 309.685019,163.198538 C302.399247,162.639647 294.710511,162.378634 293.705216,164.85754 C292.699921,167.336446 297.108875,170.300945 295.076737,173.645637 C293.721978,175.875433 287.321551,170.284304 275.875457,156.872252 L235.403773,140.131256 L244.438419,117.853182 Z M87.5195328,118.886385 L114.294316,118.991417 C97.7621228,172.227923 88.8371951,200.47488 87.5195328,203.732287 C84.5547927,211.061453 90.8285815,222.223646 93.5115026,228.222126 C84.773318,232.122513 85.7043809,217.677786 74.6813961,222.793362 C64.6201268,227.462622 56.9665443,235.923009 45.3422014,228.768207 C43.9130567,227.888567 42.346947,224.57656 46.130866,221.988402 C55.5579883,215.540357 69.1430426,204.255116 70.9785974,200.540492 C73.4817043,195.474938 78.9953494,168.256902 87.5195328,118.886385 Z" id="Skin" fill="#B28B67"></path>
                <path d="M157.266346,12.2572544 L168.138101,9.40325832 C212.175725,41.1081413 234.926509,107.428278 288.263436,138.948805 L277.488858,154.944205 C189.468691,151.807648 160.650948,71.0063769 157.266346,12.2572544 Z" id="Coat-Back" fill="#FF9B21" transform="translate(222.764891, 82.173732) rotate(5.000000) translate(-222.764891, -82.173732) "></path>
                <path d="M115.3125,145.700535 C159.735687,145.700535 192.412453,145.700535 213.342796,145.700535 C217.822281,145.700535 216.978207,139.248349 216.330671,135.992541 C208.857316,98.4165783 179.684171,57.9115091 179.684171,4.42307241 L151.407619,0 C128.019278,37.5222419 119.931184,83.7197189 115.3125,145.700535 Z" id="Shirt" fill="#DDE3E9"></path>
                <path d="M116.100265,36.8826315 C111.993451,35.7050514 108.741279,32.9585673 106.34375,28.6431789 C96.0086199,10.040653 99.7411191,-0.201415378 110.786095,-3.56804109 C121.831072,-6.93466681 131.680878,-2.66453526e-14 149.278478,-8.8817842e-15 C150.23564,-7.99360578e-15 151.112294,0.059855485 151.908438,0.179566455 L160.760471,0.683437682 C186.157919,86.545088 193.162384,143.830644 181.773865,172.540107 L104.616387,172.540107 C100.044888,183.173525 95.6703498,192.120049 91.4927718,199.379679 L70.46875,199.379679 C68.4900941,135.561683 83.7005993,81.3960004 116.100265,36.8826315 Z" id="Coat-Front" fill="#FF9B21"></path>
                <path d="M121.417949,128.443501 C123.844537,148.696373 127.788554,163.395241 133.25,172.540107 L104.616387,172.540107 C109.948912,160.136522 115.549433,145.437653 121.417949,128.443499 Z" id="Shade" fill-opacity="0.1" fill="#000000"></path>
            </g>
        </g>
    </g>
</svg>