<?xml version="1.0"?>
<svg xmlns="http://www.w3.org/2000/svg" height="512px" viewBox="0 0 192 192" width="512px" class=""><g><g id="_03-pet" data-name="03-pet"><path d="m96 80c-35.29 0-64 25.122-64 56s28.71 56 64 56 64-25.122 64-56-28.71-56-64-56zm0 96c-26.467 0-48-17.944-48-40s21.533-40 48-40 48 17.944 48 40-21.532 40-48 40z" data-original="#000000" class="active-path" data-old_color="#000000" fill="#FFFFFF"/><path d="m96 72c21.307 0 32-20.515 32-32 0-9.333-8.856-15.976-17.422-22.4a89.958 89.958 0 0 1 -8.921-7.257 8 8 0 0 0 -11.314 0 89.726 89.726 0 0 1 -8.921 7.257c-8.565 6.424-17.422 13.067-17.422 22.4 0 11.485 10.693 32 32 32zm-4.978-41.6c1.661-1.246 3.347-2.51 4.978-3.8 1.631 1.292 3.316 2.556 4.978 3.8 3.792 2.844 10.085 7.564 11.016 9.848-.194 4.102-5.037 15.752-15.994 15.752s-15.8-11.65-15.994-15.752c.931-2.284 7.224-7.004 11.016-9.848z" data-original="#000000" class="active-path" data-old_color="#000000" fill="#FFFFFF"/><path d="m185.213 50.754a90.009 90.009 0 0 1 -4.613-10.534 8 8 0 0 0 -10.06-5.178 89.7 89.7 0 0 1 -11.253 2.37c-10.556 1.792-21.471 3.645-25.742 11.944-5.256 10.211-5.136 33.346 13.808 43.1a29.726 29.726 0 0 0 13.728 3.393c13.664 0 25.4-9.494 29.37-17.2 4.274-8.304-.562-18.263-5.238-27.895zm-30.535 27.472c-9.742-5.014-8.717-17.589-7.013-21.325 1.873-1.605 9.63-2.922 14.3-3.714 2.047-.348 4.124-.7 6.166-1.1.858 1.895 1.779 3.791 2.685 5.658 2.071 4.263 5.507 11.341 5.289 13.8-2.046 3.555-11.686 11.697-21.427 6.681z" data-original="#000000" class="active-path" data-old_color="#000000" fill="#FFFFFF"/><path d="m60.71 70.685c1.517-7.5.652-15.677-2.257-21.329-4.271-8.3-15.186-10.152-25.742-11.944a89.7 89.7 0 0 1 -11.253-2.37 8.081 8.081 0 0 0 -10.058 5.178 89.99 89.99 0 0 1 -4.61 10.534c-4.677 9.632-9.512 19.591-5.241 27.89 2.907 5.656 9.051 11.106 16.043 14.233a32.5 32.5 0 0 0 13.3 2.93 29.9 29.9 0 0 0 13.754-3.354 30.684 30.684 0 0 0 16.064-21.768zm-23.388 7.541c-4.1 2.112-8.543 2.128-13.2.046a19.239 19.239 0 0 1 -8.234-6.733c-.217-2.457 3.218-9.534 5.288-13.8.906-1.867 1.827-3.763 2.686-5.658 2.041.4 4.119.755 6.166 1.1 4.672.792 12.427 2.109 14.3 3.713a19.231 19.231 0 0 1 .694 10.615c-1.004 5.002-3.597 8.605-7.7 10.717z" data-original="#000000" class="active-path" data-old_color="#000000" fill="#FFFFFF"/><path d="m114.659 114.071c-3.242-1.735-9.644-3.643-18.659.761-9.01-4.4-15.417-2.495-18.658-.761-5.912 3.164-9.3 9.713-9.3 17.969 0 15.426 20.568 25.416 24.691 27.262a8.061 8.061 0 0 0 6.538 0c4.124-1.846 24.692-11.836 24.692-27.262-.002-8.256-3.393-14.805-9.304-17.969zm-18.659 28.982c-6.422-3.553-11.96-8.516-11.96-11.013 0-2.639.684-3.726.848-3.86a1.188 1.188 0 0 1 .432-.056c.883 0 2.981.413 6.243 2.587a8 8 0 0 0 8.875 0c4.076-2.717 6.333-2.685 6.656-2.543.182.146.867 1.233.867 3.872 0 2.498-5.542 7.46-11.961 11.013z" data-original="#000000" class="active-path" data-old_color="#000000" fill="#FFFFFF"/></g></g> </svg>
