<?xml version="1.0"?>
<svg xmlns="http://www.w3.org/2000/svg" id="Capa_1" enable-background="new 0 0 512.21 512.21" height="512px" viewBox="0 0 512.21 512.21" width="512px" class=""><g><path d="m511.919 499.907c-1.056-9.652-7.295-57.512-30.592-97.695-9.814-16.782-22.915-31.723-38.939-44.411-13.358-10.934-28.089-18.134-41.742-22.877v-31.098c0-5.523-4.478-10-10-10s-10 4.477-10 10v25.529c-4.605-.984-8.855-1.699-12.61-2.217v-3.53c0-5.523-4.478-10-10-10s-10 4.477-10 10v1.965c-6.189-.294-12.384-.349-18.578-.354l.008-39.744c14.372-13.98 24.609-32.421 29.033-51.952 2.208-9.739 2.708-19.611 2.753-29.006.044-9.233.146-18.462.043-27.697-.051-4.652-3.305-8.654-7.848-9.655-.011-.002-.055-.012-.128-.03-6.975-1.591-13.952-4.702-19.88-8.666-7.868-5.261-14.139-13.037-14.581-22.823l18.653-62.89c5.868 1.34 17.206 7.03 30.752 29.499 11.55 19.157 12.384 43.251 12.384 80.657v32.917c0 5.523 4.478 10 10 10s10-4.477 10-10v-32.919c0-39.674-1.062-67.441-15.256-90.983-18.541-30.757-36.385-38.223-47.407-39.403-3.229-4.497-7.881-7.405-12.343-10.511-24.742-17.227-60.355-18.145-79.386-17.16-33.234 1.736-63.974 12.855-86.95 31.054-10.826-32.444-41.466-55.907-77.503-55.907-45.048 0-81.697 36.649-81.697 81.697s36.649 81.697 81.697 81.697c9.857 0 19.446-1.753 28.406-5.07-.226 2.992-.353 5.891-.353 8.636v168.995c-13.379 4.664-27.169 11.43-39.194 21.252-15.874 12.08-29.627 27.639-39.797 45.037-23.275 40.147-29.519 88.03-30.573 97.668-.13.933-.227 1.81-.17 2.809.288 5.269 4.667 9.488 10.005 9.488h491.98c5.464 0 9.904-4.382 9.998-9.824.021-.865-.069-1.65-.185-2.478zm-255.819-71.963s-26.404-32.22-27.689-33.779c-17.578-21.319-25.601-31.049-25.666-57.686v-1.34-34.487c16.049 9.483 34.422 14.587 53.35 14.587s37.316-5.102 53.366-14.587l-.007 34.557v.92c0 26.877-8.104 36.716-25.862 58.272-1.223 1.487-27.492 33.543-27.492 33.543zm-22.168-244.466c20.749-.524 41.107-6.831 58.174-18.721 4.127-2.875 8.041-6.037 11.729-9.457 4.717 9.008 12.401 16.099 21.008 21.348 5.992 3.655 11.979 6.147 16.513 7.736.031 6.401-.004 11.61-.108 15.797-.402 14.459-.794 28.119-6.295 41.742-4.844 11.998-12.497 23.509-22.443 31.884-15.546 13.821-35.581 21.433-56.415 21.433-20.951 0-41.078-7.695-56.682-21.673-.199-.178-.388-.365-.586-.545-12.726-11.602-21.821-27.164-25.614-43.851-2.345-10.716-2.166-21.543-2.299-32.438-.061-4.818-.085-9.233-.073-13.214h60.054c1.023.001 2.034-.015 3.037-.041zm-213.827-101.781c0-34.02 27.677-61.697 61.697-61.697 32.509 0 59.208 25.279 61.516 57.21.378 5.224-.041 10.311-.816 15.478-.452 3.013.344 5.727 2.131 8.154 2.829 3.841 10.503 14.157 11.491 15.489-4.134 0-16.162-.023-18.042 0-3.943.048-6.509 1.984-8.939 4.89-3.585 4.285-7.709 7.895-12.207 11.186-10.196 7.093-22.368 10.988-35.134 10.988-34.02-.001-61.697-27.679-61.697-61.698zm109.75 85.263c0-6.151.707-13.255 2.054-20.732 3.816-2.975 7.378-6.295 10.612-9.896h33.474c8.018 0 12.845-9.47 8.031-15.96l-21.17-28.537c.427-3.395.642-6.79.642-10.138 0-.14-.01-.278-.011-.417-.004-.795-.014-1.591-.041-2.386 20.134-19.966 50.422-32.321 83.845-34.066 28.026-1.451 52.42 3.504 66.913 13.596 1.912 1.334 3.896 2.56 5.727 4.009l-20.318 67.753c-11.68 16.247-30.605 27.399-50.017 31.434-6.142 1.277-12.43 1.901-18.703 1.901h-69.93c-5.428 0-9.865 4.33-9.997 9.756-.255 10.457-.173 20.94-.071 31.398.095 9.689.662 19.509 2.829 28.98 4.51 19.774 14.505 37.558 29.02 51.705v39.772c-6.835-.006-13.716.335-20.542.702v-2.226c0-5.523-4.477-10-10-10s-10 4.477-10 10v4.36c-3.866.608-8.013 1.374-12.348 2.338v-163.346zm-81.706 245.347c8.871-15.175 20.888-28.758 34.752-39.281 17.545-13.331 37.676-20.968 59.303-24.747v38.629c-16.825 4.434-29.269 19.777-29.269 37.975 0 21.653 17.616 39.269 39.269 39.269s39.269-17.616 39.269-39.269c0-18.198-12.445-33.541-29.269-37.975v-41.024c6.92-.438 13.915-.758 20.846-.752 1.974 27.849 13.398 41.705 29.931 61.757 1.272 1.543 32.497 39.647 32.497 39.647v45.674h-223.932c2.725-16.897 9.93-51.146 26.603-79.903zm104.054-6.693c10.625 0 19.269 8.644 19.269 19.27 0 10.625-8.644 19.269-19.269 19.269s-19.269-8.644-19.269-19.269c0-10.626 8.644-19.27 19.269-19.27zm113.273 86.596v-43.9c.086-.186.179-.369.254-.56 0 0 32.087-39.159 33.299-40.631 16.604-20.156 28.102-34.115 30.111-61.901l2.589.002c6.314.01 11.569.132 16.306.377v24.959l-5.6 5.316c-19.335 18.355-32.344 32.403-36.834 59.347-.09.543-.136 1.093-.136 1.644v13.032c0 10.463 6.626 19.842 16.488 23.338l14.883 5.275c1.104.392 2.231.578 3.341.578 4.116 0 7.972-2.562 9.426-6.662 1.845-5.206-.88-10.921-6.085-12.766l-14.883-5.275c-1.896-.672-3.17-2.476-3.17-4.487v-12.182c3.667-20.781 13.617-31.081 30.739-47.337l1.83-1.737 1.83 1.737c17.122 16.257 27.072 26.557 30.739 47.338v12.182c0 2.012-1.274 3.815-3.171 4.487l-14.882 5.275c-5.205 1.845-7.93 7.561-6.085 12.766 1.846 5.205 7.559 7.93 12.767 6.084l14.882-5.274c9.862-3.496 16.489-12.875 16.489-23.338v-13.032c0-.551-.046-1.101-.136-1.644-4.49-26.944-17.499-40.992-36.834-59.348l-5.6-5.316v-23.146c16.195 2.561 41.251 9.12 61.741 25.915.045.037.09.073.136.109 14.094 11.148 25.584 24.228 34.132 38.842 16.692 28.792 23.897 63.04 26.621 79.935h-225.187z" data-original="#000000" class="active-path" data-old_color="#000000" fill="#FFFFFF"/><path d="m244.777 242.776h21.399c5.522 0 10-4.477 10-10s-4.478-10-10-10h-6.741l5.353-13.663c2.015-5.142-.521-10.944-5.663-12.958-5.143-2.015-10.945.521-12.959 5.664l-10.699 27.311c-1.206 3.078-.813 6.553 1.05 9.283 1.863 2.729 4.955 4.363 8.26 4.363z" data-original="#000000" class="active-path" data-old_color="#000000" fill="#FFFFFF"/><path d="m398.955 254.99c-2.984-4.566-9.356-5.746-13.859-2.76-4.542 3.012-5.774 9.338-2.761 13.86 3.018 4.529 9.331 5.798 13.86 2.77 4.53-3.028 5.782-9.341 2.76-13.87z" data-original="#000000" class="active-path" data-old_color="#000000" fill="#FFFFFF"/><path d="m52.645 72.25c9.14 0 13.403-11.789 6.427-17.663-6.977-5.875-17.88.423-16.272 9.402.844 4.709 5.051 8.261 9.845 8.261z" data-original="#000000" class="active-path" data-old_color="#000000" fill="#FFFFFF"/><path d="m107.905 70.56c3.556 2.369 8.321 2.184 11.695-.432 3.3-2.559 4.65-7.064 3.338-11.02-1.341-4.043-5.222-6.863-9.488-6.863-4.169 0-8.003 2.709-9.411 6.631-1.524 4.243.082 9.204 3.866 11.684z" data-original="#000000" class="active-path" data-old_color="#000000" fill="#FFFFFF"/><path d="m73.815 49.23c2.064 5.034 8.042 7.503 13.06 5.41 5.028-2.098 7.499-8.014 5.41-13.06-2.085-5.034-8.035-7.491-13.06-5.4-5.02 2.088-7.508 8.013-5.41 13.05z" data-original="#000000" class="active-path" data-old_color="#000000" fill="#FFFFFF"/><path d="m121.355 101.809c0-5.889-2.833-11.488-7.578-14.977l-14.81-10.888c-9.473-6.965-22.262-7.048-31.826-.209l-15.317 10.953c-4.869 3.482-7.775 9.135-7.776 15.121s2.906 11.639 7.771 15.119l.37.264c9.155 6.55 19.838 9.82 30.517 9.82 10.908 0 21.812-3.413 31.075-10.226 4.743-3.489 7.575-9.088 7.574-14.977zm-56.264-.02 13.685-9.786c2.507-1.792 5.861-1.771 8.344.055l13.218 9.718c-10.728 6.958-24.494 6.976-35.247.013z" data-original="#000000" class="active-path" data-old_color="#000000" fill="#FFFFFF"/></g> </svg>
