<svg height="512" viewBox="0 0 192 192" width="512" xmlns="http://www.w3.org/2000/svg"><path d="m160 72h-128a32.036 32.036 0 0 0 -32 32v80a8 8 0 0 0 8 8h176a8 8 0 0 0 8-8v-80a32.036 32.036 0 0 0 -32-32zm-128 104a8 8 0 1 1 8-8 8 8 0 0 1 -8 8zm24-24a8 8 0 1 1 8-8 8 8 0 0 1 -8 8zm40 24a8 8 0 1 1 8-8 8 8 0 0 1 -8 8zm32-24a8 8 0 1 1 8-8 8 8 0 0 1 -8 8zm24 24a8 8 0 1 1 8-8 8 8 0 0 1 -8 8zm32-32h-16a24 24 0 0 1 -24-24 16 16 0 0 0 -16-16h-8a16 16 0 0 0 -16 16 8 8 0 0 1 -8 8h-8a8 8 0 0 1 -8-8 16 16 0 0 0 -16-16h-8a16 16 0 0 0 -16 16 24 24 0 0 1 -32 22.629v-38.629a24 24 0 0 1 24-24h128a24 24 0 0 1 24 24z"/><path d="m134.692 34.2c3.339-11.685-.613-22.491-10.312-28.2a29.823 29.823 0 0 0 -29.38.037 29.818 29.818 0 0 0 -29.38-.037c-9.7 5.707-13.651 16.513-10.312 28.2 3.871 13.545 27.837 31.242 35.092 36.344a8 8 0 0 0 9.206 0c7.249-5.102 31.215-22.799 35.086-36.344z"/></svg>