<svg id="Layer_3" enable-background="new 0 0 64 64" height="512" viewBox="0 0 64 64" width="512" xmlns="http://www.w3.org/2000/svg"><path d="m26 10c-4.625 0-8.442 3.507-8.941 8h17.882c-.499-4.493-4.316-8-8.941-8z"/><path d="m33.658 11.12c1.833 1.781 3.047 4.191 3.291 6.88h9.992c-.499-4.493-4.316-8-8.941-8-1.541 0-3.019.388-4.342 1.12z"/><path d="m31.994 9.789c1.787-1.17 3.847-1.789 6.006-1.789.739 0 1.46.076 2.159.215-1.448-3.111-4.608-5.215-8.159-5.215s-6.711 2.104-8.159 5.215c.699-.139 1.42-.215 2.159-.215 2.211 0 4.268.662 5.994 1.789z"/><path d="m32 40c11.244 0 20.453-8.883 20.977-20h-23.977v9c0 1.654-1.346 3-3 3s-3-1.346-3-3v-4c0-.551-.448-1-1-1s-1 .449-1 1c0 1.654-1.346 3-3 3s-3-1.346-3-3v-3h2v3c0 .551.448 1 1 1s1-.449 1-1c0-1.654 1.346-3 3-3s3 1.346 3 3v4c0 .551.448 1 1 1s1-.449 1-1v-9h-15.977c.524 11.117 9.733 20 20.977 20zm16.765-18.166 1.973.331c-1.279 7.623-6.977 13.653-14.516 15.364l-.443-1.951c6.744-1.529 11.842-6.925 12.986-13.744zm-16.765 14.166c.632 0 1.268-.035 1.891-.104l.219 1.988c-.696.077-1.406.116-2.11.116z"/><path d="m36.276 53.185c.425 1.136.945 2.239 1.574 3.287l-1.701 1.052c-2.065-3.44-3.149-7.354-3.149-11.34v-4.209c-.332.014-.665.025-1 .025s-.668-.011-1-.025v4.209c0 3.986-1.084 7.9-3.135 11.318l-1.717-1.026.008-.013c.626-1.044 1.145-2.144 1.568-3.278-6.919.612-10.724 2.584-10.724 3.815 0 1.631 5.844 4 15 4s15-2.369 15-4c0-1.23-3.805-3.203-10.724-3.815z"/></svg>